<?xml version="1.0" standalone="no"?>
<!DOCTYPE svg PUBLIC "-//W3C//DTD SVG 20010904//EN"
 "http://www.w3.org/TR/2001/REC-SVG-20010904/DTD/svg10.dtd">
<svg version="1.0" xmlns="http://www.w3.org/2000/svg"
 width="2000.000000pt" height="2000.000000pt" viewBox="0 0 2000.000000 2000.000000"
 preserveAspectRatio="xMidYMid meet">
<metadata>
Created by potrace 1.11, written by Peter Selinger 2001-2013
</metadata>
<g transform="translate(0.000000,2000.000000) scale(0.100000,-0.100000)"
fill="#000000" stroke="none">
<path d="M9947 18904 c-173 -35 -301 -151 -351 -322 -10 -34 -14 -83 -12 -140
2 -78 7 -97 41 -167 135 -282 499 -348 718 -130 52 51 109 147 123 205 14 58
11 175 -5 235 -63 225 -287 365 -514 319z"/>
<path d="M9150 17805 c-150 -42 -250 -129 -309 -267 -23 -55 -26 -77 -26 -174
0 -107 1 -112 37 -185 62 -125 171 -218 288 -245 19 -4 42 -9 50 -11 31 -7
119 -3 165 7 165 37 303 173 341 337 17 74 10 187 -16 255 -45 120 -148 223
-270 269 -66 25 -196 32 -260 14z"/>
<path d="M10684 17801 c-204 -58 -337 -239 -329 -449 6 -157 90 -296 226 -375
72 -41 140 -57 242 -54 83 3 100 7 168 40 116 56 219 175 245 282 12 50 13
203 3 238 -49 154 -155 264 -302 315 -61 22 -183 23 -253 3z"/>
<path d="M7638 17484 c-122 -29 -227 -111 -288 -226 -17 -32 -33 -68 -36 -80
-11 -48 -20 -127 -18 -145 2 -10 6 -37 9 -61 12 -90 54 -170 128 -244 33 -32
65 -58 73 -58 8 0 14 -3 14 -8 0 -7 21 -17 85 -40 109 -41 259 -26 364 35 335
195 288 688 -78 814 -71 25 -179 30 -253 13z"/>
<path d="M12220 17486 c-290 -64 -440 -379 -306 -644 64 -126 187 -215 327
-238 53 -8 49 -8 127 -1 87 8 196 62 265 132 138 139 169 351 76 525 -93 174
-297 268 -489 226z"/>
<path d="M6248 16860 c-16 -4 -28 -6 -28 -3 0 3 -7 0 -15 -7 -8 -7 -15 -9 -15
-6 0 17 -128 -63 -171 -107 -199 -202 -170 -522 61 -689 99 -71 266 -95 389
-56 327 102 422 513 174 754 -43 43 -145 99 -198 110 -52 11 -169 14 -197 4z"/>
<path d="M13597 16850 c-276 -86 -402 -394 -266 -650 49 -91 164 -182 271
-213 197 -59 428 42 522 229 32 63 53 150 49 204 -1 19 -3 46 -4 60 -6 96 -77
220 -166 292 -107 86 -275 118 -406 78z"/>
<path d="M10018 16805 c-2 -2 -27 -6 -56 -9 -30 -4 -64 -12 -75 -18 -12 -6
-24 -11 -27 -10 -3 1 -27 -12 -55 -27 -148 -84 -228 -233 -221 -410 15 -384
481 -566 760 -296 94 90 137 203 131 342 -10 232 -176 400 -422 427 -18 2 -34
2 -35 1z"/>
<path d="M11195 16675 c-218 -38 -375 -219 -377 -434 -1 -89 7 -124 44 -201
105 -222 372 -318 593 -215 166 78 268 246 259 428 -11 216 -175 396 -384 423
-25 3 -49 6 -55 8 -5 2 -42 -3 -80 -9z"/>
<path d="M8686 16669 c-70 -17 -160 -69 -213 -124 -52 -54 -106 -152 -119
-216 -40 -201 60 -411 237 -497 145 -70 314 -62 445 21 127 80 209 234 207
387 -3 194 -136 369 -322 424 -54 16 -180 19 -235 5z"/>
<path d="M4069 16446 c-2 -2 -33 -7 -69 -10 -124 -13 -261 -101 -323 -207
-110 -187 -83 -406 67 -554 137 -135 327 -170 499 -91 169 78 269 238 262 422
-5 162 -86 296 -226 377 -45 26 -144 59 -152 51 -2 -3 -16 0 -30 5 -14 5 -27
8 -28 7z"/>
<path d="M15926 16433 c-98 -17 -165 -52 -236 -124 -70 -71 -77 -79 -101 -135
-27 -65 -34 -106 -33 -204 1 -75 5 -94 36 -161 63 -135 186 -235 318 -257 67
-12 155 -7 235 11 34 8 126 66 167 105 156 148 183 393 63 574 -64 97 -195
180 -305 193 -30 4 -57 8 -60 10 -3 1 -41 -4 -84 -12z"/>
<path d="M7560 16319 c-74 -13 -103 -20 -114 -27 -6 -3 -16 -7 -23 -8 -7 -1
-39 -21 -72 -44 -188 -132 -248 -378 -141 -579 76 -142 216 -230 376 -236 90
-4 139 7 222 47 113 53 218 188 239 304 28 159 -18 307 -129 416 -75 74 -161
116 -255 123 -22 1 -45 5 -50 7 -4 2 -28 1 -53 -3z"/>
<path d="M12372 16313 c-304 -63 -456 -388 -311 -662 52 -97 182 -194 296
-219 57 -13 181 -7 234 12 114 39 205 115 259 218 36 66 39 79 49 168 10 104
-20 222 -77 299 -81 109 -192 175 -317 187 -27 3 -54 6 -60 8 -5 1 -38 -3 -73
-11z"/>
<path d="M5088 15964 c-2 -1 -28 -4 -59 -8 -284 -28 -468 -338 -362 -608 65
-166 220 -276 401 -283 289 -11 511 245 460 529 -23 127 -125 263 -240 319
-48 23 -191 60 -200 51z"/>
<path d="M14979 15966 c-2 -2 -29 -6 -61 -10 -277 -29 -464 -330 -367 -592 71
-190 222 -297 424 -298 177 0 320 87 399 243 87 172 57 374 -78 515 -62 65
-170 121 -251 132 -27 3 -53 8 -56 10 -3 2 -8 2 -10 0z"/>
<path d="M6413 15725 c-169 -39 -311 -184 -343 -352 -11 -61 -6 -170 11 -221
35 -105 109 -197 204 -253 176 -102 397 -74 541 69 87 86 131 190 134 315 5
164 -99 331 -250 405 -95 46 -199 59 -297 37z"/>
<path d="M13453 15724 c-34 -7 -72 -18 -85 -25 -12 -7 -26 -13 -30 -14 -4 0
-13 -6 -19 -12 -7 -7 -16 -13 -21 -13 -13 0 -78 -64 -112 -110 -53 -73 -90
-179 -87 -247 0 -7 1 -25 1 -40 4 -144 112 -313 240 -375 58 -28 157 -54 195
-52 224 11 389 132 448 330 17 59 16 191 -3 249 -46 143 -153 253 -291 299
-63 21 -162 26 -236 10z"/>
<path d="M8990 15650 c-81 -25 -129 -52 -187 -108 -85 -83 -129 -178 -137
-295 -3 -57 0 -88 18 -166 11 -48 70 -138 124 -189 55 -52 122 -90 197 -111
49 -13 210 -7 255 11 181 69 299 233 301 416 1 94 -7 127 -46 207 -58 118
-150 196 -280 236 -60 18 -181 18 -245 -1z"/>
<path d="M10889 15665 c-2 -2 -21 -6 -43 -9 -66 -11 -181 -76 -229 -131 -31
-35 -78 -105 -71 -105 3 0 1 -6 -5 -14 -11 -13 -26 -54 -37 -101 -9 -41 -6
-151 5 -195 45 -165 177 -294 339 -331 227 -50 464 89 529 311 69 234 -58 476
-292 555 -44 15 -187 30 -196 20z"/>
<path d="M7310 15033 c-95 -20 -167 -59 -235 -127 -50 -51 -101 -129 -112
-171 -1 -5 -7 -29 -12 -52 -6 -23 -9 -72 -8 -110 11 -233 191 -417 420 -429
173 -8 323 71 412 217 34 55 63 146 66 204 9 178 -92 351 -246 424 -78 37 -83
39 -152 47 -32 3 -60 7 -63 9 -3 1 -34 -4 -70 -12z"/>
<path d="M12649 15046 c-2 -2 -22 -7 -44 -10 -45 -7 -137 -36 -145 -45 -3 -3
-16 -12 -30 -19 -94 -49 -187 -190 -205 -313 -4 -24 -7 -46 -8 -49 -1 -3 2
-35 6 -72 23 -214 211 -387 425 -394 89 -2 138 8 220 46 154 72 252 235 246
410 -2 75 -4 83 -18 130 -36 122 -152 241 -274 284 -23 8 -68 18 -99 22 -32 3
-61 8 -64 10 -3 2 -8 2 -10 0z"/>
<path d="M5489 14946 c-2 -2 -17 -6 -34 -9 -157 -27 -302 -168 -340 -332 -11
-46 -12 -169 -2 -205 2 -8 7 -28 12 -45 13 -52 74 -142 126 -189 232 -209 609
-120 718 169 16 43 34 133 34 170 -1 62 -27 156 -60 214 -79 138 -212 219
-369 226 -45 3 -83 3 -85 1z"/>
<path d="M14410 14937 c-165 -39 -295 -165 -339 -332 -25 -93 -6 -232 45 -326
34 -61 112 -139 172 -172 315 -170 684 61 667 419 -8 184 -143 354 -320 405
-54 16 -169 19 -225 6z"/>
<path d="M4048 14816 c-1 -2 -28 -6 -60 -10 -223 -23 -394 -229 -383 -461 4
-88 7 -100 47 -183 72 -150 240 -252 408 -247 78 3 116 12 185 45 107 51 184
135 228 247 21 54 27 86 27 153 0 72 -4 99 -26 157 -59 158 -199 272 -354 289
-25 3 -50 7 -57 9 -6 2 -13 2 -15 1z"/>
<path d="M15949 14809 c-153 -21 -281 -114 -344 -254 -48 -103 -57 -179 -36
-284 16 -81 58 -158 121 -221 215 -221 585 -161 720 116 44 88 55 177 37 289
-23 142 -145 282 -290 332 -74 26 -130 32 -208 22z"/>
<path d="M10028 14695 c-2 -2 -25 -5 -53 -8 -73 -9 -114 -23 -175 -60 -105
-62 -184 -172 -209 -287 -13 -58 -6 -195 11 -240 71 -182 222 -296 405 -305
46 -2 77 1 161 19 73 16 196 112 244 191 81 134 87 315 13 452 -48 91 -148
176 -241 207 -48 16 -150 36 -156 31z"/>
<path d="M4630 13968 c-224 -70 -356 -301 -303 -532 36 -156 159 -283 321
-331 41 -13 181 -14 222 -3 82 22 139 54 206 115 49 45 110 144 120 198 2 11
7 41 12 66 5 25 8 54 6 65 -1 10 -5 41 -8 67 -3 26 -12 62 -21 79 -8 17 -15
35 -15 40 0 16 -61 99 -100 137 -33 32 -133 91 -165 98 -5 1 -21 5 -35 8 -62
17 -175 13 -240 -7z"/>
<path d="M15196 13979 c-201 -46 -347 -230 -347 -439 -1 -394 470 -597 756
-325 44 41 137 185 121 185 -3 0 1 19 7 43 15 48 12 212 -3 212 -1 0 -3 8 -5
18 -14 76 -126 218 -195 248 -16 8 -30 17 -30 21 0 5 -9 8 -19 8 -11 0 -22 4
-25 9 -14 22 -191 35 -260 20z"/>
<path d="M5987 13864 c-1 -1 -22 -3 -47 -5 -97 -6 -194 -53 -272 -132 -78 -79
-109 -143 -127 -264 -8 -58 -8 -66 15 -181 7 -36 62 -131 98 -171 286 -311
803 -92 780 330 -12 225 -190 402 -427 424 -9 1 -18 1 -20 -1z"/>
<path d="M14010 13858 c-78 -9 -177 -55 -238 -112 -174 -160 -197 -424 -53
-606 52 -66 73 -84 153 -128 160 -90 398 -47 528 95 146 160 163 379 44 559
-62 93 -159 159 -268 184 -70 16 -93 17 -166 8z"/>
<path d="M3164 13460 c-280 -75 -417 -394 -279 -649 71 -129 217 -224 362
-234 55 -4 161 14 213 36 44 19 115 71 153 111 143 154 153 397 23 574 -104
140 -300 208 -472 162z"/>
<path d="M16720 13473 c-178 -28 -330 -162 -375 -333 -12 -47 -13 -179 -1
-230 12 -50 66 -146 108 -189 45 -47 138 -111 161 -111 7 0 17 -3 21 -7 4 -5
11 -8 14 -9 4 0 27 -4 52 -9 64 -12 156 -8 205 9 118 41 220 125 273 224 38
72 44 96 48 198 7 201 -114 373 -308 439 -47 15 -151 25 -198 18z"/>
<path d="M6998 13454 c-2 -1 -19 -4 -38 -7 -73 -11 -169 -60 -232 -120 -34
-31 -91 -120 -107 -167 -39 -110 -33 -237 16 -341 135 -283 494 -350 718 -134
108 104 154 237 133 386 -23 168 -150 314 -321 369 -32 10 -162 21 -169 14z"/>
<path d="M12935 13448 c-149 -31 -255 -111 -320 -243 -47 -95 -57 -155 -42
-265 21 -156 139 -302 287 -355 215 -77 455 17 557 218 26 52 30 66 43 136 27
158 -50 338 -186 434 -92 65 -236 97 -339 75z"/>
<path d="M4085 12883 c-210 -43 -360 -230 -354 -445 1 -43 9 -100 17 -126 107
-326 513 -423 751 -180 167 170 170 449 7 621 -40 41 -137 107 -159 107 -7 0
-17 3 -21 7 -3 4 -12 8 -19 9 -7 2 -24 5 -39 9 -58 12 -116 11 -183 -2z"/>
<path d="M15821 12889 c-146 -19 -276 -112 -340 -242 -39 -80 -49 -128 -46
-224 8 -233 192 -416 430 -427 205 -9 399 134 451 334 81 310 -177 602 -495
559z"/>
<path d="M8945 12393 c-165 -15 -335 -93 -429 -197 -101 -113 -144 -195 -183
-351 -9 -35 -8 -4187 0 -4192 5 -3 174 -5 375 -5 l367 0 2 28 c3 58 4 132 3
274 -1 80 0 150 1 155 1 6 0 15 -1 20 -1 6 -1 37 0 70 1 33 1 67 1 75 0 8 0
96 0 195 0 99 0 187 0 195 0 18 0 301 0 315 0 6 0 64 -1 130 0 66 -1 152 -1
190 0 39 -1 127 -2 197 -1 71 1 128 5 128 4 0 5 6 2 13 -2 7 -6 57 -7 110 l-2
96 735 -1 c404 -1 755 2 779 6 155 26 298 118 418 269 12 15 83 145 82 150 -1
1 4 22 11 47 20 73 21 81 24 168 2 55 0 82 -8 83 -6 1 -464 2 -1018 3 -553 0
-1009 4 -1012 7 -6 5 -10 230 -6 254 1 6 1 15 0 20 -1 6 -1 37 0 70 1 33 1 65
1 70 0 6 -1 42 -1 80 -1 39 -1 75 0 80 1 6 1 15 0 20 -1 6 -1 37 0 70 1 33 1
67 1 75 -1 26 -2 294 -1 316 l0 21 1313 1 c721 0 1319 1 1327 1 13 1 15 48 15
364 l0 362 -135 2 c-74 2 -684 4 -1355 6 -671 2 -1231 5 -1245 8 -14 2 -38 3
-55 2z"/>
<path d="M4972 12265 c-82 -19 -160 -63 -223 -128 -32 -33 -59 -66 -59 -73 0
-8 -4 -14 -8 -14 -16 0 -54 -131 -58 -202 -11 -203 110 -382 304 -447 112 -38
225 -30 337 24 155 75 244 208 250 377 3 82 -6 138 -32 196 -9 21 -17 40 -17
44 -2 15 -81 111 -110 133 -115 86 -254 119 -384 90z"/>
<path d="M14938 12275 c-2 -2 -16 -6 -33 -8 -120 -22 -216 -86 -292 -197 -45
-67 -65 -134 -68 -233 -6 -160 62 -294 195 -383 239 -162 567 -57 670 213 28
74 34 205 13 277 -46 156 -158 268 -314 316 -33 10 -164 21 -171 15z"/>
<path d="M2758 12005 c-1 -1 -19 -5 -38 -8 -59 -10 -64 -12 -124 -42 -110 -55
-216 -193 -234 -302 -40 -239 79 -445 303 -524 51 -18 169 -27 215 -16 142 34
247 108 310 220 140 249 21 563 -248 651 -46 16 -174 30 -184 21z"/>
<path d="M17197 12004 c-2 -2 -19 -6 -39 -9 -93 -15 -219 -103 -276 -192 -173
-272 -20 -626 298 -689 29 -6 116 -6 160 1 71 9 181 69 238 129 49 51 102 143
117 201 24 99 7 237 -41 325 -54 100 -159 186 -262 216 -49 15 -186 27 -195
18z"/>
<path d="M3723 11695 c-115 -26 -214 -94 -278 -191 -141 -212 -83 -488 132
-628 89 -58 248 -84 341 -57 18 5 34 9 35 8 10 -6 138 69 171 100 61 58 113
148 134 233 2 8 5 46 6 84 8 153 -66 296 -201 389 -89 61 -229 87 -340 62z"/>
<path d="M16136 11693 c-129 -32 -241 -124 -298 -241 -34 -73 -43 -117 -42
-207 1 -68 8 -109 26 -152 59 -137 180 -243 315 -274 208 -48 427 59 514 251
46 101 50 246 10 350 -27 71 -101 163 -169 210 -95 65 -244 92 -356 63z"/>
<path d="M415 10456 c-190 -48 -323 -213 -331 -411 -3 -94 7 -148 43 -222 73
-148 217 -241 381 -248 135 -5 247 38 339 131 43 44 114 156 113 179 0 3 0 6
1 8 9 30 11 57 12 132 1 135 -45 240 -141 327 -112 101 -272 141 -417 104z"/>
<path d="M1470 10456 c-99 -28 -186 -88 -253 -174 -20 -26 -56 -100 -61 -128
-3 -10 -8 -37 -13 -59 -14 -62 -6 -147 20 -224 65 -186 247 -308 442 -296 84
5 112 12 180 45 151 74 246 227 247 400 1 202 -129 375 -327 435 -54 16 -180
17 -235 1z"/>
<path d="M2510 10453 c-192 -68 -307 -219 -316 -414 -15 -344 339 -569 656
-416 88 43 210 193 223 274 1 10 5 23 8 28 12 21 7 169 -8 218 -37 128 -121
226 -243 284 -69 33 -84 36 -175 39 -71 2 -113 -2 -145 -13z"/>
<path d="M3555 10447 c-152 -51 -272 -186 -301 -339 -43 -232 95 -452 329
-522 59 -18 198 -13 257 8 231 85 354 325 286 559 -32 109 -136 231 -235 274
-110 47 -232 55 -336 20z"/>
<path d="M4634 10455 c-80 -22 -134 -54 -199 -120 -94 -93 -135 -200 -130
-334 4 -88 26 -155 75 -229 39 -57 57 -76 120 -123 30 -22 89 -51 113 -55 4
-1 8 -2 10 -4 6 -5 48 -11 102 -15 234 -18 447 159 471 392 4 32 7 60 7 63 5
28 -21 129 -48 186 -53 112 -158 202 -277 238 -60 18 -182 18 -244 1z"/>
<path d="M5647 10440 c-117 -48 -187 -113 -242 -225 -65 -132 -64 -253 1 -391
51 -108 179 -215 288 -241 41 -9 167 -11 209 -2 124 27 250 126 306 241 36 72
40 90 45 175 5 86 -8 146 -49 230 -41 84 -117 158 -201 198 -75 35 -84 37
-194 40 -85 3 -102 0 -163 -25z"/>
<path d="M6720 10448 c-195 -73 -313 -244 -304 -443 4 -90 7 -102 43 -178 106
-221 371 -315 596 -212 42 19 117 76 148 110 42 48 87 140 103 210 3 11 5 52
5 90 1 193 -125 363 -316 426 -75 24 -204 23 -275 -3z"/>
<path d="M13060 10449 c-329 -116 -420 -521 -168 -754 85 -79 168 -114 282
-120 302 -17 534 269 456 561 -43 160 -176 288 -335 324 -68 15 -175 10 -235
-11z"/>
<path d="M14132 10454 c-157 -42 -292 -187 -321 -346 -49 -270 146 -520 415
-533 267 -14 479 192 476 460 -1 102 -55 225 -133 303 -54 53 -141 103 -214
122 -55 14 -160 11 -223 -6z"/>
<path d="M15229 10465 c-3 -2 -14 -6 -25 -8 -124 -24 -239 -117 -299 -242 -51
-108 -58 -177 -31 -313 12 -56 63 -140 120 -198 113 -112 241 -149 416 -121
145 24 292 169 334 329 15 60 15 181 -2 233 -48 154 -181 279 -333 314 -45 11
-172 15 -180 6z"/>
<path d="M16250 10457 c-124 -35 -234 -126 -288 -237 -36 -73 -44 -107 -45
-200 0 -74 6 -111 29 -166 64 -156 216 -267 382 -279 153 -12 294 50 388 170
27 34 66 99 69 115 1 3 7 25 14 50 20 68 17 175 -8 248 -43 126 -118 211 -240
269 -66 32 -85 37 -165 39 -55 2 -109 -1 -136 -9z"/>
<path d="M17271 10445 c-183 -67 -299 -230 -299 -422 0 -244 183 -437 424
-448 138 -7 252 39 349 140 170 176 162 464 -18 631 -32 30 -76 63 -97 74
-106 54 -250 64 -359 25z"/>
<path d="M18330 10448 c-180 -68 -295 -222 -304 -408 -2 -43 10 -131 23 -165
64 -173 217 -290 393 -300 92 -5 159 8 235 46 335 169 326 645 -16 807 -70 34
-84 37 -176 38 -79 2 -111 -2 -155 -18z"/>
<path d="M19397 10450 c-110 -34 -212 -118 -258 -212 -46 -93 -51 -111 -55
-194 -5 -137 34 -241 127 -335 142 -145 339 -177 524 -84 76 38 104 60 151
121 68 88 95 175 90 299 -2 81 -7 99 -39 166 -20 41 -54 92 -74 114 -118 126
-303 175 -466 125z"/>
<path d="M3701 9219 c-34 -10 -83 -30 -109 -45 -89 -51 -177 -163 -210 -269
-18 -60 -15 -188 8 -255 52 -153 161 -257 315 -297 365 -97 678 277 520 621
-52 113 -173 219 -279 242 -12 3 -32 8 -46 11 -54 12 -141 8 -199 -8z"/>
<path d="M16197 9234 c-1 -1 -18 -4 -37 -7 -87 -13 -169 -57 -244 -133 -41
-43 -94 -130 -100 -167 -1 -7 -5 -18 -10 -26 -14 -22 -15 -160 -1 -217 17 -76
60 -152 118 -211 175 -180 457 -182 636 -3 275 274 91 746 -298 764 -34 1 -62
2 -64 0z"/>
<path d="M2730 8929 c-65 -12 -120 -31 -120 -42 0 -6 -3 -8 -6 -4 -9 9 -83
-44 -132 -95 -44 -45 -99 -147 -109 -201 -27 -153 13 -305 107 -405 183 -194
482 -194 662 1 203 220 135 576 -134 705 -91 44 -175 56 -268 41z"/>
<path d="M17228 8935 c-1 -1 -24 -5 -50 -8 -149 -18 -305 -158 -352 -315 -21
-71 -16 -220 9 -282 39 -95 116 -186 198 -235 58 -33 173 -62 239 -59 46 3 64
5 113 18 95 24 211 115 262 205 72 128 78 279 17 419 -10 23 -22 42 -26 42 -5
0 -8 6 -8 13 0 16 -51 71 -105 113 -37 29 -100 61 -135 69 -8 2 -15 4 -15 5 0
6 -141 21 -147 15z"/>
<path d="M4973 8655 c-130 -30 -250 -125 -305 -241 -34 -73 -38 -89 -44 -174
-11 -170 82 -337 234 -418 74 -39 127 -53 204 -53 104 0 167 17 243 66 145 92
215 228 211 404 -2 79 -7 97 -39 165 -45 94 -118 169 -208 213 -98 48 -196 61
-296 38z"/>
<path d="M14930 8663 c-98 -15 -218 -79 -280 -150 -37 -42 -79 -124 -95 -183
-64 -247 95 -501 350 -556 39 -9 155 -5 197 7 119 32 239 128 287 229 14 30
26 58 27 63 1 4 2 8 4 10 21 26 20 203 -2 266 -63 187 -215 305 -404 315 -32
1 -70 1 -84 -1z"/>
<path d="M4055 8031 c-135 -45 -232 -130 -288 -250 -28 -61 -31 -74 -31 -181
-1 -113 0 -116 37 -192 82 -168 227 -257 415 -256 133 2 231 45 320 143 220
240 123 618 -188 731 -65 23 -203 26 -265 5z"/>
<path d="M15806 8043 c-2 -2 -16 -6 -32 -9 -54 -9 -159 -67 -205 -114 -87 -88
-128 -182 -134 -303 -9 -212 124 -393 335 -456 19 -5 71 -10 115 -9 200 2 358
117 424 310 25 74 26 201 1 274 -67 194 -245 318 -448 312 -29 -1 -54 -3 -56
-5z"/>
<path d="M6976 7483 c-2 -2 -16 -6 -31 -9 -35 -6 -119 -38 -136 -52 -147 -116
-210 -227 -212 -370 -1 -90 8 -136 42 -207 87 -186 300 -293 495 -248 165 38
282 141 337 299 36 101 22 277 -26 344 -6 8 -17 27 -25 42 -17 35 -103 117
-153 146 -55 32 -143 55 -219 57 -38 1 -70 0 -72 -2z"/>
<path d="M12950 7482 c-94 -12 -201 -71 -269 -148 -77 -88 -113 -182 -112
-294 0 -41 2 -82 4 -90 27 -114 85 -205 175 -272 219 -166 543 -92 667 153 86
169 54 388 -76 518 -101 100 -252 152 -389 133z"/>
<path d="M3186 7455 c-25 -7 -46 -10 -46 -9 0 2 -28 -11 -62 -29 -74 -38 -156
-115 -189 -178 -46 -88 -52 -112 -52 -219 -1 -86 3 -115 21 -161 69 -174 234
-289 415 -290 91 0 115 5 191 40 112 52 186 128 232 242 55 133 33 318 -49
427 -62 81 -178 158 -267 177 -57 13 -144 13 -194 0z"/>
<path d="M16728 7465 c-2 -2 -16 -5 -33 -8 -153 -26 -300 -156 -344 -307 -18
-60 -23 -172 -10 -229 27 -119 118 -242 216 -292 26 -13 50 -27 53 -30 12 -13
110 -30 175 -30 255 1 450 207 441 464 -3 79 -30 187 -48 187 -4 0 -8 7 -8 15
0 36 -110 142 -187 182 -32 16 -77 33 -98 38 -41 8 -152 15 -157 10z"/>
<path d="M5871 7064 c-30 -8 -75 -26 -101 -40 -53 -29 -139 -110 -161 -151 -8
-15 -16 -30 -19 -33 -20 -19 -60 -173 -55 -210 1 -8 5 -39 9 -69 7 -61 39
-141 75 -191 34 -45 89 -100 101 -100 6 0 10 -4 10 -9 0 -10 99 -55 150 -68
97 -26 235 -6 328 45 26 14 71 50 100 80 80 81 121 175 127 290 2 46 -1 76
-19 160 -9 43 -61 125 -112 177 -108 112 -278 158 -433 119z"/>
<path d="M13963 7064 c-190 -49 -328 -217 -337 -408 -9 -204 107 -379 299
-451 67 -25 197 -29 267 -9 126 37 226 120 283 235 20 38 35 71 35 74 -1 3 1
20 4 38 13 77 13 97 0 166 -29 151 -121 268 -264 334 -80 36 -195 45 -287 21z"/>
<path d="M4748 6955 c-2 -2 -23 -5 -48 -8 -109 -13 -218 -77 -293 -172 -107
-137 -121 -340 -33 -495 57 -101 190 -199 292 -216 53 -9 151 -8 199 1 114 21
241 122 298 238 85 171 60 357 -68 505 -51 60 -169 125 -248 137 -52 8 -96 12
-99 10z"/>
<path d="M15258 6949 c-85 -9 -130 -23 -193 -61 -106 -63 -196 -194 -211 -307
-11 -82 -11 -92 2 -162 37 -201 213 -354 415 -363 58 -3 148 11 194 29 57 23
144 90 193 150 24 29 70 130 77 170 44 247 -82 456 -324 534 -19 6 -36 9 -39
7 -2 -3 -14 -1 -26 3 -11 4 -51 4 -88 0z"/>
<path d="M9920 6236 c-165 -45 -301 -189 -331 -352 -59 -319 227 -593 544
-522 148 33 282 159 327 308 17 56 20 181 6 245 -24 105 -135 240 -238 288
-98 46 -215 59 -308 33z"/>
<path d="M3924 6110 c-131 -46 -224 -125 -275 -233 -35 -76 -39 -92 -44 -174
-20 -352 354 -585 667 -416 57 31 139 111 164 161 10 20 25 45 33 55 8 9 11
17 8 17 -4 0 -2 11 3 26 20 53 26 139 15 214 -23 152 -178 319 -330 356 -63
15 -191 12 -241 -6z"/>
<path d="M15905 6117 c-121 -32 -221 -106 -285 -213 -32 -53 -77 -215 -65
-234 3 -4 7 -32 11 -61 9 -77 63 -184 124 -246 136 -135 342 -170 515 -87 102
49 206 168 231 264 18 71 21 98 18 160 -2 39 -8 88 -15 108 -33 105 -124 219
-212 263 -23 12 -44 22 -47 21 -3 0 -13 4 -23 10 -46 24 -184 32 -252 15z"/>
<path d="M5528 5995 c-2 -2 -25 -5 -53 -9 -61 -7 -178 -63 -226 -109 -95 -90
-140 -189 -144 -317 -6 -207 114 -379 309 -445 182 -60 406 19 513 180 31 48
63 132 68 180 3 24 6 48 7 52 1 4 -1 35 -5 68 -14 111 -53 191 -133 269 -46
45 -120 93 -156 102 -5 1 -9 2 -10 4 -12 9 -163 31 -170 25z"/>
<path d="M14422 5984 c-292 -60 -446 -373 -314 -642 56 -115 184 -213 314
-240 55 -11 156 -7 207 9 55 16 56 17 61 16 10 -2 104 67 141 104 136 136 164
360 68 538 -86 158 -294 252 -477 215z"/>
<path d="M12699 5906 c-2 -2 -31 -6 -64 -9 -86 -8 -106 -13 -172 -47 -281
-144 -325 -529 -86 -739 79 -70 162 -102 276 -106 104 -3 198 24 275 80 44 31
112 100 112 113 0 3 6 13 14 21 8 9 26 49 39 89 67 200 -11 416 -189 525 -53
32 -164 73 -164 61 0 -3 -8 0 -19 5 -10 6 -20 9 -22 7z"/>
<path d="M7265 5883 c-33 -9 -62 -19 -65 -23 -3 -3 -13 -9 -23 -13 -53 -20
-147 -114 -185 -186 -50 -96 -62 -250 -28 -351 66 -192 251 -317 451 -305 71
4 86 8 145 31 215 84 328 324 259 551 -20 63 -72 148 -118 191 -110 104 -281
145 -436 105z"/>
<path d="M9087 5274 c-1 -1 -20 -4 -42 -7 -210 -28 -375 -213 -378 -427 -1
-86 4 -117 29 -180 67 -170 225 -279 407 -283 84 -1 131 8 203 42 75 35 202
157 209 201 1 3 9 22 18 43 51 118 34 288 -43 407 -76 119 -219 199 -363 204
-21 1 -39 1 -40 0z"/>
<path d="M10860 5265 c-30 -6 -66 -17 -80 -25 -14 -7 -27 -13 -30 -13 -3 0
-29 -15 -58 -34 -231 -154 -262 -486 -62 -685 151 -150 378 -176 556 -62 137
87 215 238 208 403 -12 270 -270 470 -534 416z"/>
<path d="M6406 5193 c-128 -32 -237 -118 -296 -233 -101 -197 -34 -451 151
-577 122 -83 286 -98 425 -40 152 65 268 227 275 387 14 299 -270 535 -555
463z"/>
<path d="M13455 5195 c-54 -12 -135 -46 -161 -67 -142 -113 -202 -241 -191
-406 16 -233 211 -415 444 -414 126 1 231 44 322 133 49 49 103 142 116 204
11 48 12 167 3 210 -52 234 -301 394 -533 340z"/>
<path d="M4969 4965 c-293 -80 -424 -419 -261 -675 178 -280 587 -275 763 10
85 138 82 340 -8 472 -91 135 -201 198 -358 203 -51 2 -110 -2 -136 -10z"/>
<path d="M14885 4974 c-148 -38 -255 -123 -315 -250 -110 -230 -6 -507 228
-605 65 -27 90 -32 162 -32 109 -1 138 5 215 43 170 85 274 280 244 458 -14
82 -18 95 -46 151 -40 80 -118 153 -208 196 -67 33 -87 37 -168 40 -51 2 -101
2 -112 -1z"/>
<path d="M7474 4601 c-268 -90 -391 -375 -270 -626 79 -164 239 -258 424 -250
123 5 215 47 303 137 146 149 164 384 45 564 -53 80 -168 163 -247 179 -75 15
-203 13 -255 -4z"/>
<path d="M12310 4597 c-134 -48 -235 -151 -281 -283 -103 -301 131 -606 451
-589 151 8 272 79 356 211 158 246 19 594 -266 669 -74 19 -195 16 -260 -8z"/>
<path d="M3928 4480 c-146 -46 -258 -158 -302 -302 -19 -66 -20 -179 -1 -246
17 -56 50 -126 71 -148 6 -7 21 -25 35 -40 45 -53 128 -102 215 -129 62 -18
198 -11 267 15 121 46 221 145 268 268 24 63 30 205 11 274 -38 139 -179 281
-312 314 -61 15 -196 12 -252 -6z"/>
<path d="M15885 4487 c-158 -42 -282 -171 -321 -335 -15 -64 -12 -171 7 -232
44 -148 182 -274 335 -308 61 -14 193 -6 239 13 87 36 106 47 159 96 98 89
149 210 145 341 -2 70 -16 139 -32 154 -4 4 -7 14 -7 21 0 21 -55 97 -103 144
-23 22 -75 56 -115 76 -63 30 -84 35 -165 39 -57 2 -111 -1 -142 -9z"/>
<path d="M8710 4254 c-53 -10 -137 -49 -188 -87 -213 -161 -236 -478 -49 -669
57 -58 150 -112 212 -123 172 -32 314 8 428 120 195 191 167 526 -58 681 -96
65 -236 97 -345 78z"/>
<path d="M11138 4240 c-78 -24 -144 -64 -198 -121 -43 -45 -97 -137 -105 -179
-2 -9 -7 -33 -12 -51 -19 -71 -1 -193 40 -277 141 -290 542 -336 749 -85 87
104 115 217 94 373 -12 91 -84 201 -185 283 -21 17 -103 53 -146 64 -53 14
-182 10 -237 -7z"/>
<path d="M9920 4124 c-84 -22 -139 -53 -205 -119 -94 -93 -134 -190 -133 -323
1 -181 117 -349 284 -412 239 -89 487 21 585 261 32 78 32 230 1 313 -51 133
-176 248 -307 281 -54 13 -169 13 -225 -1z"/>
<path d="M6285 4068 c-319 -37 -495 -375 -343 -660 40 -75 106 -139 188 -182
175 -92 387 -58 529 85 30 30 92 127 98 154 1 5 8 35 16 65 34 143 -13 302
-123 412 -98 98 -227 143 -365 126z"/>
<path d="M13698 4075 c-2 -2 -21 -5 -43 -8 -90 -13 -171 -53 -241 -121 -290
-283 -94 -769 311 -769 126 0 229 41 317 129 103 102 153 264 122 402 -6 28
-10 52 -8 52 10 0 -70 136 -98 166 -50 55 -140 110 -210 128 -57 15 -144 26
-150 21z"/>
<path d="M7708 3444 c-2 -1 -23 -5 -48 -9 -103 -14 -256 -121 -300 -210 -8
-16 -18 -32 -21 -35 -8 -7 -37 -125 -42 -174 -6 -55 20 -172 51 -230 147 -272
521 -323 722 -98 65 72 64 72 95 147 42 105 39 243 -8 345 -70 153 -222 256
-392 264 -30 2 -56 2 -57 0z"/>
<path d="M12209 3430 c-75 -18 -116 -38 -174 -82 -67 -51 -139 -156 -150 -218
-3 -14 -9 -38 -13 -55 -9 -30 -8 -128 1 -175 25 -126 127 -253 250 -311 128
-59 250 -59 390 3 26 12 47 25 47 30 0 4 6 8 14 8 22 0 109 102 138 160 36 74
47 115 50 180 6 165 -71 316 -204 401 -105 68 -229 89 -349 59z"/>
<path d="M9217 3123 c-2 -1 -19 -5 -38 -7 -165 -22 -321 -170 -359 -342 -35
-156 9 -305 125 -421 35 -34 70 -63 79 -63 9 0 16 -4 16 -10 0 -5 4 -10 9 -10
5 0 22 -5 38 -12 62 -25 100 -31 183 -30 156 1 301 88 379 226 69 120 76 275
19 406 -23 54 -92 139 -134 168 -22 14 -41 28 -44 32 -10 12 -108 50 -146 55
-48 8 -123 12 -127 8z"/>
<path d="M10767 3124 c-1 -1 -18 -4 -37 -7 -180 -27 -328 -167 -368 -347 -8
-36 -7 -159 2 -200 23 -110 128 -243 232 -294 184 -90 386 -58 525 84 56 58
77 92 112 185 23 61 20 201 -5 272 -50 138 -120 209 -278 283 -28 13 -174 32
-183 24z"/>
<path d="M9930 2015 c-30 -9 -59 -17 -65 -18 -70 -20 -183 -119 -228 -201 -85
-154 -69 -356 39 -493 86 -109 196 -165 336 -169 140 -5 244 35 336 129 52 55
90 115 112 182 18 53 21 197 5 249 -46 151 -167 276 -310 318 -57 17 -168 18
-225 3z"/>
</g>
</svg>
