<?xml version="1.0" encoding="utf-8"?>
<!-- Generator: Adobe Illustrator 16.0.0, SVG Export Plug-In . SVG Version: 6.00 Build 0)  -->
<!DOCTYPE svg PUBLIC "-//W3C//DTD SVG 1.1//EN" "http://www.w3.org/Graphics/SVG/1.1/DTD/svg11.dtd">
<svg version="1.1" id="Livello_1" xmlns="http://www.w3.org/2000/svg" xmlns:xlink="http://www.w3.org/1999/xlink" x="0px" y="0px"
	 width="246.61px" height="110.55px" viewBox="0 0 246.61 110.55" enable-background="new 0 0 246.61 110.55" xml:space="preserve">
<g id="XMLID_1253_">
	<g id="XMLID_1254_">
		<path id="XMLID_1255_" fill="#FFFFFF" d="M146.155,66.592v21.729h13.195v1.71h-15.002V66.592H146.155z"/>
		<path id="XMLID_1257_" fill="#FFFFFF" d="M181.418,90.031l-2.576-5.759h-13.996l-2.546,5.759h-1.941l10.513-23.439h1.976
			l10.516,23.439H181.418z M178.141,82.597l-6.301-14.264l-6.292,14.264H178.141z"/>
		<path id="XMLID_1260_" fill="#FFFFFF" d="M203.353,72.986c0,2.412-1.472,4.285-3.815,5.021c2.949,0.808,4.621,3.185,4.621,5.896
			c0,4.823-4.486,6.129-8.504,6.129c-3.416,0-6.196,0-9.609,0V66.592c3.377,0,6.193,0,9.609,0
			C199.606,66.592,203.353,68.533,203.353,72.986z M187.85,77.207h8.036c2.814,0,5.761-0.87,5.761-4.221
			c0-3.416-3.076-4.854-5.992-4.854h-7.805V77.207z M187.85,88.289h7.805c2.945,0,6.732-0.704,6.732-4.419
			c-0.038-3.651-3.351-4.955-6.501-4.955c-2.812,0-5.223,0-8.036,0V88.289z"/>
		<path id="XMLID_1264_" fill="#FFFFFF" d="M224.387,71.113c-1.706-2.747-4.453-3.149-7.102-3.182c-2.743,0-7.098,1.003-7.098,4.754
			c0,2.983,3.216,3.684,7.168,4.419c4.52,0.872,9.208,1.678,9.208,6.731c-0.031,5.293-5.358,6.564-9.278,6.564
			c-3.646,0-7.8-1.508-9.609-5.091l1.611-0.804c1.436,2.849,5.119,4.254,7.998,4.254c2.884,0,7.471-0.806,7.471-4.958
			c0.032-3.515-3.848-4.285-7.705-5.02c-4.285-0.839-8.668-1.708-8.668-6.03c-0.101-4.956,5.054-6.494,8.902-6.494
			c3.351,0,6.264,0.533,8.574,3.983L224.387,71.113z"/>
	</g>
	<path id="XMLID_1266_" fill="#FFFFFF" d="M78.132,43.354c0.218-9.439,5.242-14.133,15.013-14.133h1.049v6.324l0,0h-2.688
		c-4.084,0-7.052,3.446-7.052,7.699v15.16h0.004h-6.326V43.354z"/>
	<path id="XMLID_1268_" fill="#FFFFFF" d="M178.684,29.351c-0.82,0-1.637,0.171-2.387,0.503c-0.727,0.322-1.386,0.793-1.928,1.374
		c-0.544,0.583-0.968,1.276-1.238,2.026c-0.139,0.385-0.236,0.784-0.292,1.189c-0.073,0.524-0.06,1.059-0.058,1.588
		c0.003,0.655,0.003,1.312,0.003,1.967c0,0.706,0,1.411,0,2.117c0,0.743,0,1.486,0,2.229c0,0.668,0,1.335,0,2.003
		c0,0.479,0,0.957,0,1.436c0,0.177,0,0.353,0.001,0.529c-0.056,3.138-2.611,5.662-5.764,5.662c-3.15,0-5.707-2.524-5.763-5.662
		V29.425h-6.785c0,0,0,16.887,0.007,16.887c0.248,6.724,5.757,12.102,12.541,12.102c6.783,0,12.294-5.378,12.55-12.102v-6.466
		V29.425v-0.074H178.684L178.684,29.351z"/>
	<g id="XMLID_1269_">
		<path id="XMLID_1270_" fill="#FFFFFF" d="M145.371,20.938c-0.351,0-0.69,0.038-1.022,0.104v5.839h6.238
			c0.03-0.224,0.047-0.449,0.047-0.683C150.634,23.297,148.28,20.938,145.371,20.938z"/>
		<path id="XMLID_1271_" fill="#FFFFFF" d="M150.665,34.651c-0.01-0.45-0.046-0.899-0.155-1.338
			c-0.022-0.093-0.049-0.184-0.077-0.274c-0.183-0.571-0.462-1.109-0.823-1.586c-0.724-0.955-1.768-1.65-2.93-1.942
			c-0.424-0.106-0.86-0.16-1.297-0.16c-0.358,0-0.702,0.036-1.034,0.099v5.353v0.535v23.067h6.308c0-0.197,0-0.393,0-0.589
			c0-0.536,0-1.071,0-1.606c0-0.796,0-1.591,0-2.386c0-0.977,0-1.952,0-2.929c0-1.077,0-2.154,0-3.231c0-1.1,0-2.198,0-3.298
			c0-1.042,0-2.084,0-3.126c0-0.905,0-1.811,0-2.716c0-0.889,0.002-1.777,0.004-2.666C150.662,35.458,150.674,35.054,150.665,34.651
			z"/>
	</g>
	<path id="XMLID_1272_" fill="#FFFFFF" d="M26.134,33.509v-2.274v-4.629h4.587h16.788v-5.889c-0.516,0-1.031,0-1.547,0
		c-1.29,0-2.58,0-3.87,0c-1.68,0-3.359,0-5.038,0c-3.124,0-6.249-0.062-9.375-0.021c-1.144,0.016-2.373-0.084-3.49,0.094
		c-1.812,0.289-3.264,1.757-3.834,3.498c-0.296,0.901-0.275,1.91-0.273,2.852c0.002,2.094,0.01,4.183,0.01,6.276
		c0,1.909,0,3.818,0,5.728c0,2.045,0,4.09,0,6.136c0,1.923,0,3.846,0,5.769c0,1.543,0,3.086,0,4.629c0,0.906,0,1.812,0,2.717
		c0,0.133,0,0.266,0,0.399h6.043V44.621l0,0v-0.908l0,0v-2.559c0.173,0,0.346,0.001,0.519,0.001
		c0.451,0.001,0.901,0.002,1.352,0.002c0.626,0.001,1.251,0.003,1.877,0.004c0.698,0.001,1.396,0.002,2.095,0.003
		c0.571,0.001,1.142-0.013,1.713-0.004c0.599,0.01,1.208-0.013,1.807-0.003c0.264,0.004,0.535-0.005,0.799,0
		c1.09,0.017,2.148,0.047,3.161-0.403c0.179-0.079,0.353-0.169,0.521-0.268c0.704-0.412,1.312-0.986,1.762-1.667
		c0.46-0.695,0.752-1.497,0.847-2.326c0.022-0.202,0.034-0.406,0.034-0.61c0-0.181-0.008-0.354-0.028-0.53H31.968h-5.834v-0.938
		V33.509L26.134,33.509z"/>
	<path id="XMLID_1273_" fill="#FFFFFF" d="M141.25,41.486c-0.248-6.725-5.758-12.102-12.543-12.102
		c-3.622,0-6.873,1.538-9.167,3.991c-2.293-2.453-5.548-3.991-9.168-3.991c-6.784,0-12.295,5.377-12.544,12.102h-0.009v16.917h6.786
		V41.489c0.059-3.137,2.611-5.665,5.767-5.665c3.179,0,5.756,2.573,5.766,5.75h0.008v16.83h6.786v-16.83h0.004
		c0.016-3.177,2.592-5.75,5.771-5.75c3.154,0,5.707,2.522,5.766,5.662h-0.003v9.939v0.859c0.224,3.424,3.063,6.131,6.543,6.131
		c0.079,0,0.161-0.007,0.243-0.012V46.58v-5.094H141.25L141.25,41.486z"/>
	<path id="XMLID_1274_" fill="#FFFFFF" d="M226.496,41.486c-0.248-6.725-5.758-12.102-12.543-12.102
		c-3.622,0-6.874,1.538-9.166,3.991c-2.294-2.453-5.549-3.991-9.172-3.991c-6.782,0-12.292,5.377-12.541,12.102h-0.008v16.917h6.785
		V41.489c0.059-3.137,2.611-5.665,5.764-5.665c3.182,0,5.759,2.573,5.768,5.75h0.01v16.83h6.786v-16.83h0.004
		c0.015-3.177,2.591-5.75,5.771-5.75c3.153,0,5.707,2.522,5.766,5.662h-0.002v9.939v0.859c0.223,3.424,3.063,6.131,6.542,6.131
		c0.078,0,0.161-0.007,0.244-0.012V46.58v-5.094H226.496L226.496,41.486z"/>
	<path id="XMLID_1275_" fill="#FFFFFF" d="M70.998,46.161c1.284,0,2.49-0.716,3.108-1.841c0.26-0.471,0.401-0.996,0.434-1.532
		c0.012-0.214,0.007-0.429,0.002-0.643c-0.02-0.771-0.063-1.527-0.21-2.285c-0.117-0.606-0.278-1.205-0.481-1.789
		c-0.398-1.146-0.959-2.234-1.657-3.226c-0.692-0.981-1.52-1.868-2.452-2.626c-0.938-0.762-1.979-1.393-3.09-1.869
		c-1.139-0.488-2.346-0.811-3.575-0.958c-0.521-0.063-1.045-0.094-1.569-0.094c-6.798,0-12.381,5.195-13.005,11.831l-0.044,2.294
		v2.737c0.098,1.553,0.441,3.039,1.023,4.405c2.023,4.713,6.707,8.011,12.165,8.011c5.453,0,10.137-3.298,12.161-8.011h-7.123
		c-1.087,1.618-2.942,2.684-5.038,2.684c-2.104,0-3.955-1.065-5.039-2.684c-0.654-0.973-1.03-2.137-1.03-3.396
		c0-0.345,0.034-0.68,0.034-1.01H70.998z M61.511,34.997c3.188,0,5.771,2.586,5.771,5.771c0,0.217-0.015,0.427-0.042,0.638H55.614
		c-0.022-0.211-0.037-0.421-0.037-0.638C55.577,37.582,58.322,34.997,61.511,34.997z"/>
</g>
</svg>
