<?xml version="1.0" encoding="utf-8"?>
<!-- Generator: Adobe Illustrator 16.0.0, SVG Export Plug-In . SVG Version: 6.00 Build 0)  -->
<!DOCTYPE svg PUBLIC "-//W3C//DTD SVG 1.1//EN" "http://www.w3.org/Graphics/SVG/1.1/DTD/svg11.dtd">
<svg version="1.1" id="Livello_1" xmlns="http://www.w3.org/2000/svg" xmlns:xlink="http://www.w3.org/1999/xlink" x="0px" y="0px"
	 width="246.61px" height="110.55px" viewBox="0 0 246.61 110.55" enable-background="new 0 0 246.61 110.55" xml:space="preserve">
<g id="XMLID_1_">
	<g id="XMLID_11_">
		<path id="XMLID_15_" fill="#EA2C4C" d="M146.239,66.623v21.743h13.2v1.712h-15.01V66.623H146.239z"/>
		<path id="XMLID_14_" fill="#EA2C4C" d="M181.522,90.078l-2.576-5.762h-14.008l-2.545,5.762h-1.943l10.52-23.455h1.977
			l10.522,23.455H181.522z M178.245,82.639l-6.306-14.273l-6.296,14.273H178.245z"/>
		<path id="XMLID_13_" fill="#EA2C4C" d="M203.474,73.021c0,2.416-1.474,4.289-3.819,5.027c2.951,0.807,4.625,3.186,4.625,5.897
			c0,4.829-4.488,6.133-8.508,6.133c-3.42,0-6.203,0-9.617,0V66.623c3.38,0,6.197,0,9.617,0
			C199.726,66.623,203.474,68.566,203.474,73.021z M187.962,77.245h8.041c2.814,0,5.762-0.869,5.762-4.225
			c0-3.416-3.077-4.856-5.993-4.856h-7.81V77.245z M187.962,88.336h7.81c2.947,0,6.734-0.705,6.734-4.421
			c-0.037-3.655-3.352-4.959-6.503-4.959c-2.814,0-5.227,0-8.041,0V88.336z"/>
		<path id="XMLID_12_" fill="#EA2C4C" d="M224.521,71.148c-1.705-2.749-4.454-3.15-7.105-3.185c-2.743,0-7.102,1.004-7.102,4.758
			c0,2.983,3.219,3.686,7.173,4.421c4.523,0.875,9.213,1.681,9.213,6.738c-0.031,5.295-5.36,6.567-9.284,6.567
			c-3.648,0-7.804-1.51-9.617-5.094l1.613-0.804c1.437,2.849,5.122,4.258,8.004,4.258c2.886,0,7.477-0.807,7.477-4.962
			c0.031-3.519-3.853-4.288-7.711-5.023c-4.288-0.84-8.675-1.708-8.675-6.037c-0.099-4.958,5.058-6.497,8.909-6.497
			c3.353,0,6.269,0.534,8.579,3.985L224.521,71.148z"/>
	</g>
	<path id="XMLID_10_" fill="#EA2C4C" d="M78.17,43.368c0.219-9.446,5.246-14.143,15.023-14.143h1.05v6.33l0,0h-2.691
		c-4.085,0-7.056,3.448-7.056,7.705v15.17H84.5h-6.33V43.368z"/>
	<path id="XMLID_9_" fill="#EA2C4C" d="M178.788,29.357c-0.821,0-1.64,0.17-2.388,0.502c-0.729,0.323-1.387,0.792-1.931,1.375
		c-0.544,0.584-0.967,1.277-1.239,2.028c-0.139,0.384-0.237,0.785-0.293,1.189c-0.071,0.525-0.059,1.06-0.056,1.59
		c0.003,0.656,0.003,1.311,0.003,1.969c0,0.705,0,1.412,0,2.116c0,0.745,0,1.488,0,2.23c0,0.669,0,1.338,0,2.005
		c0,0.479,0,0.958,0,1.437c0,0.176,0,0.353,0,0.528c-0.056,3.141-2.613,5.666-5.768,5.666c-3.151,0-5.709-2.525-5.765-5.666V29.43
		h-6.791c0,0,0,16.897,0.007,16.897c0.25,6.729,5.762,12.112,12.549,12.112s12.302-5.383,12.558-12.112v-6.469V29.43v-0.073H178.788
		L178.788,29.357z"/>
	<g id="XMLID_6_">
		<path id="XMLID_8_" fill="#EA2C4C" d="M145.454,20.939c-0.352,0-0.691,0.037-1.024,0.104v5.844h6.242
			c0.031-0.224,0.047-0.451,0.047-0.683C150.719,23.299,148.364,20.939,145.454,20.939z"/>
		<path id="XMLID_7_" fill="#EA2C4C" d="M150.75,34.662c-0.01-0.451-0.047-0.902-0.155-1.341c-0.021-0.093-0.049-0.184-0.077-0.275
			c-0.182-0.572-0.463-1.109-0.824-1.586c-0.724-0.956-1.768-1.651-2.933-1.943c-0.423-0.106-0.858-0.159-1.297-0.159
			c-0.357,0-0.701,0.034-1.034,0.098v5.355v0.538V58.43h6.311c0-0.197,0-0.393,0-0.59c0-0.534,0-1.072,0-1.606
			c0-0.797,0-1.593,0-2.39c0-0.976,0-1.953,0-2.929c0-1.078,0-2.156,0-3.234c0-1.1,0-2.2,0-3.3c0-1.042,0-2.085,0-3.128
			c0-0.907,0-1.812,0-2.717c0-0.89,0.003-1.78,0.006-2.669C150.746,35.468,150.759,35.063,150.75,34.662z"/>
	</g>
	<path id="XMLID_5_" fill="#EA2C4C" d="M26.137,33.516v-2.273v-4.633h4.591h16.798v-5.893c-0.516,0-1.032,0-1.547,0
		c-1.292,0-2.583,0-3.873,0c-1.681,0-3.361,0-5.042,0c-3.125,0-6.252-0.062-9.38-0.022c-1.145,0.016-2.376-0.083-3.494,0.094
		c-1.813,0.289-3.265,1.758-3.836,3.5c-0.296,0.902-0.276,1.911-0.274,2.853c0.002,2.094,0.009,4.186,0.009,6.281
		c0,1.909,0,3.821,0,5.73c0,2.048,0,4.093,0,6.14c0,1.925,0,3.848,0,5.772c0,1.545,0,3.089,0,4.634c0,0.907,0,1.813,0,2.718
		c0,0.133,0,0.269,0,0.401h6.047V44.638l0,0v-0.909l0,0v-2.561c0.174,0,0.347,0,0.52,0c0.451,0.001,0.901,0.003,1.353,0.003
		c0.625,0,1.252,0.001,1.877,0.003c0.699,0,1.398,0.003,2.097,0.003c0.572,0.001,1.143-0.012,1.713-0.003
		c0.599,0.009,1.209-0.012,1.809-0.003c0.263,0.003,0.535-0.006,0.799,0c1.092,0.015,2.15,0.046,3.163-0.405
		c0.178-0.079,0.354-0.168,0.521-0.267c0.706-0.413,1.313-0.987,1.764-1.668c0.46-0.697,0.752-1.497,0.847-2.328
		c0.023-0.203,0.034-0.406,0.034-0.61c0-0.181-0.006-0.355-0.027-0.53h-10.63h-5.838v-0.939V33.516L26.137,33.516z"/>
	<path id="XMLID_4_" fill="#EA2C4C" d="M141.331,41.499c-0.25-6.727-5.762-12.107-12.552-12.107c-3.624,0-6.878,1.539-9.172,3.993
		c-2.295-2.454-5.553-3.993-9.175-3.993c-6.789,0-12.302,5.38-12.552,12.107h-0.009V58.43h6.791V41.503
		c0.059-3.141,2.613-5.669,5.771-5.669c3.18,0,5.76,2.575,5.769,5.754h0.008V58.43h6.79V41.588h0.006
		c0.012-3.179,2.592-5.754,5.774-5.754c3.153,0,5.712,2.524,5.768,5.664l0,0v9.948v0.859c0.223,3.426,3.064,6.137,6.546,6.137
		c0.077,0,0.161-0.006,0.244-0.013V46.598v-5.099H141.331L141.331,41.499z"/>
	<path id="XMLID_3_" fill="#EA2C4C" d="M226.634,41.499c-0.25-6.727-5.765-12.107-12.552-12.107c-3.627,0-6.88,1.539-9.172,3.993
		c-2.296-2.454-5.555-3.993-9.179-3.993c-6.787,0-12.303,5.38-12.55,12.107h-0.01V58.43h6.792V41.503
		c0.059-3.141,2.613-5.669,5.768-5.669c3.182,0,5.762,2.575,5.771,5.754h0.01V58.43h6.79V41.588h0.003
		c0.016-3.179,2.596-5.754,5.777-5.754c3.154,0,5.709,2.524,5.768,5.664h-0.003v9.948v0.859c0.226,3.426,3.067,6.137,6.547,6.137
		c0.08,0,0.163-0.006,0.247-0.013V46.598v-5.099H226.634L226.634,41.499z"/>
	<path id="XMLID_2_" fill="#EA2C4C" d="M71.032,46.179c1.284,0,2.492-0.717,3.111-1.843c0.258-0.471,0.401-0.997,0.434-1.534
		c0.012-0.213,0.006-0.429,0-0.643c-0.019-0.772-0.062-1.529-0.209-2.286c-0.119-0.608-0.279-1.206-0.483-1.792
		c-0.398-1.146-0.958-2.235-1.657-3.227c-0.692-0.982-1.52-1.869-2.453-2.627c-0.938-0.763-1.981-1.393-3.092-1.871
		c-1.139-0.488-2.346-0.811-3.578-0.959c-0.521-0.062-1.045-0.092-1.571-0.092c-6.803,0-12.388,5.198-13.012,11.838l-0.045,2.295
		v2.74c0.099,1.552,0.443,3.04,1.024,4.407c2.025,4.716,6.712,8.017,12.174,8.017c5.458,0,10.144-3.301,12.167-8.017h-7.127
		c-1.087,1.621-2.944,2.686-5.042,2.686c-2.104,0-3.956-1.065-5.042-2.686c-0.655-0.973-1.03-2.138-1.03-3.396
		c0-0.346,0.034-0.681,0.034-1.01H71.032z M61.537,35.006c3.191,0,5.777,2.587,5.777,5.775c0,0.216-0.016,0.427-0.043,0.637H55.639
		c-0.023-0.21-0.039-0.42-0.039-0.637C55.601,37.594,58.349,35.006,61.537,35.006z"/>
</g>
</svg>
