<?xml version="1.0" encoding="utf-8"?>
<!-- Generator: Adobe Illustrator 16.0.0, SVG Export Plug-In . SVG Version: 6.00 Build 0)  -->
<!DOCTYPE svg PUBLIC "-//W3C//DTD SVG 1.1//EN" "http://www.w3.org/Graphics/SVG/1.1/DTD/svg11.dtd">
<svg version="1.1" id="Livello_1" xmlns="http://www.w3.org/2000/svg" xmlns:xlink="http://www.w3.org/1999/xlink" x="0px" y="0px"
	 width="663.31px" height="147.4px" viewBox="0 0 663.31 147.4" enable-background="new 0 0 663.31 147.4" xml:space="preserve">
<g id="XMLID_1149_">
	<g id="XMLID_1253_">
		<g id="XMLID_1254_">
			<path id="XMLID_1255_" fill="#EA2C4C" d="M444.55,56.74v48.386h29.382v3.808h-33.403V56.74H444.55z"/>
			<path id="XMLID_1257_" fill="#EA2C4C" d="M523.072,108.935l-5.735-12.823h-31.165l-5.671,12.823h-4.324l23.41-52.193h4.397
				l23.416,52.193H523.072z M515.773,92.379l-14.03-31.762l-14.008,31.762H515.773z"/>
			<path id="XMLID_1260_" fill="#EA2C4C" d="M571.915,70.979c0,5.371-3.278,9.541-8.495,11.181
				c6.564,1.798,10.288,7.09,10.288,13.126c0,10.74-9.988,13.648-18.934,13.648c-7.607,0-13.8,0-21.398,0V56.74
				c7.519,0,13.791,0,21.398,0C563.575,56.74,571.915,61.063,571.915,70.979z M537.394,80.377h17.896
				c6.266,0,12.827-1.938,12.827-9.396c0-7.608-6.85-10.811-13.342-10.811h-17.381V80.377L537.394,80.377z M537.394,105.054h17.381
				c6.559,0,14.989-1.565,14.989-9.84c-0.085-8.13-7.461-11.033-14.476-11.033c-6.259,0-11.632,0-17.896,0L537.394,105.054
				L537.394,105.054z"/>
			<path id="XMLID_1264_" fill="#EA2C4C" d="M618.753,66.81c-3.799-6.116-9.917-7.015-15.811-7.087
				c-6.109,0-15.81,2.233-15.81,10.588c0,6.645,7.16,8.2,15.961,9.841c10.065,1.94,20.506,3.734,20.506,14.986
				c-0.07,11.786-11.932,14.617-20.657,14.617c-8.121,0-17.372-3.356-21.4-11.335l3.587-1.79c3.197,6.344,11.397,9.476,17.813,9.476
				c6.418,0,16.632-1.795,16.632-11.043c0.072-7.827-8.567-9.54-17.157-11.177c-9.545-1.87-19.301-3.804-19.301-13.429
				c-0.227-11.037,11.252-14.462,19.826-14.462c7.457,0,13.944,1.188,19.088,8.872L618.753,66.81z"/>
		</g>
		<path id="XMLID_1266_" fill="#EA2C4C" d="M145.395,81.536c0.4-17.255,9.582-25.833,27.44-25.833h1.919v11.561l0,0h-4.914
			c-7.464,0-12.888,6.301-12.888,14.073v27.708h0.007h-11.565L145.395,81.536L145.395,81.536z"/>
		<path id="XMLID_1268_" fill="#EA2C4C" d="M329.185,55.942c-1.499,0-2.992,0.312-4.362,0.919c-1.328,0.589-2.532,1.447-3.523,2.512
			c-0.993,1.064-1.77,2.331-2.262,3.702c-0.255,0.704-0.433,1.434-0.536,2.174c-0.133,0.96-0.107,1.936-0.105,2.903
			c0.007,1.196,0.007,2.396,0.007,3.595c0,1.291,0,2.58,0,3.869c0,1.357,0,2.717,0,4.075c0,1.22,0,2.438,0,3.659
			c0,0.874,0,1.75,0,2.623c0,0.323,0,0.646,0,0.97c-0.101,5.732-4.774,10.349-10.534,10.349c-5.76,0-10.431-4.615-10.531-10.349
			V56.076h-12.405c0,0,0,30.867,0.012,30.867c0.456,12.289,10.522,22.117,22.924,22.117c12.4,0,22.471-9.828,22.938-22.117V75.125
			V56.076v-0.134H329.185L329.185,55.942z"/>
		<g id="XMLID_1269_">
			<path id="XMLID_1270_" fill="#EA2C4C" d="M268.295,40.566c-0.641,0-1.26,0.067-1.868,0.189v10.673h11.401
				c0.056-0.409,0.086-0.82,0.086-1.247C277.916,44.876,273.614,40.566,268.295,40.566z"/>
			<path id="XMLID_1271_" fill="#EA2C4C" d="M277.972,65.631c-0.017-0.824-0.084-1.646-0.283-2.447
				c-0.042-0.168-0.088-0.335-0.142-0.501c-0.333-1.044-0.844-2.025-1.503-2.897c-1.323-1.745-3.231-3.017-5.356-3.551
				c-0.773-0.194-1.571-0.291-2.37-0.291c-0.655,0-1.281,0.064-1.889,0.18v9.783v0.979v42.161h11.527c0-0.357,0-0.718,0-1.076
				c0-0.979,0-1.957,0-2.937c0-1.452,0-2.906,0-4.361c0-1.783,0-3.565,0-5.351c0-1.971,0-3.938,0-5.908c0-2.009,0-4.02,0-6.027
				c0-1.903,0-3.809,0-5.713c0-1.655,0-3.31,0-4.965c0-1.624,0.005-3.248,0.009-4.871C277.967,67.104,277.988,66.366,277.972,65.631
				z"/>
		</g>
		<path id="XMLID_1272_" fill="#EA2C4C" d="M50.353,63.541v-4.156v-8.461h8.385h30.687V40.159c-0.942,0-1.887,0-2.829,0
			c-2.359,0-4.715,0-7.074,0c-3.069,0-6.139,0-9.208,0c-5.709,0-11.422-0.11-17.135-0.037c-2.09,0.027-4.338-0.155-6.381,0.171
			c-3.31,0.527-5.964,3.212-7.007,6.394c-0.54,1.648-0.502,3.49-0.5,5.213c0.004,3.825,0.018,7.645,0.018,11.471
			c0,3.489,0,6.979,0,10.471c0,3.736,0,7.477,0,11.213c0,3.518,0,7.031,0,10.546c0,2.82,0,5.642,0,8.463c0,1.652,0,3.309,0,4.964
			c0,0.242,0,0.485,0,0.729h11.046V83.854l0,0v-1.658l0,0v-4.677c0.316,0,0.632,0,0.949,0.001c0.823,0.002,1.646,0.003,2.47,0.005
			c1.144,0.002,2.287,0.004,3.43,0.005c1.276,0.003,2.554,0.005,3.83,0.007c1.043,0.002,2.085-0.023,3.13-0.008
			c1.094,0.018,2.207-0.022,3.301-0.004c0.481,0.007,0.979-0.01,1.461,0c1.992,0.028,3.927,0.085,5.779-0.739
			c0.325-0.145,0.643-0.309,0.952-0.488c1.288-0.752,2.396-1.802,3.221-3.047c0.839-1.271,1.375-2.736,1.545-4.251
			c0.042-0.371,0.063-0.743,0.063-1.116c0-0.331-0.014-0.646-0.049-0.969H61.016H50.353v-1.715V63.541L50.353,63.541z"/>
		<path id="XMLID_1273_" fill="#EA2C4C" d="M260.764,78.122c-0.454-12.29-10.525-22.118-22.927-22.118
			c-6.621,0-12.563,2.813-16.755,7.296c-4.189-4.482-10.141-7.296-16.757-7.296c-12.399,0-22.473,9.828-22.928,22.118h-0.017v30.923
			h12.407V78.129c0.104-5.732,4.771-10.354,10.538-10.354c5.81,0,10.522,4.704,10.539,10.509h0.014v30.763h12.404V78.283h0.007
			c0.028-5.805,4.736-10.509,10.548-10.509c5.765,0,10.433,4.61,10.539,10.349h-0.005v18.169v1.57
			c0.409,6.258,5.599,11.206,11.96,11.206c0.142,0,0.294-0.014,0.444-0.022v-21.61v-9.313L260.764,78.122L260.764,78.122z"/>
		<path id="XMLID_1274_" fill="#EA2C4C" d="M416.578,78.122c-0.453-12.29-10.524-22.118-22.927-22.118
			c-6.62,0-12.564,2.813-16.756,7.296c-4.19-4.482-10.142-7.296-16.761-7.296c-12.399,0-22.47,9.828-22.925,22.118h-0.014v30.923
			h12.401V78.129c0.104-5.732,4.771-10.354,10.536-10.354c5.813,0,10.523,4.704,10.54,10.509h0.019v30.763h12.402V78.283h0.007
			c0.028-5.805,4.736-10.509,10.549-10.509c5.766,0,10.431,4.61,10.539,10.349h-0.006v18.169v1.57
			c0.407,6.258,5.601,11.206,11.957,11.206c0.146,0,0.299-0.014,0.447-0.022v-21.61v-9.313L416.578,78.122L416.578,78.122z"/>
		<path id="XMLID_1275_" fill="#EA2C4C" d="M132.356,86.668c2.347,0,4.552-1.308,5.684-3.364c0.472-0.86,0.731-1.821,0.79-2.802
			c0.024-0.392,0.015-0.783,0.002-1.175c-0.032-1.409-0.112-2.791-0.381-4.176c-0.215-1.109-0.51-2.202-0.881-3.271
			c-0.729-2.094-1.751-4.083-3.03-5.896c-1.265-1.794-2.777-3.412-4.479-4.799c-1.713-1.394-3.622-2.548-5.65-3.417
			c-2.081-0.893-4.288-1.482-6.534-1.752c-0.952-0.112-1.91-0.17-2.869-0.17c-12.425,0-22.629,9.494-23.77,21.624l-0.082,4.193
			v5.003c0.18,2.838,0.809,5.555,1.87,8.052c3.701,8.614,12.262,14.644,22.237,14.644c9.968,0,18.529-6.028,22.228-14.644h-13.02
			c-1.987,2.958-5.376,4.905-9.208,4.905c-3.843,0-7.229-1.947-9.211-4.905c-1.195-1.775-1.882-3.903-1.882-6.206
			c0-0.631,0.061-1.243,0.061-1.846L132.356,86.668L132.356,86.668z M115.015,66.262c5.826,0,10.548,4.727,10.548,10.548
			c0,0.396-0.028,0.78-0.077,1.165h-21.248c-0.04-0.385-0.068-0.769-0.068-1.165C104.17,70.987,109.188,66.262,115.015,66.262z"/>
	</g>
</g>
</svg>
