<?xml version="1.0" encoding="utf-8"?>
<!-- Generator: Adobe Illustrator 16.0.0, SVG Export Plug-In . SVG Version: 6.00 Build 0)  -->
<!DOCTYPE svg PUBLIC "-//W3C//DTD SVG 1.1//EN" "http://www.w3.org/Graphics/SVG/1.1/DTD/svg11.dtd">
<svg version="1.1" id="Layer_1" xmlns="http://www.w3.org/2000/svg" xmlns:xlink="http://www.w3.org/1999/xlink" x="0px" y="0px"
	 width="500px" height="200px" viewBox="0 0 500 200" enable-background="new 0 0 500 200" >
<g>
	<g>
		<path fill="#FFFFFF" d="M206.6,94.579c-2.544,0-4.612,2.068-4.612,4.608c0,2.542,2.068,4.61,4.612,4.61
			c2.545,0,4.608-2.067,4.608-4.61C211.208,96.647,209.145,94.579,206.6,94.579z"/>
		<path fill="#FFFFFF" d="M146.138,99.187c0-2.54-2.067-4.608-4.605-4.608c-2.54,0-4.608,2.068-4.608,4.608
			c0,2.542,2.068,4.61,4.608,4.61C144.07,103.797,146.138,101.729,146.138,99.187z"/>
		<path fill="#FFFFFF" d="M76.462,103.797c2.544,0,4.612-2.067,4.612-4.61c0-2.54-2.068-4.608-4.612-4.608
			c-2.54,0-4.608,2.068-4.608,4.608C71.854,101.729,73.922,103.797,76.462,103.797z"/>
		<path fill="#FFFFFF" d="M156.985,99.187c0-2.54-2.068-4.608-4.612-4.608c-2.538,0-4.606,2.068-4.606,4.608
			c0,2.542,2.068,4.61,4.606,4.61C154.917,103.797,156.985,101.729,156.985,99.187z"/>
		<path fill="#FFFFFF" d="M136.414,133.118c1.795,1.802,4.72,1.802,6.515,0c0.873-0.866,1.35-2.022,1.35-3.254
			c0-1.233-0.477-2.39-1.35-3.263c-0.868-0.868-2.025-1.35-3.258-1.35c-1.227,0-2.388,0.481-3.256,1.35
			c-0.873,0.873-1.354,2.029-1.354,3.263C135.06,131.096,135.542,132.252,136.414,133.118z"/>
		<path fill="#FFFFFF" d="M108.998,147.177c2.542,0,4.61-2.072,4.61-4.61c0-2.542-2.068-4.607-4.61-4.607
			c-2.542,0-4.61,2.065-4.61,4.607C104.387,145.104,106.455,147.177,108.998,147.177z"/>
		<path fill="#FFFFFF" d="M78.322,134.471c1.231,0,2.395-0.478,3.263-1.353c0.873-0.866,1.35-2.022,1.35-3.254
			c0-1.233-0.477-2.39-1.35-3.263c-0.868-0.868-2.032-1.35-3.263-1.35c-1.227,0-2.388,0.481-3.252,1.35
			c-0.873,0.873-1.356,2.029-1.356,3.263c0,1.231,0.483,2.388,1.352,3.254C75.935,133.993,77.096,134.471,78.322,134.471z"/>
		<path fill="#FFFFFF" d="M70.232,99.187c0-2.54-2.068-4.608-4.613-4.608c-2.54,0-4.61,2.068-4.61,4.608
			c0,2.542,2.07,4.61,4.61,4.61C68.165,103.797,70.232,101.729,70.232,99.187z"/>
		<path fill="#FFFFFF" d="M81.585,65.256c-1.799-1.797-4.72-1.797-6.519,0c-0.868,0.87-1.352,2.025-1.352,3.258
			c0,1.233,0.483,2.388,1.352,3.261c0.869,0.871,2.03,1.352,3.256,1.352c1.231,0,2.395-0.481,3.263-1.352
			c0.873-0.873,1.35-2.028,1.35-3.261C82.935,67.281,82.458,66.126,81.585,65.256z"/>
		<path fill="#FFFFFF" d="M108.998,51.206c-2.542,0-4.61,2.061-4.61,4.605c0,2.54,2.068,4.606,4.61,4.606
			c2.542,0,4.61-2.066,4.61-4.606C113.607,53.267,111.54,51.206,108.998,51.206z"/>
		<path fill="#FFFFFF" d="M139.67,73.126c1.233,0,2.39-0.481,3.258-1.352c0.873-0.873,1.35-2.028,1.35-3.261
			c0-1.233-0.477-2.388-1.35-3.258c-1.795-1.797-4.72-1.797-6.515,0c-0.873,0.87-1.354,2.025-1.354,3.258
			c0,1.233,0.481,2.388,1.354,3.261C137.282,72.646,138.444,73.126,139.67,73.126z"/>
		<path fill="#FFFFFF" d="M163.223,94.579c-2.541,0-4.608,2.068-4.608,4.608c0,2.542,2.067,4.61,4.608,4.61
			c2.544,0,4.609-2.067,4.609-4.61C167.832,96.647,165.767,94.579,163.223,94.579z"/>
		<path fill="#FFFFFF" d="M158.379,122.065c1.155,0.421,2.406,0.369,3.521-0.155c1.112-0.521,1.963-1.445,2.384-2.602
			c0.184-0.506,0.279-1.037,0.279-1.576c0-1.932-1.22-3.668-3.032-4.328c-1.161-0.42-2.41-0.369-3.524,0.154
			c-1.119,0.52-1.963,1.439-2.386,2.596c-0.188,0.511-0.277,1.043-0.277,1.578C155.343,119.662,156.56,121.405,158.379,122.065z"/>
		<path fill="#FFFFFF" d="M150.938,138.635c1.222-0.109,2.336-0.685,3.128-1.629c0.696-0.833,1.079-1.881,1.079-2.961
			c0-1.367-0.604-2.658-1.647-3.536c-0.939-0.788-2.139-1.166-3.363-1.061c-1.231,0.107-2.336,0.688-3.128,1.632
			c-0.698,0.828-1.081,1.879-1.081,2.961c0,1.369,0.6,2.651,1.647,3.531C148.512,138.363,149.712,138.74,150.938,138.635z"/>
		<path fill="#FFFFFF" d="M140.1,143.84c-1.269-2.199-4.091-2.956-6.295-1.685c-1.421,0.821-2.305,2.356-2.305,3.992
			c0,0.808,0.215,1.606,0.62,2.305c0.613,1.065,1.609,1.826,2.8,2.146c1.188,0.315,2.43,0.156,3.498-0.463
			c1.419-0.819,2.301-2.351,2.301-3.993C140.718,145.34,140.507,144.543,140.1,143.84z"/>
		<path fill="#FFFFFF" d="M119.213,157.127c2.211-0.392,3.809-2.299,3.809-4.536c0-0.263-0.022-0.537-0.069-0.802
			c-0.438-2.502-2.838-4.183-5.34-3.739c-2.204,0.392-3.809,2.296-3.809,4.531c0,0.271,0.022,0.537,0.071,0.809
			C114.315,155.892,116.711,157.565,119.213,157.127z"/>
		<path fill="#FFFFFF" d="M98.781,157.127c1.211,0.212,2.435-0.061,3.444-0.766c1.011-0.703,1.685-1.759,1.897-2.972
			c0.047-0.271,0.067-0.537,0.067-0.809c0-2.235-1.6-4.14-3.807-4.531c-1.211-0.213-2.435,0.058-3.444,0.761
			c-1.012,0.707-1.681,1.766-1.897,2.979c-0.043,0.265-0.067,0.539-0.067,0.802C94.975,154.828,96.57,156.735,98.781,157.127z"/>
		<path fill="#FFFFFF" d="M83.08,150.599c1.19-0.32,2.187-1.081,2.8-2.146c0.405-0.698,0.618-1.497,0.618-2.305
			c0-1.636-0.882-3.171-2.303-3.992c-2.204-1.271-5.033-0.515-6.302,1.685c-0.4,0.703-0.618,1.5-0.618,2.303
			c0,1.643,0.886,3.174,2.307,3.993C80.65,150.755,81.89,150.914,83.08,150.599z"/>
		<path fill="#FFFFFF" d="M70.427,137.572c1.041-0.88,1.647-2.162,1.647-3.531c0-1.082-0.387-2.133-1.081-2.961
			c-0.794-0.943-1.904-1.524-3.131-1.632c-1.227-0.105-2.421,0.272-3.361,1.061c-1.052,0.884-1.647,2.169-1.647,3.536
			c0,1.08,0.383,2.128,1.077,2.961C65.564,138.955,68.476,139.203,70.427,137.572z"/>
		<path fill="#FFFFFF" d="M62.655,117.732c0-0.535-0.094-1.067-0.278-1.578c-0.42-1.156-1.264-2.076-2.379-2.596
			c-1.119-0.523-2.375-0.574-3.531-0.154c-1.813,0.66-3.03,2.396-3.03,4.328c0,0.539,0.094,1.07,0.28,1.576
			c0.418,1.156,1.265,2.08,2.383,2.602c1.115,0.524,2.366,0.576,3.521,0.155C61.439,121.405,62.655,119.662,62.655,117.732z"/>
		<path fill="#FFFFFF" d="M54.772,94.579c-2.533,0-4.608,2.068-4.608,4.608c0,2.542,2.075,4.61,4.608,4.61
			c2.545,0,4.612-2.067,4.612-4.61C59.385,96.647,57.317,94.579,54.772,94.579z"/>
		<path fill="#FFFFFF" d="M62.377,82.221c0.184-0.51,0.278-1.043,0.278-1.578c0-1.929-1.215-3.67-3.035-4.333
			c-1.155-0.418-2.406-0.363-3.521,0.157c-1.119,0.519-1.965,1.443-2.383,2.6c-0.186,0.51-0.28,1.039-0.28,1.576
			c0,1.927,1.217,3.67,3.035,4.331C58.861,85.842,61.509,84.604,62.377,82.221z"/>
		<path fill="#FFFFFF" d="M70.993,67.297c0.694-0.833,1.081-1.88,1.081-2.961c0-1.37-0.606-2.652-1.647-3.536
			c-1.951-1.631-4.863-1.378-6.497,0.573c-0.694,0.826-1.077,1.877-1.077,2.958c0,1.37,0.596,2.656,1.647,3.531
			c0.94,0.794,2.135,1.17,3.361,1.061C69.089,68.816,70.199,68.239,70.993,67.297z"/>
		<path fill="#FFFFFF" d="M77.893,54.532c0.62,1.067,1.616,1.833,2.804,2.148c1.188,0.322,2.426,0.156,3.498-0.459
			c1.421-0.821,2.303-2.35,2.303-3.997c0-0.801-0.213-1.6-0.618-2.298c-1.271-2.2-4.098-2.954-6.298-1.685
			c-1.421,0.821-2.307,2.35-2.307,3.993C77.275,53.037,77.492,53.833,77.893,54.532z"/>
		<path fill="#FFFFFF" d="M102.226,42.015c-1.009-0.703-2.233-0.978-3.44-0.765c-2.215,0.392-3.811,2.298-3.811,4.536
			c0,0.269,0.024,0.54,0.067,0.801c0.217,1.215,0.886,2.271,1.897,2.974c1.009,0.709,2.233,0.982,3.444,0.766
			c2.207-0.387,3.807-2.294,3.807-4.532c0-0.269-0.02-0.537-0.067-0.806C103.911,43.776,103.237,42.722,102.226,42.015z"/>
		<path fill="#FFFFFF" d="M119.213,41.25c-1.208-0.212-2.435,0.063-3.446,0.765c-1.005,0.708-1.678,1.761-1.891,2.975
			c-0.049,0.269-0.071,0.537-0.071,0.806c0,2.238,1.604,4.145,3.809,4.532c1.213,0.217,2.435-0.056,3.446-0.766
			c1.005-0.703,1.681-1.759,1.894-2.974c0.047-0.262,0.069-0.533,0.069-0.801C123.022,43.548,121.425,41.641,119.213,41.25z"/>
		<path fill="#FFFFFF" d="M132.12,49.926c-0.405,0.703-0.62,1.497-0.62,2.298c0,1.647,0.884,3.176,2.305,3.997
			c1.065,0.615,2.307,0.781,3.498,0.459c1.188-0.316,2.184-1.081,2.797-2.148c0.407-0.698,0.618-1.495,0.618-2.298
			c0-1.643-0.882-3.171-2.301-3.993C136.21,46.972,133.389,47.726,132.12,49.926z"/>
		<path fill="#FFFFFF" d="M150.135,68.924c1.224,0.109,2.424-0.267,3.363-1.061c1.043-0.875,1.647-2.162,1.647-3.531
			c0-1.081-0.383-2.133-1.079-2.958c-0.792-0.944-1.906-1.526-3.128-1.629c-1.227-0.11-2.426,0.269-3.366,1.056
			c-1.047,0.884-1.647,2.167-1.647,3.536c0,1.081,0.387,2.128,1.081,2.961C147.798,68.239,148.904,68.816,150.135,68.924z"/>
		<path fill="#FFFFFF" d="M155.343,80.644c0,0.535,0.089,1.067,0.277,1.578c0.868,2.383,3.522,3.621,5.91,2.753
			c1.813-0.66,3.032-2.404,3.032-4.331c0-0.537-0.096-1.065-0.279-1.576c-0.421-1.157-1.271-2.081-2.384-2.6
			c-1.114-0.52-2.365-0.575-3.521-0.157C156.56,76.974,155.343,78.714,155.343,80.644z"/>
		<path fill="#FFFFFF" d="M174.063,94.579c-2.537,0-4.605,2.068-4.605,4.608c0,2.542,2.068,4.61,4.605,4.61
			c2.545,0,4.612-2.067,4.612-4.61C178.675,96.647,176.607,94.579,174.063,94.579z"/>
		<path fill="#FFFFFF" d="M177.335,112.78c0.063-0.298,0.089-0.598,0.089-0.901c0-2.189-1.558-4.087-3.71-4.517
			c-2.493-0.497-4.924,1.128-5.418,3.618c-0.057,0.298-0.092,0.604-0.092,0.902c0,2.191,1.564,4.094,3.712,4.518
			C174.407,116.896,176.842,115.273,177.335,112.78z"/>
		<path fill="#FFFFFF" d="M173.373,125.85c0.233-0.56,0.352-1.154,0.352-1.76c0-1.868-1.121-3.544-2.847-4.263
			c-1.139-0.466-2.395-0.466-3.526,0c-1.14,0.472-2.025,1.36-2.498,2.497c-0.234,0.566-0.349,1.158-0.349,1.762
			c0,1.873,1.118,3.545,2.847,4.264C169.696,129.32,172.397,128.201,173.373,125.85z"/>
		<path fill="#FFFFFF" d="M160.539,139.172c2.117,1.412,4.979,0.84,6.392-1.275c0.51-0.759,0.774-1.643,0.774-2.559
			c0-1.544-0.766-2.979-2.044-3.833c-2.114-1.41-4.979-0.839-6.396,1.271c-0.506,0.762-0.774,1.647-0.774,2.563
			C158.491,136.883,159.261,138.313,160.539,139.172z"/>
		<path fill="#FFFFFF" d="M159.614,145.198c0-1.23-0.477-2.388-1.345-3.261c-1.797-1.799-4.727-1.799-6.519,0
			c-0.873,0.873-1.349,2.03-1.349,3.261c0,1.229,0.477,2.386,1.349,3.259c1.792,1.797,4.722,1.797,6.519,0
			C159.138,147.584,159.614,146.427,159.614,145.198z"/>
		<path fill="#FFFFFF" d="M147.709,157.122c1.285-0.859,2.05-2.294,2.05-3.833c0-0.916-0.269-1.798-0.779-2.563
			c-0.685-1.021-1.728-1.719-2.932-1.959c-1.208-0.241-2.435,0.005-3.46,0.689c-1.284,0.859-2.047,2.29-2.047,3.836
			c0,0.913,0.269,1.795,0.774,2.561c0.689,1.018,1.725,1.716,2.936,1.958C145.46,158.051,146.686,157.807,147.709,157.122z"/>
		<path fill="#FFFFFF" d="M132.14,155.046c-1.734,0.718-2.854,2.388-2.854,4.259c0,0.608,0.119,1.197,0.354,1.763
			c0.973,2.348,3.672,3.469,6.024,2.495c1.725-0.718,2.84-2.39,2.84-4.265c0-0.604-0.116-1.193-0.349-1.755
			C137.184,155.19,134.483,154.074,132.14,155.046z"/>
		<path fill="#FFFFFF" d="M120.796,158.487c-2.153,0.423-3.71,2.325-3.71,4.514c0,0.3,0.027,0.609,0.085,0.906
			c0.497,2.493,2.932,4.116,5.422,3.619c2.148-0.428,3.713-2.325,3.713-4.517c0-0.302-0.036-0.604-0.092-0.901
			C125.719,159.615,123.289,157.99,120.796,158.487z"/>
		<path fill="#FFFFFF" d="M108.998,168.867c2.542,0,4.61-2.068,4.61-4.61s-2.068-4.61-4.61-4.61c-2.542,0-4.61,2.068-4.61,4.61
			S106.455,168.867,108.998,168.867z"/>
		<path fill="#FFFFFF" d="M100.825,163.907c0.06-0.297,0.089-0.606,0.089-0.906c0-2.188-1.558-4.091-3.71-4.514
			c-1.208-0.241-2.437,0-3.46,0.685c-1.025,0.686-1.719,1.726-1.958,2.937c-0.063,0.298-0.092,0.6-0.092,0.901
			c0,2.191,1.56,4.089,3.71,4.517c1.208,0.241,2.437-0.005,3.46-0.689C99.889,166.154,100.583,165.109,100.825,163.907z"/>
		<path fill="#FFFFFF" d="M85.859,163.563c1.144-0.467,2.025-1.355,2.5-2.495c0.23-0.565,0.349-1.154,0.349-1.763
			c0-1.871-1.115-3.541-2.849-4.259c-1.137-0.473-2.388-0.473-3.529,0c-1.132,0.472-2.017,1.354-2.489,2.497
			c-0.235,0.562-0.354,1.15-0.354,1.762c0,1.868,1.119,3.54,2.847,4.258C83.472,164.035,84.727,164.035,85.859,163.563z"/>
		<path fill="#FFFFFF" d="M75.409,149.457c-1.023-0.685-2.251-0.931-3.46-0.689c-1.207,0.24-2.251,0.938-2.93,1.959
			c-0.51,0.765-0.779,1.646-0.779,2.563c0,1.539,0.766,2.974,2.043,3.833c2.119,1.412,4.988,0.842,6.396-1.269
			c0.51-0.766,0.779-1.647,0.779-2.561C77.458,151.747,76.688,150.316,75.409,149.457z"/>
		<path fill="#FFFFFF" d="M66.249,141.938c-1.799-1.795-4.722-1.795-6.521,0c-0.866,0.873-1.347,2.03-1.347,3.261
			c0,1.229,0.481,2.386,1.347,3.259c1.799,1.797,4.722,1.797,6.521,0c0.869-0.873,1.35-2.03,1.35-3.259
			C67.598,143.968,67.117,142.811,66.249,141.938z"/>
		<path fill="#FFFFFF" d="M57.458,139.172c1.28-0.859,2.043-2.289,2.043-3.838c0-0.911-0.262-1.797-0.772-2.559
			c-1.412-2.114-4.284-2.681-6.394-1.271c-1.282,0.854-2.047,2.289-2.047,3.833c0,0.916,0.271,1.8,0.774,2.559
			C52.479,140.012,55.343,140.584,57.458,139.172z"/>
		<path fill="#FFFFFF" d="M50.648,128.35c1.728-0.719,2.845-2.391,2.845-4.264c0-0.604-0.117-1.199-0.349-1.762
			c-0.472-1.137-1.358-2.025-2.496-2.497c-1.139-0.466-2.39-0.466-3.527,0c-1.732,0.719-2.847,2.395-2.847,4.263
			c0,0.605,0.119,1.2,0.349,1.76C45.602,128.201,48.296,129.32,50.648,128.35z"/>
		<path fill="#FFFFFF" d="M46.078,116.4c2.153-0.424,3.71-2.326,3.71-4.518c0-0.298-0.029-0.604-0.091-0.902
			c-0.495-2.49-2.921-4.115-5.418-3.618c-2.148,0.43-3.706,2.327-3.706,4.517c0,0.304,0.029,0.604,0.092,0.901
			C41.155,115.273,43.587,116.896,46.078,116.4z"/>
		<path fill="#FFFFFF" d="M43.93,103.797c2.54,0,4.608-2.067,4.608-4.61c0-2.54-2.068-4.608-4.608-4.608s-4.605,2.068-4.605,4.608
			C39.324,101.729,41.39,103.797,43.93,103.797z"/>
		<path fill="#FFFFFF" d="M40.665,85.596c-0.063,0.297-0.092,0.6-0.092,0.902c0,2.191,1.558,4.086,3.706,4.518
			c2.497,0.495,4.923-1.13,5.418-3.623c0.063-0.295,0.091-0.602,0.091-0.904c0-2.187-1.557-4.089-3.71-4.514
			C43.587,81.48,41.155,83.105,40.665,85.596z"/>
		<path fill="#FFFFFF" d="M47.121,70.029c-1.137,0.472-2.025,1.358-2.498,2.498c-0.23,0.562-0.349,1.155-0.349,1.759
			c0,1.875,1.115,3.547,2.847,4.259c1.137,0.472,2.388,0.472,3.527,0c1.137-0.468,2.023-1.354,2.496-2.493
			c0.232-0.562,0.349-1.155,0.349-1.759c0-1.875-1.117-3.547-2.845-4.263C49.509,69.562,48.258,69.562,47.121,70.029z"/>
		<path fill="#FFFFFF" d="M57.458,59.207c-2.115-1.412-4.979-0.841-6.396,1.273c-0.503,0.761-0.774,1.643-0.774,2.553
			c0,1.544,0.765,2.979,2.047,3.838c2.11,1.412,4.982,0.839,6.394-1.273c0.51-0.761,0.772-1.645,0.772-2.556
			C59.501,61.5,58.738,60.062,57.458,59.207z"/>
		<path fill="#FFFFFF" d="M58.38,53.182c0,1.229,0.481,2.386,1.347,3.254c0.871,0.873,2.032,1.354,3.258,1.354
			c1.237,0,2.395-0.481,3.263-1.35c0.869-0.873,1.35-2.03,1.35-3.258c0-1.235-0.481-2.388-1.35-3.261
			c-1.799-1.799-4.722-1.799-6.521,0C58.861,50.794,58.38,51.947,58.38,53.182z"/>
		<path fill="#FFFFFF" d="M70.284,41.254c-1.278,0.855-2.043,2.294-2.043,3.838c0,0.911,0.269,1.793,0.779,2.558
			c0.685,1.021,1.723,1.719,2.93,1.958c1.208,0.242,2.437-0.009,3.46-0.689c1.28-0.857,2.05-2.294,2.05-3.832
			c0-0.915-0.269-1.804-0.779-2.558c-0.68-1.025-1.728-1.724-2.932-1.965C72.54,40.323,71.313,40.571,70.284,41.254z"/>
		<path fill="#FFFFFF" d="M82.331,43.331c1.141,0.472,2.396,0.472,3.529,0c1.734-0.716,2.849-2.388,2.849-4.256
			c0-0.609-0.119-1.2-0.349-1.761c-0.974-2.35-3.679-3.469-6.029-2.498c-1.723,0.718-2.842,2.39-2.842,4.259
			c0,0.604,0.119,1.197,0.349,1.759C80.314,41.977,81.198,42.858,82.331,43.331z"/>
		<path fill="#FFFFFF" d="M93.744,39.202c1.023,0.689,2.251,0.929,3.46,0.689c2.153-0.425,3.71-2.33,3.71-4.514
			c0-0.302-0.029-0.608-0.089-0.906c-0.242-1.208-0.936-2.251-1.96-2.929c-1.023-0.685-2.251-0.931-3.46-0.691
			c-2.15,0.43-3.71,2.327-3.71,4.518c0,0.302,0.029,0.604,0.092,0.902C92.025,37.479,92.719,38.521,93.744,39.202z"/>
		<path fill="#FFFFFF" d="M108.998,29.509c-2.542,0-4.61,2.068-4.61,4.612c0,2.54,2.068,4.606,4.61,4.606
			c2.542,0,4.61-2.066,4.61-4.606C113.607,31.577,111.54,29.509,108.998,29.509z"/>
		<path fill="#FFFFFF" d="M117.17,34.471c-0.058,0.298-0.085,0.604-0.085,0.906c0,2.185,1.558,4.089,3.71,4.514
			c2.493,0.495,4.923-1.128,5.418-3.621c0.056-0.297,0.092-0.6,0.092-0.902c0-2.191-1.564-4.088-3.713-4.518
			C120.102,30.355,117.667,31.978,117.17,34.471z"/>
		<path fill="#FFFFFF" d="M129.64,37.313c-0.235,0.562-0.354,1.152-0.354,1.761c0,1.869,1.119,3.541,2.854,4.256
			c2.339,0.974,5.044-0.147,6.016-2.498c0.233-0.562,0.349-1.154,0.349-1.759c0-1.869-1.115-3.541-2.84-4.259
			C133.313,33.844,130.613,34.963,129.64,37.313z"/>
		<path fill="#FFFFFF" d="M142.588,48.919c2.115,1.414,4.979,0.841,6.392-1.269c0.51-0.765,0.779-1.647,0.779-2.558
			c0-1.544-0.765-2.983-2.05-3.838c-1.023-0.683-2.249-0.931-3.458-0.689c-1.215,0.242-2.247,0.94-2.936,1.965
			c-0.506,0.754-0.774,1.643-0.774,2.558C140.541,46.625,141.304,48.062,142.588,48.919z"/>
		<path fill="#FFFFFF" d="M151.75,56.436c0.869,0.873,2.026,1.354,3.258,1.354c1.231,0,2.388-0.481,3.261-1.354
			c0.868-0.868,1.345-2.025,1.345-3.254c0-1.235-0.477-2.388-1.345-3.261c-1.797-1.799-4.727-1.799-6.519,0
			c-0.873,0.873-1.349,2.025-1.349,3.261C150.401,54.411,150.878,55.568,151.75,56.436z"/>
		<path fill="#FFFFFF" d="M160.539,59.207c-1.278,0.855-2.048,2.29-2.048,3.836c0,0.911,0.269,1.799,0.774,2.556
			c1.416,2.112,4.281,2.686,6.396,1.273c1.278-0.859,2.044-2.294,2.044-3.838c0-0.911-0.265-1.792-0.774-2.553
			C165.519,58.365,162.656,57.794,160.539,59.207z"/>
		<path fill="#FFFFFF" d="M170.878,70.029c-1.139-0.468-2.395-0.468-3.526,0c-1.729,0.716-2.847,2.388-2.847,4.263
			c0,0.604,0.114,1.197,0.349,1.759c0.473,1.139,1.358,2.025,2.498,2.493c1.132,0.472,2.388,0.472,3.526,0
			c1.726-0.712,2.847-2.383,2.847-4.259c0-0.604-0.118-1.197-0.352-1.759C172.903,71.388,172.015,70.501,170.878,70.029z"/>
		<path fill="#FFFFFF" d="M168.204,86.489c0,0.302,0.035,0.608,0.092,0.904c0.494,2.493,2.925,4.118,5.418,3.623
			c2.152-0.432,3.71-2.327,3.71-4.518c0-0.302-0.026-0.604-0.089-0.902c-0.493-2.491-2.928-4.116-5.419-3.621
			C169.769,82.4,168.204,84.303,168.204,86.489z"/>
		<path fill="#FFFFFF" d="M184.91,94.579c-2.538,0-4.608,2.068-4.608,4.608c0,2.542,2.07,4.61,4.608,4.61
			c2.54,0,4.607-2.067,4.607-4.61C189.518,96.647,187.45,94.579,184.91,94.579z"/>
		<path fill="#FFFFFF" d="M184.207,110.461c-1.204-0.254-2.435-0.026-3.464,0.643c-1.034,0.672-1.743,1.705-1.999,2.91
			c-0.064,0.314-0.101,0.642-0.101,0.962c0,2.161,1.533,4.056,3.652,4.503c1.204,0.255,2.435,0.029,3.469-0.643
			c1.029-0.669,1.736-1.703,1.992-2.907c0.069-0.317,0.104-0.638,0.104-0.962C187.861,112.809,186.326,110.912,184.207,110.461z"/>
		<path fill="#FFFFFF" d="M180.224,125.856c-2.323-1.034-5.051,0.013-6.085,2.331c-0.269,0.601-0.4,1.227-0.4,1.874
			c0,1.821,1.072,3.476,2.737,4.21c2.318,1.04,5.051-0.01,6.085-2.332c0.264-0.594,0.396-1.227,0.396-1.873
			C182.956,128.248,181.884,126.593,180.224,125.856z"/>
		<path fill="#FFFFFF" d="M173.12,140.078c-2.059-1.492-4.943-1.033-6.436,1.022c-0.575,0.788-0.882,1.729-0.882,2.706
			c0,1.473,0.707,2.864,1.902,3.729c0.995,0.728,2.213,1.021,3.428,0.821c1.216-0.188,2.283-0.846,3.011-1.84
			c0.572-0.794,0.879-1.729,0.879-2.705C175.022,142.339,174.313,140.939,173.12,140.078z"/>
		<path fill="#FFFFFF" d="M156.708,152.177c-0.97,0.872-1.524,2.121-1.524,3.426c0,1.144,0.423,2.235,1.188,3.082
			c0.821,0.917,1.949,1.454,3.18,1.515c1.229,0.071,2.413-0.349,3.323-1.17c0.974-0.873,1.526-2.124,1.526-3.427
			c0-1.144-0.421-2.237-1.186-3.086C161.517,150.632,158.594,150.478,156.708,152.177z"/>
		<path fill="#FFFFFF" d="M148.146,160.479c-1.191-0.322-2.431-0.157-3.496,0.456c-1.419,0.821-2.308,2.358-2.308,3.999
			c0,0.804,0.219,1.603,0.618,2.301c1.276,2.204,4.098,2.959,6.298,1.689c1.421-0.821,2.305-2.35,2.305-3.994
			c0-0.806-0.212-1.604-0.613-2.303C150.33,161.56,149.333,160.795,148.146,160.479z"/>
		<path fill="#FFFFFF" d="M131.032,167.003c-1.907,0.619-3.185,2.379-3.185,4.382c0,0.485,0.076,0.962,0.228,1.423
			c0.781,2.419,3.388,3.751,5.803,2.961c1.909-0.617,3.187-2.379,3.187-4.38c0-0.487-0.076-0.964-0.226-1.425
			C136.056,167.547,133.449,166.22,131.032,167.003z"/>
		<path fill="#FFFFFF" d="M116.452,170.1c-2.354,0.251-4.129,2.218-4.129,4.584c0,0.161,0.009,0.319,0.027,0.48
			c0.267,2.529,2.54,4.371,5.064,4.103c2.356-0.246,4.127-2.214,4.127-4.577c0-0.161-0.004-0.322-0.022-0.487
			C121.248,171.678,118.976,169.836,116.452,170.1z"/>
		<path fill="#FFFFFF" d="M105.649,175.164c0.014-0.161,0.022-0.319,0.022-0.48c0-2.366-1.775-4.333-4.125-4.584
			c-1.224-0.127-2.428,0.233-3.386,1.005c-0.954,0.774-1.553,1.876-1.681,3.098c-0.018,0.165-0.027,0.326-0.027,0.487
			c0,2.363,1.772,4.331,4.129,4.577c1.222,0.132,2.421-0.227,3.379-1.001C104.92,177.492,105.52,176.393,105.649,175.164z"/>
		<path fill="#FFFFFF" d="M86.965,167.003c-2.417-0.783-5.022,0.544-5.81,2.961c-0.147,0.461-0.226,0.938-0.226,1.425
			c0,2.001,1.282,3.763,3.184,4.38c2.422,0.79,5.024-0.542,5.81-2.961c0.147-0.461,0.228-0.938,0.228-1.419
			C90.152,169.382,88.872,167.622,86.965,167.003z"/>
		<path fill="#FFFFFF" d="M73.347,160.936c-1.067-0.613-2.309-0.778-3.498-0.456c-1.19,0.315-2.182,1.08-2.8,2.148
			c-0.405,0.698-0.618,1.497-0.618,2.303c0,1.645,0.884,3.173,2.307,3.994c2.2,1.27,5.022,0.515,6.293-1.689
			c0.405-0.698,0.618-1.497,0.618-2.301C75.65,163.288,74.769,161.757,73.347,160.936z"/>
		<path fill="#FFFFFF" d="M54.777,152.521c-0.763,0.844-1.184,1.938-1.184,3.081c0,1.303,0.557,2.554,1.524,3.427
			c0.917,0.821,2.097,1.241,3.328,1.17c1.229-0.061,2.361-0.598,3.182-1.515c0.765-0.847,1.184-1.938,1.184-3.082
			c0-1.305-0.555-2.554-1.524-3.426C59.398,150.478,56.482,150.632,54.777,152.521z"/>
		<path fill="#FFFFFF" d="M46.862,148.356c1.217,0.199,2.437-0.094,3.437-0.821c1.184-0.864,1.898-2.256,1.898-3.729
			c0-0.978-0.307-1.918-0.884-2.706c-0.723-1-1.793-1.649-3.006-1.851c-1.22-0.188-2.437,0.105-3.433,0.828
			c-1.188,0.861-1.902,2.261-1.902,3.733c0,0.976,0.307,1.911,0.882,2.705C44.581,147.511,45.644,148.168,46.862,148.356z"/>
		<path fill="#FFFFFF" d="M44.257,130.062c0-0.647-0.132-1.273-0.396-1.874c-1.034-2.318-3.762-3.365-6.085-2.331
			c-1.66,0.736-2.739,2.392-2.739,4.21c0,0.646,0.139,1.279,0.403,1.873c1.038,2.322,3.762,3.372,6.085,2.332
			C43.185,133.537,44.257,131.883,44.257,130.062z"/>
		<path fill="#FFFFFF" d="M39.355,114.976c0-0.32-0.036-0.647-0.103-0.962c-0.528-2.484-2.983-4.08-5.465-3.553
			c-2.122,0.451-3.654,2.348-3.654,4.506c0,0.324,0.038,0.645,0.105,0.962c0.254,1.204,0.967,2.238,1.994,2.907
			c1.034,0.672,2.267,0.897,3.471,0.643C37.818,119.031,39.355,117.137,39.355,114.976z"/>
		<path fill="#FFFFFF" d="M37.695,99.187c0-2.54-2.068-4.608-4.608-4.608c-2.544,0-4.611,2.068-4.611,4.608
			c0,2.542,2.067,4.61,4.611,4.61C35.627,103.797,37.695,101.729,37.695,99.187z"/>
		<path fill="#FFFFFF" d="M33.788,87.915c2.486,0.528,4.937-1.067,5.465-3.549c0.067-0.318,0.103-0.638,0.103-0.964
			c0-2.16-1.537-4.053-3.652-4.503c-2.481-0.528-4.937,1.063-5.464,3.549c-0.067,0.315-0.105,0.638-0.105,0.965
			C30.134,85.567,31.666,87.467,33.788,87.915z"/>
		<path fill="#FFFFFF" d="M37.775,72.522c2.323,1.039,5.051-0.013,6.085-2.336c0.264-0.591,0.396-1.224,0.396-1.871
			c0-1.822-1.072-3.473-2.732-4.214c-1.126-0.501-2.379-0.535-3.527-0.09c-1.146,0.439-2.057,1.303-2.558,2.426
			c-0.264,0.593-0.403,1.229-0.403,1.873C35.037,70.127,36.115,71.779,37.775,72.522z"/>
		<path fill="#FFFFFF" d="M44.875,58.3c2.059,1.49,4.941,1.034,6.438-1.021c0.577-0.794,0.884-1.732,0.884-2.708
			c0-1.47-0.714-2.867-1.898-3.73c-1-0.728-2.22-1.014-3.437-0.826c-1.213,0.192-2.281,0.848-3.001,1.846
			c-0.582,0.792-0.888,1.725-0.888,2.703C42.972,56.038,43.686,57.432,44.875,58.3z"/>
		<path fill="#FFFFFF" d="M61.287,46.2c0.969-0.873,1.524-2.124,1.524-3.426c0-1.141-0.418-2.238-1.184-3.082
			c-0.821-0.916-1.954-1.453-3.182-1.52c-1.231-0.067-2.411,0.354-3.328,1.179c-0.967,0.871-1.524,2.12-1.524,3.422
			c0,1.144,0.421,2.238,1.184,3.084C56.478,47.75,59.398,47.9,61.287,46.2z"/>
		<path fill="#FFFFFF" d="M73.347,37.44c1.421-0.826,2.303-2.354,2.303-3.999c0-0.801-0.213-1.6-0.618-2.298
			c-0.616-1.067-1.609-1.831-2.8-2.146c-1.184-0.322-2.426-0.157-3.494,0.457c-1.423,0.821-2.307,2.35-2.307,3.995
			c0,0.806,0.213,1.604,0.618,2.303C68.321,37.951,71.147,38.709,73.347,37.44z"/>
		<path fill="#FFFFFF" d="M84.114,22.61c-1.902,0.618-3.184,2.379-3.184,4.379c0,0.481,0.078,0.962,0.226,1.426
			c0.788,2.417,3.393,3.742,5.81,2.961c1.907-0.62,3.187-2.379,3.187-4.387c0-0.481-0.081-0.962-0.228-1.421
			C89.138,23.151,86.536,21.827,84.114,22.61z"/>
		<path fill="#FFFFFF" d="M101.547,28.278c2.35-0.25,4.125-2.218,4.125-4.583c0-0.161-0.009-0.327-0.022-0.488
			c-0.13-1.222-0.729-2.321-1.688-3.1c-0.958-0.77-2.157-1.128-3.379-1.002c-2.356,0.25-4.129,2.22-4.129,4.585
			c0,0.159,0.009,0.32,0.027,0.485C96.745,26.703,99.016,28.542,101.547,28.278z"/>
		<path fill="#FFFFFF" d="M112.35,23.208c-0.018,0.161-0.027,0.327-0.027,0.488c0,2.365,1.775,4.333,4.129,4.583
			c2.524,0.264,4.795-1.575,5.066-4.102c0.018-0.166,0.022-0.327,0.022-0.485c0-2.366-1.771-4.335-4.127-4.585
			C114.89,18.843,112.616,20.683,112.35,23.208z"/>
		<path fill="#FFFFFF" d="M131.032,31.376c2.417,0.781,5.024-0.544,5.807-2.961c0.15-0.463,0.226-0.944,0.226-1.426
			c0-2-1.278-3.762-3.187-4.379c-2.415-0.783-5.021,0.542-5.803,2.958c-0.152,0.459-0.228,0.94-0.228,1.428
			C127.848,28.997,129.125,30.756,131.032,31.376z"/>
		<path fill="#FFFFFF" d="M144.65,37.44c2.2,1.269,5.024,0.51,6.299-1.689c0.401-0.698,0.613-1.497,0.613-2.303
			c0-1.645-0.884-3.173-2.305-3.995c-1.068-0.613-2.308-0.779-3.498-0.457c-1.188,0.315-2.18,1.079-2.8,2.146
			c-0.398,0.698-0.618,1.497-0.618,2.298C142.342,35.086,143.231,36.615,144.65,37.44z"/>
		<path fill="#FFFFFF" d="M163.216,45.857c0.765-0.846,1.186-1.94,1.186-3.084c0-1.302-0.553-2.551-1.526-3.422
			c-0.91-0.826-2.095-1.247-3.323-1.179c-1.23,0.067-2.358,0.604-3.18,1.52c-0.766,0.844-1.188,1.94-1.188,3.082
			c0,1.303,0.555,2.554,1.524,3.426C158.594,47.9,161.517,47.75,163.216,45.857z"/>
		<path fill="#FFFFFF" d="M171.133,50.016c-1.215-0.188-2.433,0.098-3.428,0.826c-1.195,0.864-1.902,2.26-1.902,3.73
			c0,0.976,0.307,1.914,0.882,2.708c1.492,2.054,4.377,2.511,6.436,1.021c1.193-0.869,1.902-2.263,1.902-3.735
			c0-0.978-0.307-1.911-0.879-2.703C173.416,50.864,172.349,50.208,171.133,50.016z"/>
		<path fill="#FFFFFF" d="M173.738,68.315c0,0.646,0.132,1.28,0.4,1.871c1.034,2.323,3.762,3.375,6.085,2.336
			c1.66-0.743,2.732-2.395,2.732-4.211c0-0.645-0.132-1.28-0.396-1.873c-0.506-1.124-1.412-1.987-2.563-2.426
			c-1.148-0.445-2.399-0.412-3.522,0.09C174.811,64.842,173.738,66.493,173.738,68.315z"/>
		<path fill="#FFFFFF" d="M178.644,83.401c0,0.322,0.036,0.646,0.101,0.964c0.526,2.482,2.979,4.078,5.463,3.549
			c2.119-0.448,3.654-2.348,3.654-4.502c0-0.327-0.035-0.649-0.104-0.965c-0.256-1.206-0.963-2.235-1.992-2.907
			c-1.034-0.669-2.265-0.897-3.469-0.642C180.177,79.348,178.644,81.241,178.644,83.401z"/>
		<path fill="#FFFFFF" d="M195.753,94.579c-2.54,0-4.606,2.068-4.606,4.608c0,2.542,2.066,4.61,4.606,4.61
			c2.544,0,4.612-2.067,4.612-4.61C200.365,96.647,198.297,94.579,195.753,94.579z"/>
		<path fill="#FFFFFF" d="M167.083,157.272c-0.871,0.875-1.353,2.032-1.353,3.263s0.481,2.39,1.353,3.258
			c1.799,1.8,4.724,1.8,6.519,0c0.873-0.868,1.354-2.027,1.354-3.258s-0.481-2.388-1.354-3.263
			C171.807,155.479,168.882,155.479,167.083,157.272z"/>
		<path fill="#FFFFFF" d="M108.998,181.339c-2.542,0-4.61,2.067-4.61,4.607c0,2.538,2.068,4.606,4.61,4.606
			c2.542,0,4.61-2.068,4.61-4.606C113.607,183.406,111.54,181.339,108.998,181.339z"/>
		<path fill="#FFFFFF" d="M44.393,157.272c-0.873,0.875-1.349,2.032-1.349,3.263s0.477,2.39,1.349,3.258c1.795,1.8,4.72,1.8,6.519,0
			c0.869-0.868,1.35-2.027,1.35-3.258s-0.481-2.388-1.35-3.263C49.113,155.479,46.188,155.479,44.393,157.272z"/>
		<path fill="#FFFFFF" d="M22.241,94.579c-2.54,0-4.606,2.068-4.606,4.608c0,2.542,2.066,4.61,4.606,4.61
			c2.544,0,4.608-2.067,4.608-4.61C26.849,96.647,24.785,94.579,22.241,94.579z"/>
		<path fill="#FFFFFF" d="M47.651,42.449c1.231,0,2.388-0.477,3.261-1.348c0.869-0.873,1.35-2.027,1.35-3.26
			c0-1.231-0.481-2.388-1.35-3.261c-1.799-1.795-4.724-1.795-6.519,0c-0.873,0.873-1.349,2.03-1.349,3.261
			c0,1.233,0.477,2.388,1.349,3.26C45.262,41.972,46.423,42.449,47.651,42.449z"/>
		<path fill="#FFFFFF" d="M108.998,17.04c2.542,0,4.61-2.063,4.61-4.608c0-2.538-2.068-4.605-4.61-4.605
			c-2.542,0-4.61,2.068-4.61,4.605C104.387,14.977,106.455,17.04,108.998,17.04z"/>
		<path fill="#FFFFFF" d="M170.344,42.449c1.232,0,2.392-0.477,3.258-1.348c0.873-0.873,1.354-2.027,1.354-3.26
			c0-1.231-0.481-2.388-1.354-3.261c-1.795-1.795-4.72-1.795-6.519,0c-0.871,0.873-1.353,2.03-1.353,3.261
			c0,1.233,0.481,2.388,1.353,3.26C167.955,41.972,169.112,42.449,170.344,42.449z"/>
		<path fill="#FFFFFF" d="M11.399,94.579c-2.545,0-4.612,2.068-4.612,4.608c0,2.542,2.067,4.61,4.612,4.61
			c2.539,0,4.607-2.067,4.607-4.61C16.006,96.647,13.938,94.579,11.399,94.579z"/>
		<g>
			<path fill="#FFFFFF" d="M98.309,74.82c-0.454,0-0.897,0.047-1.327,0.132c-3.124,0.618-5.485,3.373-5.485,6.682v41.924h7.716
				v-18.09h-0.041v-1.159h0.041v-3.268l13.365,0.024c0.284,0.036,0.571,0.063,0.864,0.063c0.287,0,0.568-0.026,0.846-0.061
				c3.363-0.418,5.966-3.278,5.966-6.753c0-0.232-0.009-0.452-0.033-0.676h-13.56h-7.448v-1.197v-1.159V88.38v-5.908h5.856h21.43
				v-7.52H99.641C99.211,74.868,98.77,74.82,98.309,74.82z"/>
		</g>
	</g>
	<g>
		<g>
			<path fill="#FFFFFF" d="M393.488,162.292v27.157h16.491v2.137H391.23v-29.294H393.488z"/>
			<path fill="#FFFFFF" d="M437.56,191.586l-3.218-7.197h-17.494l-3.183,7.197h-2.426l13.14-29.294h2.468l13.144,29.294H437.56z
				 M433.465,182.294l-7.876-17.827l-7.864,17.827H433.465z"/>
			<path fill="#FFFFFF" d="M464.975,170.283c0,3.015-1.84,5.355-4.77,6.275c3.686,1.009,5.776,3.979,5.776,7.367
				c0,6.029-5.606,7.66-10.628,7.66c-4.27,0-7.745,0-12.011,0v-29.294c4.221,0,7.741,0,12.011,0
				C460.293,162.292,464.975,164.718,464.975,170.283z M445.599,175.559h10.044c3.518,0,7.199-1.088,7.199-5.275
				c0-4.27-3.845-6.066-7.488-6.066h-9.755V175.559z M445.599,189.408h9.755c3.682,0,8.414-0.879,8.414-5.522
				c-0.049-4.563-4.189-6.192-8.125-6.192c-3.514,0-6.528,0-10.044,0V189.408z"/>
			<path fill="#FFFFFF" d="M491.263,167.942c-2.132-3.433-5.565-3.937-8.875-3.977c-3.429,0-8.871,1.253-8.871,5.941
				c0,3.729,4.02,4.604,8.958,5.523c5.648,1.09,11.51,2.097,11.51,8.412c-0.04,6.615-6.698,8.204-11.597,8.204
				c-4.557,0-9.749-1.884-12.011-6.362l2.014-1.005c1.795,3.561,6.398,5.317,9.997,5.317c3.603,0,9.337-1.007,9.337-6.196
				c0.04-4.394-4.81-5.355-9.63-6.273c-5.355-1.05-10.834-2.135-10.834-7.537c-0.126-6.194,6.317-8.117,11.127-8.117
				c4.187,0,7.828,0.667,10.715,4.979L491.263,167.942z"/>
		</g>
		<path fill="#FFFFFF" d="M308.472,133.248c0.273-11.799,6.553-17.664,18.763-17.664h1.312v7.904l0,0h-3.358
			c-5.103,0-8.813,4.309-8.813,9.623v18.946h0.005h-7.907V133.248z"/>
		<path fill="#FFFFFF" d="M434.143,115.748c-4.015,0-7.273,3.207-7.372,7.199c0,0.063-0.009,0.118-0.009,0.179
			c0,0.067,0.009,0.126,0.009,0.188v13.631l0,0c-0.069,3.921-3.263,7.076-7.204,7.076c-3.936,0-7.132-3.155-7.201-7.076l0,0V115.84
			h-8.479v21.105h0.007c0.311,8.403,7.195,15.124,15.674,15.124c8.479,0,15.366-6.721,15.675-15.124h0.011v-8.081V115.84v-0.092
			H434.143z"/>
		<g>
			<path fill="#FFFFFF" d="M392.508,105.234c-0.438,0-0.861,0.047-1.277,0.129v7.299h7.797c0.038-0.28,0.059-0.563,0.059-0.854
				C399.086,108.182,396.145,105.234,392.508,105.234z"/>
			<path fill="#FFFFFF" d="M399.146,122.371c0-3.658-2.963-6.623-6.622-6.623c-0.447,0-0.877,0.045-1.293,0.123v6.688v0.669v28.829
				h7.884v-29.144C399.128,122.734,399.146,122.555,399.146,122.371z"/>
		</g>
		<path fill="#FFFFFF" d="M243.839,120.846v-2.842v-5.785h5.733h20.982v-7.361h-26.298c-0.418-0.082-0.85-0.129-1.302-0.129
			c-0.443,0-0.88,0.047-1.301,0.129c-3.059,0.604-5.368,3.301-5.368,6.542v41.046h7.553v-17.711h-0.036V133.6h0.036v-3.198
			l13.083,0.022c0.281,0.035,0.562,0.059,0.848,0.059c0.28,0,0.558-0.023,0.828-0.057c3.297-0.407,5.846-3.209,5.846-6.613
			c0-0.226-0.012-0.442-0.036-0.662H251.13h-7.291v-1.172V120.846z"/>
		<path fill="#FFFFFF" d="M387.358,130.914c-0.311-8.403-7.197-15.124-15.677-15.124c-4.527,0-8.591,1.923-11.455,4.988
			c-2.867-3.065-6.936-4.988-11.461-4.988c-8.477,0-15.365,6.721-15.677,15.124h-0.011v21.144h8.481v-21.14
			c0.074-3.92,3.263-7.08,7.206-7.08c3.975,0,7.195,3.216,7.206,7.186h0.012v21.034h8.481v-21.034h0.005
			c0.018-3.97,3.238-7.186,7.212-7.186c3.941,0,7.133,3.152,7.207,7.076h-0.005v12.423v1.074c0.279,4.278,3.829,7.662,8.178,7.662
			c0.098,0,0.201-0.009,0.304-0.016v-14.776v-6.367H387.358z"/>
		<path fill="#FFFFFF" d="M493.899,130.914c-0.312-8.403-7.197-15.124-15.677-15.124c-4.527,0-8.592,1.923-11.456,4.988
			c-2.866-3.065-6.936-4.988-11.462-4.988c-8.478,0-15.364,6.721-15.675,15.124h-0.009v21.144h8.479v-21.14
			c0.073-3.92,3.263-7.08,7.204-7.08c3.977,0,7.196,3.216,7.208,7.186h0.011v21.034h8.482v-21.034h0.004
			c0.021-3.97,3.238-7.186,7.213-7.186c3.941,0,7.133,3.152,7.206,7.076h-0.002v12.423v1.074c0.277,4.278,3.827,7.662,8.175,7.662
			c0.099,0,0.204-0.009,0.307-0.016v-14.776v-6.367H493.899z"/>
		<path fill="#FFFFFF" d="M299.557,136.758c2.4,0,4.346-1.905,4.431-4.284c0-0.058,0.016-0.107,0.016-0.163
			c0-0.08-0.021-0.156-0.024-0.235l-0.027-1.606c-0.778-8.294-7.756-14.786-16.256-14.786c-8.497,0-15.476,6.492-16.254,14.786
			l-0.056,2.867v3.422c0.123,1.939,0.553,3.797,1.293,5.505h-0.014c2.529,5.89,8.384,10.012,15.205,10.012
			c6.814,0,12.669-4.122,15.197-10.012h-8.902c-1.358,2.022-3.677,3.354-6.295,3.354c-2.63,0-4.944-1.332-6.309-3.354h0.011
			c-0.819-1.216-1.289-2.67-1.289-4.243c0-0.432,0.043-0.851,0.043-1.262H299.557z M287.699,122.804
			c3.984,0,7.213,3.231,7.213,7.213c0,0.271-0.02,0.532-0.054,0.797H280.33c-0.026-0.265-0.047-0.526-0.047-0.797
			C280.283,126.035,283.714,122.804,287.699,122.804z"/>
	</g>
</g>
</svg>
