<?xml version="1.0" encoding="utf-8"?>
<!-- Generator: Adobe Illustrator 19.0.0, SVG Export Plug-In . SVG Version: 6.00 Build 0)  -->
<svg version="1.1" id="Livello_1" xmlns="http://www.w3.org/2000/svg" xmlns:xlink="http://www.w3.org/1999/xlink" x="0px" y="0px"
	 viewBox="0 0 10000 8938.651" style="enable-background:new 0 0 10000 8938.651;" xml:space="preserve">
<style type="text/css">
	.st0{fill:#FFFFFF;}
</style>
<g id="XMLID_2182_">
	<path id="XMLID_2183_" class="st0" d="M6816.928,4469.147c0-124.118-101.138-225.354-225.342-225.354
		c-124.303,0-225.441,101.237-225.441,225.354c0,124.475,101.138,225.712,225.441,225.712
		C6715.79,4694.859,6816.928,4593.622,6816.928,4469.147z"/>
	<path id="XMLID_2184_" class="st0" d="M3408.415,4694.859c124.475,0,225.626-101.237,225.626-225.712
		c0-124.118-101.151-225.354-225.626-225.354c-124.204,0-225.354,101.237-225.354,225.354
		C3183.06,4593.622,3284.211,4694.859,3408.415,4694.859z"/>
	<path id="XMLID_2185_" class="st0" d="M7347.522,4469.147c0-124.118-101.052-225.354-225.527-225.354
		c-124.302,0-225.441,101.237-225.441,225.354c0,124.475,101.139,225.712,225.441,225.712
		C7246.47,4694.859,7347.522,4593.622,7347.522,4469.147z"/>
	<path id="XMLID_2186_" class="st0" d="M6341.279,6129.276c87.738,87.898,230.84,87.898,318.665,0
		c42.605-42.519,66.016-99.08,66.016-159.425c0-60.172-23.411-116.906-66.016-159.597c-42.507-42.507-99.166-65.93-159.338-65.93
		c-60.062,0-116.894,23.423-159.326,65.93c-42.864,42.691-66.275,99.425-66.275,159.597
		C6275.004,6030.196,6298.415,6086.757,6341.279,6129.276z"/>
	<path id="XMLID_2187_" class="st0" d="M5000.086,6816.841c124.204,0,225.354-101.41,225.354-225.527
		c0-124.291-101.151-225.342-225.354-225.342c-124.475,0-225.527,101.052-225.527,225.342
		C4774.559,6715.432,4875.611,6816.841,5000.086,6816.841z"/>
	<path id="XMLID_2188_" class="st0" d="M3499.382,6195.193c60.345,0,117.091-23.226,159.597-65.917
		c42.692-42.519,66.029-99.08,66.029-159.425c0-60.172-23.337-116.906-66.029-159.597c-42.507-42.507-99.252-65.93-159.597-65.93
		c-60.074,0-116.819,23.423-159.055,65.93c-42.778,42.691-66.287,99.425-66.287,159.597c0,60.345,23.51,116.906,66.016,159.425
		C3382.563,6171.967,3439.308,6195.193,3499.382,6195.193z"/>
	<path id="XMLID_2189_" class="st0" d="M3103.631,4469.147c0-124.118-101.151-225.354-225.626-225.354
		c-124.204,0-225.527,101.237-225.527,225.354c0,124.475,101.323,225.712,225.527,225.712
		C3002.48,4694.859,3103.631,4593.622,3103.631,4469.147z"/>
	<path id="XMLID_2190_" class="st0" d="M3658.98,2809.376c-87.997-87.898-230.927-87.898-318.924,0
		c-42.507,42.507-66.016,99.08-66.016,159.425c0,60.173,23.51,116.721,66.016,159.597c42.507,42.507,99.252,65.93,159.326,65.93
		c60.345,0,117.091-23.423,159.597-65.93c42.692-42.877,66.029-99.425,66.029-159.597
		C3725.008,2908.455,3701.671,2851.882,3658.98,2809.376z"/>
	<path id="XMLID_2191_" class="st0" d="M5000.086,2121.982c-124.475,0-225.527,100.879-225.527,225.342
		c0,124.302,101.052,225.355,225.527,225.355c124.204,0,225.354-101.052,225.354-225.355
		C5225.441,2222.862,5124.29,2121.982,5000.086,2121.982z"/>
	<path id="XMLID_2192_" class="st0" d="M6500.605,3194.328c60.172,0,116.832-23.423,159.338-65.93
		c42.605-42.877,66.016-99.425,66.016-159.597c0-60.345-23.411-116.918-66.016-159.425c-87.824-87.898-230.927-87.898-318.665,0
		c-42.864,42.507-66.275,99.08-66.275,159.425c0,60.173,23.411,116.721,66.275,159.597
		C6383.712,3170.905,6440.543,3194.328,6500.605,3194.328z"/>
	<path id="XMLID_2193_" class="st0" d="M7652.577,4243.792c-124.204,0-225.441,101.237-225.441,225.354
		c0,124.475,101.237,225.712,225.441,225.712c124.475,0,225.626-101.237,225.626-225.712
		C7878.203,4345.029,7777.052,4243.792,7652.577,4243.792z"/>
	<path id="XMLID_2194_" class="st0" d="M7415.609,5588.499c56.659,20.539,117.806,17.838,172.295-7.742
		c54.489-25.396,96.108-70.614,116.647-127.175c9-24.681,13.598-50.803,13.598-77.099c0-94.395-59.63-179.409-148.256-211.843
		c-56.832-20.526-117.991-18.011-172.48,7.569c-54.662,25.581-96.096,70.614-116.635,127.175
		c-9.283,24.866-13.598,50.988-13.598,77.099C7267.181,5470.878,7326.811,5556.088,7415.609,5588.499z"/>
	<path id="XMLID_2195_" class="st0" d="M7051.738,6398.924c59.803-5.214,114.292-33.507,153.027-79.614
		c34.05-40.707,52.689-91.868,52.689-144.829c0-67.002-29.538-130.06-80.612-172.936c-45.848-38.537-104.565-57.091-164.368-52.048
		c-60.259,5.399-114.305,33.865-153.027,79.983c-34.222,40.35-52.961,91.868-52.961,144.829c0,67.002,29.365,129.69,80.612,172.566
		C6933.032,6385.783,6991.664,6404.336,7051.738,6398.924z"/>
	<path id="XMLID_2196_" class="st0" d="M6521.6,6653.644c-62.145-107.549-200.218-144.644-308.038-82.511
		c-69.529,40.177-112.751,115.291-112.751,195.459c0,39.449,10.442,78.529,30.252,112.579c30.093,52.246,78.812,89.341,137,105.022
		c58.089,15.484,118.878,7.742,171.038-22.523c69.53-40.165,112.665-115.106,112.665-195.447
		C6551.766,6726.958,6541.411,6688.052,6521.6,6653.644z"/>
	<path id="XMLID_2197_" class="st0" d="M5499.787,7303.573c108.079-19.096,186.349-112.406,186.349-221.755
		c0-12.969-1.085-26.48-3.427-39.437c-21.524-122.318-138.788-204.458-261.192-182.835
		c-107.808,19.256-186.435,112.221-186.435,221.743c0,13.142,1.257,26.295,3.6,39.449
		C5260.119,7243.228,5377.383,7325.184,5499.787,7303.573z"/>
	<path id="XMLID_2198_" class="st0" d="M4500.127,7303.573c59.359,10.442,119.162-2.885,168.597-37.292
		c49.46-34.407,82.425-86.283,92.78-145.543c2.429-13.154,3.242-26.308,3.242-39.449c0-109.521-78.184-202.486-186.078-221.743
		c-59.359-10.454-119.162,2.873-168.523,37.095c-49.447,34.777-82.228,86.468-92.854,145.741
		c-2.083,12.957-3.255,26.468-3.255,39.437C4314.037,7191.167,4392.134,7284.477,4500.127,7303.573z"/>
	<path id="XMLID_2199_" class="st0" d="M3732.208,6984.193c58.188-15.681,106.908-52.776,136.902-105.022
		c19.823-34.05,30.08-73.129,30.08-112.579c0-80.168-43.049-155.283-112.579-195.459c-107.82-62.133-246.164-25.038-308.211,82.511
		c-19.638,34.408-30.265,73.314-30.265,112.579c0,80.341,43.419,155.282,112.948,195.447
		C3613.132,6991.935,3673.934,6999.677,3732.208,6984.193z"/>
	<path id="XMLID_2200_" class="st0" d="M3113.087,6346.876c50.976-42.876,80.514-105.564,80.514-172.566
		c0-52.961-18.911-104.479-52.776-144.829c-38.821-46.119-93.039-74.584-153.113-79.983
		c-60.173-5.042-118.434,13.511-164.467,52.048c-51.42,43.247-80.514,105.934-80.514,172.936c0,52.961,18.64,104.122,52.591,144.829
		C2875.219,6414.593,3017.705,6426.859,3113.087,6346.876z"/>
	<path id="XMLID_2201_" class="st0" d="M2733.004,5376.483c0-26.111-4.598-52.233-13.696-77.099
		c-20.452-56.561-61.788-101.594-116.277-127.175c-54.761-25.581-116.191-28.095-172.653-7.569
		c-88.81,32.435-148.441,117.448-148.441,211.843c0,26.295,4.783,52.418,13.697,77.099
		c20.625,56.561,61.788,101.779,116.635,127.175c54.49,25.581,115.735,28.281,172.209,7.742
		C2673.472,5556.088,2733.004,5470.878,2733.004,5376.483z"/>
	<path id="XMLID_2202_" class="st0" d="M2347.423,4243.792c-124.019,0-225.441,101.237-225.441,225.354
		c0,124.475,101.422,225.712,225.441,225.712c124.475,0,225.527-101.237,225.527-225.712
		C2572.95,4345.029,2471.898,4243.792,2347.423,4243.792z"/>
	<path id="XMLID_2203_" class="st0" d="M2719.308,3639.255c9.098-24.853,13.696-50.976,13.696-77.087
		c0-94.395-59.532-179.605-148.527-212.016c-56.474-20.551-117.719-17.654-172.209,7.742
		c-54.847,25.396-96.01,70.614-116.635,127.175c-8.913,24.853-13.697,50.803-13.697,77.099c0,94.21,59.63,179.408,148.527,211.831
		C2547.37,3816.519,2676.887,3755.803,2719.308,3639.255z"/>
	<path id="XMLID_2204_" class="st0" d="M3140.824,2909.17c33.865-40.707,52.776-91.868,52.776-144.828
		c0-66.83-29.538-129.69-80.514-172.924c-95.381-79.799-237.867-67.372-317.765,27.923c-33.951,40.349-52.591,91.868-52.591,144.829
		c0,67.002,29.094,130.047,80.514,172.751c46.032,38.722,104.294,57.103,164.467,51.876
		C3047.786,2983.385,3102.004,2955.474,3140.824,2909.17z"/>
	<path id="XMLID_2205_" class="st0" d="M3478.4,2284.822c30.265,52.246,78.985,89.526,137.173,105.022
		c58.188,15.669,118.706,7.569,171.038-22.523c69.53-39.979,112.579-114.921,112.579-195.435c0-39.277-10.257-78.356-30.08-112.591
		c-62.145-107.537-200.489-144.459-308.026-82.314c-69.53,40.164-112.948,114.921-112.948,195.447
		C3448.135,2211.508,3458.762,2250.6,3478.4,2284.822z"/>
	<path id="XMLID_2206_" class="st0" d="M4668.724,1672.543c-49.435-34.58-109.238-47.906-168.338-37.65
		c-108.251,19.281-186.349,112.591-186.349,221.94c0,13.142,1.171,26.468,3.255,39.264c10.626,59.445,43.407,111.136,92.854,145.544
		c49.361,34.592,109.164,48.104,168.523,37.465c107.894-18.899,186.078-112.221,186.078-221.743c0-13.142-0.813-26.296-3.242-39.449
		C4751.148,1758.481,4718.184,1707.135,4668.724,1672.543z"/>
	<path id="XMLID_2207_" class="st0" d="M5499.787,1634.893c-59.174-10.257-119.162,3.07-168.523,37.65
		c-49.176,34.592-82.227,85.938-92.583,145.371c-2.342,13.154-3.6,26.308-3.6,39.449c0,109.521,78.627,202.844,186.435,221.743
		c59.359,10.639,119.076-2.873,168.609-37.465c49.176-34.407,82.141-86.098,92.583-145.544c2.342-12.796,3.427-26.123,3.427-39.264
		C5686.136,1747.484,5607.866,1654.174,5499.787,1634.893z"/>
	<path id="XMLID_2208_" class="st0" d="M6131.063,2059.295c-19.811,34.592-30.252,73.314-30.252,112.591
		c0,80.514,43.222,155.455,112.751,195.435c52.16,30.093,112.862,38.192,170.964,22.523
		c58.36-15.496,106.994-52.776,137.074-105.022c19.811-34.222,30.167-73.314,30.167-112.394
		c0-80.526-43.135-155.283-112.665-195.447C6331.281,1914.836,6193.208,1951.758,6131.063,2059.295z"/>
	<path id="XMLID_2209_" class="st0" d="M7012.474,2988.796c59.803,5.227,118.521-13.154,164.368-51.876
		c51.075-42.704,80.612-105.749,80.612-172.751c0-52.961-18.64-104.479-52.689-144.829c-38.734-46.119-93.224-74.572-153.027-79.626
		c-60.074-5.4-118.706,13.154-164.64,51.703c-51.247,43.234-80.612,106.094-80.612,172.924c0,52.961,18.911,104.122,52.961,144.828
		C6898.169,2955.474,6952.214,2983.385,7012.474,2988.796z"/>
	<path id="XMLID_2210_" class="st0" d="M7267.181,3562.168c0,26.111,4.315,52.234,13.598,77.087
		c42.519,116.548,172.295,177.263,289.115,134.744c88.625-32.423,148.256-117.621,148.256-211.831
		c0-26.295-4.598-52.246-13.598-77.099c-20.539-56.561-62.158-101.779-116.647-127.175c-54.489-25.396-115.636-28.293-172.295-7.742
		C7326.811,3382.563,7267.181,3467.773,7267.181,3562.168z"/>
	<path id="XMLID_2211_" class="st0" d="M8182.986,4243.792c-124.204,0-225.354,101.237-225.354,225.354
		c0,124.475,101.151,225.712,225.354,225.712c124.475,0,225.614-101.237,225.614-225.712
		C8408.6,4345.029,8307.461,4243.792,8182.986,4243.792z"/>
	<path id="XMLID_2212_" class="st0" d="M8342.94,5134.202c3.07-14.596,4.426-29.353,4.426-44.134
		c0-107.179-76.211-199.947-181.491-221.027c-121.96-24.138-240.839,55.303-265.075,177.251c-2.7,14.423-4.414,29.55-4.414,43.961
		c0,107.179,76.47,200.304,181.578,221.027C8199.826,5335.591,8318.987,5256.15,8342.94,5134.202z"/>
	<path id="XMLID_2213_" class="st0" d="M8149.294,5773.676c11.354-27.553,16.938-56.733,16.938-86.271
		c0-91.338-54.674-173.294-139.158-208.429c-55.562-22.868-116.992-22.868-172.48,0c-55.661,23.066-99.067,66.472-122.121,122.133
		c-11.539,27.738-17.124,56.561-17.124,86.111c0,91.683,54.761,173.466,139.244,208.588
		C7969.429,5943.371,8101.387,5888.61,8149.294,5773.676z"/>
	<path id="XMLID_2214_" class="st0" d="M7521.444,6425.232c103.481,68.987,243.625,41.064,312.624-62.33
		c24.853-37.292,37.822-80.341,37.822-125.19c0-75.484-37.378-145.729-99.881-187.52c-103.493-69-243.637-41.064-312.981,62.145
		c-24.681,37.107-37.834,80.514-37.834,125.375C7421.194,6313.369,7458.843,6383.256,7521.444,6425.232z"/>
	<path id="XMLID_2215_" class="st0" d="M7476.139,6720.104c0-60.16-23.324-116.894-65.843-159.585
		c-87.997-87.911-231.198-87.911-318.837,0c-42.692,42.691-66.016,99.425-66.016,159.585c0,59.988,23.324,116.733,66.016,159.252
		c87.639,88.083,230.84,88.083,318.837,0C7452.815,6836.837,7476.139,6780.092,7476.139,6720.104z"/>
	<path id="XMLID_2216_" class="st0" d="M6893.755,7303.388c62.873-41.964,100.251-112.221,100.251-187.521
		c0-44.676-13.154-87.91-38.093-125.375c-33.507-49.891-84.483-83.941-143.399-95.837c-59.174-11.699-119.149,0.185-169.324,33.692
		c-62.773,41.964-100.152,112.048-100.152,187.705c0,44.676,13.154,87.898,37.908,125.19
		c33.692,49.904,84.496,84.114,143.485,95.837C6783.605,7348.964,6843.679,7336.896,6893.755,7303.388z"/>
	<path id="XMLID_2217_" class="st0" d="M6131.976,7201.793c-84.668,35.135-139.429,116.721-139.429,208.231
		c0,29.908,5.77,58.73,17.296,86.468c47.647,114.749,179.68,169.509,294.699,121.775c84.483-34.95,138.973-116.733,138.973-208.416
		c0-29.55-5.77-58.373-17.111-85.926C6378.842,7208.993,6246.81,7154.245,6131.976,7201.793z"/>
	<path id="XMLID_2218_" class="st0" d="M5577.157,7370.218c-105.293,20.723-181.492,113.664-181.492,220.67
		c0,14.769,1.356,29.723,4.056,44.307c24.323,121.96,143.473,201.389,265.334,177.078
		c105.108-21.081,181.578-113.848,181.578-220.842c0-14.954-1.615-29.735-4.5-44.134
		C5817.995,7425.336,5698.932,7345.907,5577.157,7370.218z"/>
	<path id="XMLID_2219_" class="st0" d="M5000.086,7877.845c124.204,0,225.354-101.064,225.354-225.527
		c0-124.303-101.151-225.354-225.354-225.354c-124.475,0-225.527,101.052-225.527,225.354
		C4774.559,7776.781,4875.611,7877.845,5000.086,7877.845z"/>
	<path id="XMLID_2220_" class="st0" d="M4600.094,7635.194c3.07-14.584,4.512-29.538,4.512-44.307
		c0-107.006-76.286-199.947-181.578-220.67c-59.076-11.884-119.162,0-169.238,33.322c-50.076,33.507-84.027,84.668-95.825,143.756
		c-3.07,14.399-4.426,29.181-4.426,44.134c0,106.994,76.297,199.762,181.59,220.842c59.076,11.884,119.149-0.185,169.226-33.692
		S4588.395,7694.097,4600.094,7635.194z"/>
	<path id="XMLID_2221_" class="st0" d="M3695.729,7618.268c55.574,23.238,117.005,23.238,172.394,0
		c55.932-22.881,99.166-66.115,122.133-121.775c11.342-27.738,17.197-56.561,17.197-86.468c0-91.51-54.489-173.096-139.33-208.231
		c-55.574-23.053-116.82-23.053-172.665,0c-55.389,23.053-98.624,66.3-121.763,122.133c-11.539,27.553-17.296,56.375-17.296,86.098
		C3556.399,7501.535,3611.16,7583.318,3695.729,7618.268z"/>
	<path id="XMLID_2222_" class="st0" d="M3356.896,6928.348c-50.076-33.507-110.15-45.392-169.226-33.692
		c-59.1,11.896-110.162,45.946-143.399,95.837c-24.939,37.465-38.093,80.699-38.093,125.375c0,75.299,37.378,145.556,99.979,187.521
		c103.666,68.987,244.069,41.077,312.883-62.146c24.952-37.292,38.106-80.514,38.106-125.19
		C3457.147,7040.396,3419.584,6970.312,3356.896,6928.348z"/>
	<path id="XMLID_2223_" class="st0" d="M2908.714,6560.519c-87.898-87.738-230.927-87.738-318.924,0
		c-42.42,42.691-66.016,99.425-66.016,159.585c0,59.988,23.596,116.733,66.016,159.252c87.997,88.083,231.025,88.083,318.924,0
		c42.519-42.519,66.115-99.265,66.115-159.252C2974.829,6659.944,2951.233,6603.21,2908.714,6560.519z"/>
	<path id="XMLID_2224_" class="st0" d="M2478.827,6425.232c62.503-41.977,99.98-111.864,99.98-187.705
		c0-44.677-12.969-88.083-37.921-125.19c-68.987-103.394-209.415-131.145-312.624-62.145
		c-62.786,41.792-100.238,112.036-100.238,187.52c0,44.849,13.228,87.898,37.908,125.19
		C2235.202,6466.297,2375.334,6494.219,2478.827,6425.232z"/>
	<path id="XMLID_2225_" class="st0" d="M2145.578,5895.809c84.483-35.122,139.244-116.906,139.244-208.588
		c0-29.55-5.757-58.545-17.111-86.111c-23.066-55.661-66.472-99.067-122.133-122.133c-55.661-22.868-116.82-22.868-172.566,0
		c-84.656,35.135-139.158,117.091-139.158,208.429c0,29.538,5.757,58.718,17.025,86.271
		C1898.711,5888.61,2030.571,5943.371,2145.578,5895.809z"/>
	<path id="XMLID_2226_" class="st0" d="M1922.036,5311.28c105.379-20.723,181.492-113.849,181.492-221.027
		c0-14.412-1.356-29.538-4.426-43.961c-24.138-121.948-142.93-201.389-265.063-177.251
		c-105.022,21.081-181.221,113.848-181.221,221.027c0,14.781,1.356,29.538,4.413,44.134
		C1681.197,5256.15,1800.075,5335.591,1922.036,5311.28z"/>
	<path id="XMLID_2227_" class="st0" d="M1817.014,4694.859c124.204,0,225.355-101.237,225.355-225.712
		c0-124.118-101.151-225.354-225.355-225.354s-225.342,101.237-225.342,225.354
		C1591.672,4593.622,1692.81,4694.859,1817.014,4694.859z"/>
	<path id="XMLID_2228_" class="st0" d="M1657.232,3804.449c-3.057,14.411-4.413,29.353-4.413,43.949
		c0,107.179,76.199,200.132,181.221,221.028c122.133,24.323,240.925-55.118,265.063-177.078c3.07-14.411,4.426-29.538,4.426-44.307
		c0-106.822-76.113-199.947-181.492-220.67C1800.075,3603.06,1681.197,3682.489,1657.232,3804.449z"/>
	<path id="XMLID_2229_" class="st0" d="M1973.012,3042.842c-55.574,23.053-98.981,66.645-122.133,122.133
		c-11.268,27.553-17.025,56.561-17.025,86.271c0,91.51,54.502,173.294,139.158,208.243c55.747,23.053,116.906,23.053,172.566,0
		c55.661-22.881,99.067-66.287,122.133-121.948c11.354-27.565,17.111-56.561,17.111-86.295c0-91.51-54.76-173.281-139.244-208.404
		C2089.917,3019.961,2028.759,3019.961,1973.012,3042.842z"/>
	<path id="XMLID_2230_" class="st0" d="M2478.827,2513.419c-103.493-69.172-243.625-41.249-312.895,62.33
		c-24.68,37.095-37.908,80.341-37.908,124.833c0,75.656,37.452,145.729,100.238,187.878c103.209,69,243.637,41.064,312.624-62.502
		c24.952-37.119,37.921-80.341,37.921-124.833C2578.806,2625.64,2541.329,2555.211,2478.827,2513.419z"/>
	<path id="XMLID_2231_" class="st0" d="M2523.774,2218.72c0,59.988,23.596,116.721,66.016,159.24
		c42.519,42.507,99.351,66.115,159.339,66.115c60.518,0,117.177-23.608,159.585-66.115c42.519-42.519,66.115-99.252,66.115-159.24
		c0-60.518-23.596-116.918-66.115-159.425c-87.898-88.083-230.927-88.083-318.924,0
		C2547.37,2101.802,2523.774,2158.202,2523.774,2218.72z"/>
	<path id="XMLID_2232_" class="st0" d="M3106.158,1635.251c-62.601,41.804-99.979,112.234-99.979,187.705
		c0,44.492,13.154,87.738,38.093,125.203c33.507,49.891,84.299,83.941,143.399,95.825c59.075,11.711,119.149-0.542,169.226-33.68
		c62.688-41.964,100.251-112.234,100.251-187.705c0-44.677-13.154-88.083-38.106-125.018
		c-33.224-50.076-84.483-84.298-143.374-96.01C3216.493,1589.687,3156.506,1601.756,3106.158,1635.251z"/>
	<path id="XMLID_2233_" class="st0" d="M3695.458,1736.858c55.845,23.053,117.276,23.053,172.665,0
		c84.841-35.135,139.33-116.906,139.33-208.416c0-29.723-5.856-58.545-17.197-86.111
		c-47.463-114.921-179.865-169.682-294.798-121.948c-84.299,34.95-139.059,116.733-139.059,208.058
		c0,29.723,5.757,58.718,17.197,86.283C3596.835,1670.558,3640.069,1713.62,3695.458,1736.858z"/>
	<path id="XMLID_2234_" class="st0" d="M4253.79,1534.741c50.076,33.692,110.163,45.576,169.238,33.692
		c105.292-20.723,181.578-113.849,181.578-220.67c0-14.769-1.442-29.723-4.512-44.307c-11.699-59.088-45.663-110.249-95.739-143.386
		c-50.076-33.507-110.15-45.589-169.226-33.877c-105.293,21.266-181.59,113.849-181.59,221.028c0,14.769,1.356,29.55,4.426,44.134
		C4169.763,1450.443,4203.714,1501.604,4253.79,1534.741z"/>
	<path id="XMLID_2235_" class="st0" d="M5000.086,1060.806c-124.475,0-225.527,101.052-225.527,225.527
		c0,124.303,101.052,225.355,225.527,225.355c124.204,0,225.354-101.052,225.354-225.355
		C5225.441,1161.858,5124.29,1060.806,5000.086,1060.806z"/>
	<path id="XMLID_2236_" class="st0" d="M5399.721,1303.457c-2.7,14.584-4.056,29.538-4.056,44.307
		c0,106.822,76.199,199.947,181.492,220.67c121.775,24.311,240.838-55.118,264.977-177.078c2.885-14.584,4.5-29.365,4.5-44.134
		c0-107.179-76.47-199.762-181.578-221.028C5543.193,1102.068,5424.044,1181.497,5399.721,1303.457z"/>
	<path id="XMLID_2237_" class="st0" d="M6304.542,1320.383c-115.02-47.734-247.052,7.027-294.699,121.948
		c-11.527,27.565-17.296,56.388-17.296,86.111c0,91.51,54.761,173.281,139.429,208.416
		c114.563,47.549,246.867-7.199,294.428-122.133c11.342-27.565,17.111-56.561,17.111-86.283
		C6443.515,1437.116,6389.025,1355.333,6304.542,1320.383z"/>
	<path id="XMLID_2238_" class="st0" d="M6643.19,2010.304c103.493,68.987,243.625,41.077,312.723-62.145
		c24.939-37.465,38.093-80.711,38.093-125.203c0-75.472-37.378-145.901-100.251-187.705c-50.076-33.495-110.15-45.564-169.324-33.68
		c-59.174,11.712-109.792,45.934-143.485,96.01c-24.754,36.934-37.908,80.341-37.908,125.018
		C6543.038,1898.07,6580.417,1968.339,6643.19,2010.304z"/>
	<path id="XMLID_2239_" class="st0" d="M7091.458,2377.96c42.507,42.507,99.067,66.115,159.326,66.115
		s116.906-23.608,159.511-66.115c42.519-42.519,65.843-99.252,65.843-159.24c0-60.518-23.324-116.918-65.843-159.425
		c-87.997-88.083-231.198-88.083-318.837,0c-42.692,42.507-66.016,98.907-66.016,159.425
		C7025.442,2278.708,7048.767,2335.441,7091.458,2377.96z"/>
	<path id="XMLID_2240_" class="st0" d="M7521.444,2513.419c-62.601,41.792-100.25,111.864-100.25,187.705
		c0,44.491,13.154,88.083,37.834,124.833c69.344,103.567,209.488,131.502,312.981,62.502
		c62.502-42.149,99.881-112.221,99.881-187.878c0-44.491-12.969-87.738-37.822-124.833
		C7765.069,2472.17,7624.925,2444.247,7521.444,2513.419z"/>
	<path id="XMLID_2241_" class="st0" d="M8027.075,3042.842c-55.562-22.881-116.992-22.881-172.48,0
		c-84.483,35.122-139.244,116.894-139.244,208.404c0,29.735,5.584,58.73,17.124,86.295c23.053,55.661,66.46,99.067,122.121,121.948
		c55.488,23.053,116.918,23.053,172.48,0c84.483-34.95,139.158-116.733,139.158-208.243c0-29.71-5.584-58.718-16.938-86.271
		C8126.154,3109.487,8082.735,3065.895,8027.075,3042.842z"/>
	<path id="XMLID_2242_" class="st0" d="M7896.386,3848.041c0,14.769,1.713,29.895,4.414,44.307
		c24.236,121.96,143.115,201.401,265.075,177.078c105.28-20.896,181.491-113.848,181.491-221.028
		c0-14.596-1.355-29.538-4.426-43.949c-23.953-121.96-143.114-201.389-264.976-177.079
		C7972.856,3648.094,7896.386,3741.219,7896.386,3848.041z"/>
	<path id="XMLID_2243_" class="st0" d="M8713.666,4243.792c-124.302,0-225.44,101.237-225.44,225.354
		c0,124.475,101.139,225.712,225.44,225.712c124.192,0,225.343-101.237,225.343-225.712
		C8939.009,4345.029,8837.858,4243.792,8713.666,4243.792z"/>
	<path id="XMLID_2244_" class="st0" d="M8679.16,5020.896c-58.816-12.612-119.149-1.442-169.496,31.35
		c-50.532,32.78-85.112,83.398-97.724,142.301c-3.156,15.497-4.956,31.35-4.956,47.019c0,105.737,75.016,198.332,178.693,220.3
		c58.903,12.426,119.162,1.442,169.78-31.338c50.249-32.78,84.928-83.411,97.366-142.301c3.501-15.496,5.029-31.165,5.029-47.019
		C8857.854,5135.644,8782.839,5042.691,8679.16,5020.896z"/>
	<path id="XMLID_2245_" class="st0" d="M8484.354,5773.861c-113.663-50.606-247.138,0.728-297.67,114.021
		c-13.253,29.365-19.639,59.988-19.639,91.695c0,89.168,52.418,169.867,133.931,206.074
		c113.393,50.803,247.052-0.542,297.584-114.206c12.969-28.995,19.453-59.976,19.453-91.683
		C8618.014,5890.952,8565.596,5809.884,8484.354,5773.861z"/>
	<path id="XMLID_2246_" class="st0" d="M8136.781,6469.539c-100.596-72.957-241.738-50.619-314.781,50.076
		c-28.108,38.734-43.062,84.483-43.062,132.415c0,72.044,34.592,140.132,92.953,182.466c48.818,35.479,108.35,49.718,167.709,40.177
		c59.63-9.369,111.777-41.434,147.344-90.253c27.935-38.722,42.876-84.311,42.876-132.217
		C8229.819,6580.145,8195.24,6511.873,8136.781,6469.539z"/>
	<path id="XMLID_2247_" class="st0" d="M7333.924,7061.292c-47.29,42.864-74.67,103.937-74.67,167.697
		c0,56.018,20.81,109.521,58.188,150.783c40.25,44.849,95.467,71.157,155.628,74.214c60.16,3.415,118.089-17.124,162.581-57.288
		c47.647-42.692,74.67-103.937,74.67-167.709c0-55.833-20.723-109.336-58.003-150.943
		C7569.178,6985.808,7426.236,6978.251,7333.924,7061.292z"/>
	<path id="XMLID_2248_" class="st0" d="M6915.009,7467.498c-58.176-15.681-118.878-7.569-170.939,22.511
		c-69.443,40.165-112.85,115.291-112.85,195.632c0,39.08,10.626,78.184,30.253,112.394
		c62.33,107.721,200.403,144.841,308.025,82.683c69.542-40.164,112.677-115.093,112.677-195.435
		c0-39.449-10.441-78.369-29.994-112.591C7021.929,7520.458,6973.283,7482.981,6915.009,7467.498z"/>
	<path id="XMLID_2249_" class="st0" d="M6078.016,7786.692c-93.31,30.265-155.899,116.363-155.899,214.358
		c0,23.781,3.686,47.019,11.07,69.714c38.365,118.164,165.823,183.193,283.986,144.644
		c93.31-30.252,155.899-116.178,155.899-214.173c0-23.781-3.686-47.191-11.07-69.714
		C6323.724,7813.173,6196.278,7748.328,6078.016,7786.692z"/>
	<path id="XMLID_2250_" class="st0" d="M5364.771,7938.19c-115.291,12.241-202.116,108.621-202.116,224.084
		c0,7.927,0.456,15.841,1.27,23.596c13.056,123.748,124.291,213.828,247.952,200.674
		c115.204-11.896,201.759-108.264,201.759-223.913c0-7.927-0.284-15.681-1.171-23.768
		C5599.31,8015.277,5488.26,7925.221,5364.771,7938.19z"/>
	<path id="XMLID_2251_" class="st0" d="M4836.076,8185.871c0.727-7.754,1.27-15.668,1.27-23.596
		c0-115.463-86.924-211.843-201.944-224.084c-59.704-6.312-118.607,11.341-165.441,49.176
		c-46.76,37.822-76.113,91.683-82.24,151.498c-0.9,8.087-1.442,15.841-1.442,23.768c0,115.649,86.912,212.016,202.117,223.913
		c59.803,6.484,118.435-10.984,165.268-48.991C4800.583,8299.719,4829.949,8246.043,4836.076,8185.871z"/>
	<path id="XMLID_2252_" class="st0" d="M3922.156,7786.692c-118.25-38.365-245.609,26.48-284.159,144.829
		c-7.212,22.523-11.169,45.934-11.169,69.714c0,97.995,62.872,183.92,155.911,214.173c118.434,38.55,245.708-26.48,284.245-144.644
		c7.212-22.696,11.083-45.934,11.083-69.529C4078.068,7903.056,4015.467,7816.958,3922.156,7786.692z"/>
	<path id="XMLID_2253_" class="st0" d="M3256.029,7490.008c-52.16-30.08-112.948-38.192-171.038-22.511
		c-58.286,15.484-106.822,52.96-137,105.194c-19.91,34.222-30.265,73.142-30.265,112.591c0,80.341,43.148,155.271,112.948,195.435
		c107.537,62.158,245.609,25.038,307.755-82.683c19.823-34.21,30.351-73.314,30.351-112.394
		C3368.78,7604.941,3325.46,7530.173,3256.029,7490.008z"/>
	<path id="XMLID_2254_" class="st0" d="M2347.608,7078.23c-37.378,41.422-57.917,94.925-57.917,150.758
		c0,63.772,27.195,125.018,74.572,167.709c44.849,40.164,102.495,60.703,162.753,57.288c60.074-3.057,115.463-29.365,155.64-74.214
		c37.465-41.262,57.904-94.765,57.904-150.783c0-63.76-27.195-124.833-74.473-167.697
		C2573.764,6978.251,2430.994,6985.808,2347.608,7078.23z"/>
	<path id="XMLID_2255_" class="st0" d="M1960.4,6874.672c59.531,9.542,119.162-4.697,168.067-40.177
		c58.003-42.334,92.854-110.421,92.854-182.466c0-47.931-14.941-93.68-43.135-132.415c-35.406-48.806-87.726-80.698-147.085-90.425
		c-59.704-9.184-119.162,5.042-167.882,40.35c-58.188,42.334-93.039,110.606-93.039,182.663c0,47.907,14.954,93.495,43.148,132.217
		C1848.894,6833.238,1900.77,6865.303,1960.4,6874.672z"/>
	<path id="XMLID_2256_" class="st0" d="M1813.501,5887.882c-50.52-113.293-184.007-164.627-297.584-114.021
		c-81.327,36.022-134.029,117.091-134.029,205.901c0,31.707,6.768,62.688,19.638,91.683
		c50.89,113.664,184.105,165.009,297.682,114.206c81.327-36.207,133.746-116.906,133.746-206.074
		C1832.954,5947.87,1826.383,5917.248,1813.501,5887.882z"/>
	<path id="XMLID_2257_" class="st0" d="M1593.287,5241.566c0-15.669-1.899-31.522-5.042-47.019
		c-25.938-121.59-146.012-199.589-267.504-173.651c-103.666,21.795-178.693,114.748-178.693,220.312
		c0,15.854,1.8,31.522,5.054,47.019c12.414,58.891,47.364,109.521,97.711,142.301c50.532,32.78,110.791,43.764,169.694,31.338
		C1517.988,5439.897,1593.287,5347.303,1593.287,5241.566z"/>
	<path id="XMLID_2258_" class="st0" d="M1511.861,4469.147c0-124.118-101.052-225.354-225.256-225.354
		c-124.475,0-225.614,101.237-225.614,225.354c0,124.475,101.138,225.712,225.614,225.712
		C1410.809,4694.859,1511.861,4593.622,1511.861,4469.147z"/>
	<path id="XMLID_2259_" class="st0" d="M1320.741,3917.755c121.775,25.938,241.566-52.061,267.504-173.651
		c3.144-15.496,5.042-31.165,5.042-47.019c0-105.922-75.299-198.504-178.78-220.312c-121.504-25.926-241.479,51.888-267.405,173.651
		c-3.255,15.496-5.054,31.165-5.054,47.019C1142.047,3803.007,1217.075,3895.775,1320.741,3917.755z"/>
	<path id="XMLID_2260_" class="st0" d="M1515.917,3164.79c113.577,50.791,247.064-0.728,297.584-114.391
		c12.883-28.823,19.453-59.803,19.453-91.325c0-89.168-52.418-169.867-133.746-206.259c-54.946-24.496-116.363-26.123-172.48-4.327
		c-56.117,21.45-100.694,63.6-125.202,118.718c-12.87,28.995-19.638,59.975-19.638,91.683
		C1381.887,3047.699,1434.589,3128.571,1515.917,3164.79z"/>
	<path id="XMLID_2261_" class="st0" d="M1863.219,2469.1c100.608,72.969,241.652,50.446,314.966-49.891
		c28.194-38.907,43.135-84.841,43.135-132.587c0-71.872-34.851-140.144-92.854-182.478c-48.905-35.48-108.535-49.533-168.067-40.349
		c-59.347,9.381-111.506,41.619-146.9,90.253c-28.367,38.907-43.32,84.483-43.32,132.402
		C1770.18,2358.321,1805.031,2426.593,1863.219,2469.1z"/>
	<path id="XMLID_2262_" class="st0" d="M2666.088,1877.359c47.278-42.864,74.473-104.122,74.473-167.697
		c0-56.018-20.44-109.521-57.904-150.955c-40.177-44.677-95.566-70.984-155.64-74.399c-60.259-3.07-117.904,17.481-162.753,57.83
		c-47.376,42.507-74.572,103.752-74.572,167.524c0,55.833,20.538,109.336,57.917,150.758
		C2430.736,1953.016,2573.764,1960.4,2666.088,1877.359z"/>
	<path id="XMLID_2263_" class="st0" d="M3256.029,1448.643c69.431-40.349,112.751-115.291,112.751-195.632
		c0-39.08-10.528-78.184-30.351-112.394c-29.994-52.246-78.714-89.538-136.902-105.022c-58.003-15.669-118.706-7.754-170.853,22.338
		c-69.801,40.164-112.948,115.094-112.948,195.435c0,39.449,10.355,78.356,30.265,112.591
		C3010.05,1473.681,3148.394,1510.788,3256.029,1448.643z"/>
	<path id="XMLID_2264_" class="st0" d="M3782.74,723.058c-93.039,30.253-155.911,116.363-155.911,214.358
		c0,23.411,3.957,47.019,11.169,69.714c38.55,118.348,165.909,183.021,284.159,144.828
		c93.31-30.265,155.911-116.363,155.911-214.543c0-23.596-3.871-47.191-11.083-69.53
		C4028.448,749.723,3901.174,684.693,3782.74,723.058z"/>
	<path id="XMLID_2265_" class="st0" d="M4635.401,1000.461c115.02-12.242,201.944-108.621,201.944-224.257
		c0-7.939-0.542-15.866-1.27-23.781c-6.127-59.815-35.492-113.491-82.413-151.683c-46.833-37.65-105.465-55.118-165.268-48.991
		c-115.205,12.254-202.117,108.621-202.117,224.27c0,7.927,0.542,15.669,1.442,23.768
		C4400.604,923.362,4511.74,1013.43,4635.401,1000.461z"/>
	<path id="XMLID_2266_" class="st0" d="M5163.924,752.423c-0.813,7.915-1.27,15.841-1.27,23.781
		c0,115.636,86.826,212.016,202.116,224.257c123.489,12.969,234.539-77.099,247.693-200.674c0.888-8.099,1.171-15.841,1.171-23.768
		c0-115.648-86.555-212.016-201.759-224.27C5288.215,538.953,5176.98,628.848,5163.924,752.423z"/>
	<path id="XMLID_2267_" class="st0" d="M6078.016,1151.959c118.262,38.192,245.708-26.48,283.986-144.828
		c7.384-22.696,11.07-46.304,11.07-69.714c0-97.995-62.589-184.105-155.899-214.358c-118.163-38.365-245.622,26.665-283.986,144.829
		c-7.384,22.338-11.07,45.934-11.07,69.714C5922.117,1035.596,5984.706,1121.694,6078.016,1151.959z"/>
	<path id="XMLID_2268_" class="st0" d="M6744.07,1448.643c107.721,62.145,245.794,25.038,308.112-82.683
		c19.552-34.235,29.994-73.142,29.994-112.591c0-80.341-43.135-155.27-112.677-195.435
		c-52.135-30.092-112.936-38.007-171.038-22.338c-58.175,15.484-106.723,52.776-136.988,105.022
		c-19.626,34.21-30.253,73.314-30.253,112.394C6631.22,1333.352,6674.626,1408.294,6744.07,1448.643z"/>
	<path id="XMLID_2269_" class="st0" d="M7652.318,1860.421c37.28-41.422,58.003-94.925,58.003-150.758
		c0-63.772-27.023-125.018-74.67-167.524c-44.492-40.349-102.42-60.9-162.581-57.83c-60.161,3.415-115.377,29.723-155.628,74.399
		c-37.378,41.434-58.188,94.937-58.188,150.955c0,63.575,27.38,124.833,74.67,167.697
		C7426.236,1960.4,7569.178,1953.016,7652.318,1860.421z"/>
	<path id="XMLID_2270_" class="st0" d="M8039.6,2063.795c-59.359-9.184-118.891,4.869-167.709,40.349
		c-58.36,42.334-92.953,110.606-92.953,182.478c0,47.746,14.954,93.68,43.062,132.587c73.043,100.337,214.186,122.86,314.781,49.891
		c58.459-42.507,93.039-110.779,93.039-182.651c0-47.919-14.941-93.495-42.876-132.402
		C8151.377,2105.414,8099.23,2073.176,8039.6,2063.795z"/>
	<path id="XMLID_2271_" class="st0" d="M8186.685,3050.399c50.532,113.663,184.007,165.182,297.67,114.391
		c81.241-36.219,133.659-117.091,133.659-205.901c0-31.708-6.484-62.688-19.453-91.683
		c-24.681-55.118-68.987-97.268-125.375-118.718c-56.117-21.796-117.264-20.168-172.209,4.327
		c-81.513,36.392-133.931,117.091-133.931,206.259C8167.046,2990.596,8173.432,3021.576,8186.685,3050.399z"/>
	<path id="XMLID_2272_" class="st0" d="M8406.984,3697.085c0,15.669,1.8,31.522,4.956,47.019
		c25.667,121.59,145.814,199.589,267.22,173.651c103.679-21.981,178.693-114.748,178.693-220.312
		c0-15.854-1.528-31.522-5.029-47.019c-12.438-59.26-47.117-109.521-97.366-142.302c-50.618-32.78-110.877-43.764-169.78-31.35
		C8482,3498.581,8406.984,3591.164,8406.984,3697.085z"/>
	<path id="XMLID_2273_" class="st0" d="M9243.989,4243.792c-124.204,0-225.354,101.237-225.354,225.354
		c0,124.475,101.15,225.712,225.354,225.712c124.463,0,225.613-101.237,225.613-225.712
		C9469.603,4345.029,9368.452,4243.792,9243.989,4243.792z"/>
	<path id="XMLID_2274_" class="st0" d="M7841.453,7310.772c-42.519,42.691-66.029,99.252-66.029,159.597
		c0,60.173,23.51,116.733,66.029,159.252c87.984,88.083,231.111,88.083,318.923,0c42.692-42.519,66.201-99.08,66.201-159.252
		c0-60.345-23.509-116.906-66.201-159.597C8072.564,7223.047,7929.438,7223.047,7841.453,7310.772z"/>
	<path id="XMLID_2275_" class="st0" d="M5000.086,8487.954c-124.475,0-225.527,101.237-225.527,225.354
		c0,124.291,101.052,225.343,225.527,225.343c124.204,0,225.354-101.052,225.354-225.343
		C5225.441,8589.191,5124.29,8487.954,5000.086,8487.954z"/>
	<path id="XMLID_2276_" class="st0" d="M1839.611,7310.772c-42.766,42.691-66.016,99.252-66.016,159.597
		c0,60.173,23.25,116.733,66.016,159.252c87.738,88.083,230.939,88.083,318.936,0c42.519-42.519,66.028-99.08,66.028-159.252
		c0-60.345-23.509-116.906-66.028-159.597C2070.55,7223.047,1927.349,7223.047,1839.611,7310.772z"/>
	<path id="XMLID_2277_" class="st0" d="M755.924,4243.792c-124.192,0-225.342,101.237-225.342,225.354
		c0,124.475,101.151,225.712,225.342,225.712c124.475,0,225.355-101.237,225.355-225.712
		C981.279,4345.029,880.399,4243.792,755.924,4243.792z"/>
	<path id="XMLID_2278_" class="st0" d="M1998.95,1693.624c60.16,0,116.819-23.238,159.597-65.745
		c42.519-42.692,66.028-99.437,66.028-159.597c0-60.173-23.509-116.918-66.028-159.61c-87.997-87.726-231.198-87.726-318.936,0
		c-42.766,42.692-66.016,99.437-66.016,159.61c0,60.16,23.25,116.906,66.016,159.597
		C1882.13,1670.386,1938.876,1693.624,1998.95,1693.624z"/>
	<path id="XMLID_2279_" class="st0" d="M5000.086,450.697c124.204,0,225.354-100.879,225.354-225.355
		C5225.441,101.052,5124.29,0,5000.086,0c-124.475,0-225.527,101.052-225.527,225.342
		C4774.559,349.817,4875.611,450.697,5000.086,450.697z"/>
	<path id="XMLID_2280_" class="st0" d="M8001.05,1693.624c60.16,0,117.079-23.238,159.326-65.745
		c42.692-42.692,66.201-99.437,66.201-159.597c0-60.173-23.509-116.918-66.201-159.61c-87.812-87.726-230.939-87.726-318.923,0
		c-42.519,42.692-66.029,99.437-66.029,159.61c0,60.16,23.51,116.906,66.029,159.597
		C7884.145,1670.386,7940.705,1693.624,8001.05,1693.624z"/>
	<path id="XMLID_2281_" class="st0" d="M9774.658,4243.792c-124.463,0-225.713,101.237-225.713,225.354
		c0,124.475,101.25,225.712,225.713,225.712c124.475,0,225.342-101.237,225.342-225.712
		C10000,4345.029,9899.133,4243.792,9774.658,4243.792z"/>
	<path id="XMLID_2282_" class="st0" d="M225.527,4243.792C101.138,4243.792,0,4345.029,0,4469.147
		c0,124.475,101.138,225.712,225.527,225.712c124.29,0,225.342-101.237,225.342-225.712
		C450.869,4345.029,349.817,4243.792,225.527,4243.792z"/>
</g>
<path id="XMLID_1252_" class="st0" d="M4521.814,4080.634v-141.955v-288.955h286.379h1047.981v-367.635c-32.195,0-64.398,0-96.594,0
	c-80.527,0-161.054,0-241.581,0c-104.844,0-209.674,0-314.518,0c-194.997,0-390.039-1.648-585.188-1.284
	c-67.771,0.129-153.943-4.968-217.909,5.819c-112.912,19.045-203.718,109.699-239.332,218.372
	c-18.438,56.278-17.169,119.218-17.101,178.018c0.152,130.666,0.608,261.067,0.608,391.756c0,119.195,0,238.382,0,357.577
	c0,127.666,0,255.331,0,382.989c0,120.045,0,240.091,0,360.129c0,96.336,0,192.657,0,288.985c0,56.521,0,113.034,0,169.555
	c0,8.311,0,16.622,0,24.933h377.253v-884.611l0,0v-56.672l0,0v-159.725c10.803,0.015,21.605,0.038,32.408,0.053
	c28.116,0.046,56.232,0.099,84.355,0.145c39.048,0.068,78.096,0.129,117.151,0.197c43.599,0.076,87.189,0.152,130.788,0.228
	c35.629,0.061,71.258-0.835,106.88-0.266c37.384,0.592,75.406-0.791,112.791-0.198c16.447,0.258,33.434-0.258,49.881,0
	c68.061,1.071,134.123,2.933,197.336-25.168c11.145-4.953,22-10.521,32.53-16.675c43.978-25.723,81.864-61.58,109.987-104.077
	c28.716-43.416,46.934-93.457,52.829-145.184c1.436-12.657,2.157-25.396,2.157-38.136c0-11.289-0.509-22.138-1.74-33.084h-663.177
	h-364.179v-58.572V4080.634z"/>
<g id="XMLID_1_">
</g>
<g id="XMLID_2_">
</g>
<g id="XMLID_3_">
</g>
<g id="XMLID_4_">
</g>
<g id="XMLID_5_">
</g>
<g id="XMLID_6_">
</g>
<g id="XMLID_7_">
</g>
<g id="XMLID_8_">
</g>
<g id="XMLID_9_">
</g>
<g id="XMLID_10_">
</g>
<g id="XMLID_11_">
</g>
<g id="XMLID_12_">
</g>
<g id="XMLID_13_">
</g>
<g id="XMLID_14_">
</g>
<g id="XMLID_15_">
</g>
</svg>
