<?xml version="1.0" encoding="utf-8"?>
<!-- Generator: Adobe Illustrator 19.0.0, SVG Export Plug-In . SVG Version: 6.00 Build 0)  -->
<svg version="1.1" id="Livello_1" xmlns="http://www.w3.org/2000/svg" xmlns:xlink="http://www.w3.org/1999/xlink" x="0px" y="0px"
	 viewBox="0 0 10000 3781.26" style="enable-background:new 0 0 10000 3781.26;" xml:space="preserve">
<style type="text/css">
	.st0{fill:url(#XMLID_17_);}
	.st1{fill:url(#XMLID_18_);}
	.st2{fill:url(#XMLID_19_);}
	.st3{fill:url(#XMLID_20_);}
	.st4{fill:url(#XMLID_21_);}
	.st5{fill:url(#XMLID_22_);}
	.st6{fill:url(#XMLID_23_);}
	.st7{fill:url(#XMLID_24_);}
	.st8{fill:url(#XMLID_25_);}
	.st9{fill:url(#XMLID_26_);}
	.st10{fill:url(#XMLID_27_);}
	.st11{fill:url(#XMLID_28_);}
	.st12{fill:url(#XMLID_29_);}
	.st13{fill:url(#XMLID_30_);}
	.st14{fill:url(#XMLID_31_);}
	.st15{fill:url(#XMLID_32_);}
	.st16{fill:url(#XMLID_33_);}
	.st17{fill:url(#XMLID_34_);}
	.st18{fill:url(#XMLID_35_);}
	.st19{fill:url(#XMLID_36_);}
	.st20{fill:url(#XMLID_37_);}
	.st21{fill:url(#XMLID_38_);}
	.st22{fill:url(#XMLID_39_);}
	.st23{fill:url(#XMLID_40_);}
	.st24{fill:url(#XMLID_41_);}
	.st25{fill:url(#XMLID_42_);}
	.st26{fill:url(#XMLID_43_);}
	.st27{fill:url(#XMLID_44_);}
	.st28{fill:url(#XMLID_45_);}
	.st29{fill:url(#XMLID_46_);}
	.st30{fill:url(#XMLID_47_);}
	.st31{fill:url(#XMLID_48_);}
	.st32{fill:url(#XMLID_49_);}
	.st33{fill:url(#XMLID_50_);}
	.st34{fill:url(#XMLID_51_);}
	.st35{fill:url(#XMLID_52_);}
	.st36{fill:url(#XMLID_53_);}
	.st37{fill:url(#XMLID_54_);}
	.st38{fill:url(#XMLID_55_);}
	.st39{fill:url(#XMLID_56_);}
	.st40{fill:url(#XMLID_57_);}
	.st41{fill:url(#XMLID_58_);}
	.st42{fill:url(#XMLID_59_);}
	.st43{fill:url(#XMLID_60_);}
	.st44{fill:url(#XMLID_61_);}
	.st45{fill:url(#XMLID_62_);}
	.st46{fill:url(#XMLID_63_);}
	.st47{fill:url(#XMLID_64_);}
	.st48{fill:url(#XMLID_65_);}
	.st49{fill:url(#XMLID_66_);}
	.st50{fill:url(#XMLID_67_);}
	.st51{fill:url(#XMLID_68_);}
	.st52{fill:url(#XMLID_69_);}
	.st53{fill:url(#XMLID_70_);}
	.st54{fill:url(#XMLID_71_);}
	.st55{fill:url(#XMLID_72_);}
	.st56{fill:url(#XMLID_73_);}
	.st57{fill:url(#XMLID_74_);}
	.st58{fill:url(#XMLID_75_);}
	.st59{fill:url(#XMLID_76_);}
	.st60{fill:url(#XMLID_77_);}
	.st61{fill:url(#XMLID_78_);}
	.st62{fill:url(#XMLID_79_);}
	.st63{fill:url(#XMLID_80_);}
	.st64{fill:url(#XMLID_81_);}
	.st65{fill:url(#XMLID_82_);}
	.st66{fill:url(#XMLID_83_);}
	.st67{fill:url(#XMLID_84_);}
	.st68{fill:url(#XMLID_85_);}
	.st69{fill:url(#XMLID_86_);}
	.st70{fill:url(#XMLID_87_);}
	.st71{fill:url(#XMLID_88_);}
	.st72{fill:url(#XMLID_89_);}
	.st73{fill:url(#XMLID_90_);}
	.st74{fill:url(#XMLID_91_);}
	.st75{fill:url(#XMLID_92_);}
	.st76{fill:url(#XMLID_93_);}
	.st77{fill:url(#XMLID_94_);}
	.st78{fill:url(#XMLID_95_);}
	.st79{fill:url(#XMLID_96_);}
	.st80{fill:url(#XMLID_97_);}
	.st81{fill:url(#XMLID_98_);}
	.st82{fill:url(#XMLID_99_);}
	.st83{fill:url(#XMLID_100_);}
	.st84{fill:url(#XMLID_101_);}
	.st85{fill:url(#XMLID_102_);}
	.st86{fill:url(#XMLID_103_);}
	.st87{fill:url(#XMLID_104_);}
	.st88{fill:url(#XMLID_106_);}
	.st89{fill:url(#XMLID_107_);}
	.st90{fill:url(#XMLID_108_);}
	.st91{fill:url(#XMLID_112_);}
	.st92{fill:url(#XMLID_113_);}
	.st93{fill:url(#XMLID_114_);}
	.st94{fill:url(#XMLID_115_);}
	.st95{fill:url(#XMLID_116_);}
	.st96{fill:url(#XMLID_117_);}
	.st97{fill:url(#XMLID_118_);}
	.st98{fill:url(#XMLID_119_);}
	.st99{fill:url(#XMLID_120_);}
	.st100{fill:#EB274A;}
</style>
<g id="XMLID_1149_">
	<g id="XMLID_1150_">
		<g id="XMLID_1151_">
			<radialGradient id="XMLID_17_" cx="2080.1492" cy="1866.9795" r="1834.5334" gradientUnits="userSpaceOnUse">
				<stop  offset="0" style="stop-color:#EA2749"/>
				<stop  offset="0.4258" style="stop-color:#EE4B41"/>
				<stop  offset="0.7773" style="stop-color:#F0623C"/>
				<stop  offset="1" style="stop-color:#F16A3A"/>
			</radialGradient>
			<path id="XMLID_1152_" class="st0" d="M4101.3,1780.657c-52.229,0-94.674,42.442-94.674,94.581
				c0,52.179,42.445,94.625,94.674,94.625c52.226,0,94.556-42.445,94.556-94.625
				C4195.856,1823.099,4153.526,1780.657,4101.3,1780.657z"/>
			<radialGradient id="XMLID_18_" cx="2080.1689" cy="1866.9795" r="1834.5265" gradientUnits="userSpaceOnUse">
				<stop  offset="0" style="stop-color:#EA2749"/>
				<stop  offset="0.4258" style="stop-color:#EE4B41"/>
				<stop  offset="0.7773" style="stop-color:#F0623C"/>
				<stop  offset="1" style="stop-color:#F16A3A"/>
			</radialGradient>
			<path id="XMLID_1153_" class="st1" d="M2860.284,1875.237c0-52.139-42.442-94.581-94.559-94.581
				c-52.133,0-94.556,42.442-94.556,94.581c0,52.179,42.423,94.625,94.556,94.625
				C2817.842,1969.862,2860.284,1927.417,2860.284,1875.237z"/>
			<radialGradient id="XMLID_19_" cx="2080.1816" cy="1866.9795" r="1834.5283" gradientUnits="userSpaceOnUse">
				<stop  offset="0" style="stop-color:#EA2749"/>
				<stop  offset="0.4258" style="stop-color:#EE4B41"/>
				<stop  offset="0.7773" style="stop-color:#F0623C"/>
				<stop  offset="1" style="stop-color:#F16A3A"/>
			</radialGradient>
			<path id="XMLID_1154_" class="st2" d="M1430.153,1969.862c52.204,0,94.674-42.445,94.674-94.625
				c0-52.139-42.47-94.581-94.674-94.581c-52.135,0-94.578,42.442-94.578,94.581
				C1335.575,1927.417,1378.017,1969.862,1430.153,1969.862z"/>
			<radialGradient id="XMLID_20_" cx="2080.1589" cy="1866.9795" r="1834.5479" gradientUnits="userSpaceOnUse">
				<stop  offset="0" style="stop-color:#EA2749"/>
				<stop  offset="0.4258" style="stop-color:#EE4B41"/>
				<stop  offset="0.7773" style="stop-color:#F0623C"/>
				<stop  offset="1" style="stop-color:#F16A3A"/>
			</radialGradient>
			<path id="XMLID_1155_" class="st3" d="M3082.931,1875.237c0-52.139-42.445-94.581-94.671-94.581
				c-52.092,0-94.537,42.442-94.537,94.581c0,52.179,42.445,94.625,94.537,94.625
				C3040.486,1969.862,3082.931,1927.417,3082.931,1875.237z"/>
			<radialGradient id="XMLID_21_" cx="2080.1675" cy="1866.9744" r="1834.5293" gradientUnits="userSpaceOnUse">
				<stop  offset="0" style="stop-color:#EA2749"/>
				<stop  offset="0.4258" style="stop-color:#EE4B41"/>
				<stop  offset="0.7773" style="stop-color:#F0623C"/>
				<stop  offset="1" style="stop-color:#F16A3A"/>
			</radialGradient>
			<path id="XMLID_1156_" class="st4" d="M2660.695,2571.697c36.82,36.976,96.878,36.976,133.717,0
				c17.917-17.776,27.7-41.524,27.7-66.79c0-25.309-9.784-49.057-27.7-66.971c-17.845-17.826-41.571-27.7-66.88-27.7
				c-25.172,0-49.013,9.875-66.836,27.7c-17.913,17.913-27.813,41.662-27.813,66.971
				C2632.882,2530.172,2642.782,2553.92,2660.695,2571.697z"/>
			<radialGradient id="XMLID_22_" cx="2080.1768" cy="1866.9771" r="1834.5184" gradientUnits="userSpaceOnUse">
				<stop  offset="0" style="stop-color:#EA2749"/>
				<stop  offset="0.4258" style="stop-color:#EE4B41"/>
				<stop  offset="0.7773" style="stop-color:#F0623C"/>
				<stop  offset="1" style="stop-color:#F16A3A"/>
			</radialGradient>
			<path id="XMLID_1157_" class="st5" d="M2097.953,2860.259c52.179,0,94.603-42.536,94.603-94.625
				c0-52.182-42.423-94.581-94.603-94.581c-52.186,0-94.625,42.398-94.625,94.581
				C2003.329,2817.723,2045.767,2860.259,2097.953,2860.259z"/>
			<radialGradient id="XMLID_23_" cx="2080.1729" cy="1866.9763" r="1834.5149" gradientUnits="userSpaceOnUse">
				<stop  offset="0" style="stop-color:#EA2749"/>
				<stop  offset="0.4258" style="stop-color:#EE4B41"/>
				<stop  offset="0.7773" style="stop-color:#F0623C"/>
				<stop  offset="1" style="stop-color:#F16A3A"/>
			</radialGradient>
			<path id="XMLID_1158_" class="st6" d="M1468.324,2599.441c25.266,0,49.129-9.784,66.974-27.744
				c17.913-17.776,27.676-41.524,27.676-66.79c0-25.309-9.762-49.057-27.676-66.971c-17.845-17.826-41.708-27.7-66.974-27.7
				c-25.194,0-49.036,9.875-66.743,27.7c-17.938,17.913-27.835,41.662-27.835,66.971c0,25.266,9.896,49.014,27.744,66.79
				C1419.289,2589.657,1443.131,2599.441,1468.324,2599.441z"/>
			<radialGradient id="XMLID_24_" cx="2080.1711" cy="1866.9795" r="1834.5018" gradientUnits="userSpaceOnUse">
				<stop  offset="0" style="stop-color:#EA2749"/>
				<stop  offset="0.4258" style="stop-color:#EE4B41"/>
				<stop  offset="0.7773" style="stop-color:#F0623C"/>
				<stop  offset="1" style="stop-color:#F16A3A"/>
			</radialGradient>
			<path id="XMLID_1159_" class="st7" d="M1302.249,1875.237c0-52.139-42.42-94.581-94.649-94.581
				c-52.136,0-94.646,42.442-94.646,94.581c0,52.179,42.511,94.625,94.646,94.625
				C1259.829,1969.862,1302.249,1927.417,1302.249,1875.237z"/>
			<radialGradient id="XMLID_25_" cx="2080.1729" cy="1866.9763" r="1834.5037" gradientUnits="userSpaceOnUse">
				<stop  offset="0" style="stop-color:#EA2749"/>
				<stop  offset="0.4258" style="stop-color:#EE4B41"/>
				<stop  offset="0.7773" style="stop-color:#F0623C"/>
				<stop  offset="1" style="stop-color:#F16A3A"/>
			</radialGradient>
			<path id="XMLID_1160_" class="st8" d="M1535.298,1178.775c-36.932-36.888-96.9-36.888-133.807,0
				c-17.848,17.87-27.744,41.571-27.744,66.877c0,25.312,9.896,49.014,27.744,66.93c17.798,17.867,41.64,27.744,66.833,27.744
				c25.266,0,49.129-9.878,66.974-27.744c17.913-17.917,27.676-41.618,27.676-66.93
				C1562.974,1220.346,1553.212,1196.645,1535.298,1178.775z"/>
			<radialGradient id="XMLID_26_" cx="2080.1768" cy="1866.9673" r="1834.4938" gradientUnits="userSpaceOnUse">
				<stop  offset="0" style="stop-color:#EA2749"/>
				<stop  offset="0.4258" style="stop-color:#EE4B41"/>
				<stop  offset="0.7773" style="stop-color:#F0623C"/>
				<stop  offset="1" style="stop-color:#F16A3A"/>
			</radialGradient>
			<path id="XMLID_1161_" class="st9" d="M2097.953,890.397c-52.186,0-94.625,42.305-94.625,94.534
				c0,52.136,42.439,94.531,94.625,94.531c52.179,0,94.603-42.395,94.603-94.531
				C2192.556,932.702,2150.132,890.397,2097.953,890.397z"/>
			<radialGradient id="XMLID_27_" cx="2080.1675" cy="1866.9763" r="1834.5223" gradientUnits="userSpaceOnUse">
				<stop  offset="0" style="stop-color:#EA2749"/>
				<stop  offset="0.4258" style="stop-color:#EE4B41"/>
				<stop  offset="0.7773" style="stop-color:#F0623C"/>
				<stop  offset="1" style="stop-color:#F16A3A"/>
			</radialGradient>
			<path id="XMLID_1162_" class="st10" d="M2727.532,1340.327c25.309,0,49.036-9.878,66.88-27.744
				c17.917-17.917,27.7-41.618,27.7-66.93c0-25.306-9.784-49.007-27.7-66.877c-36.838-36.888-96.897-36.888-133.717,0
				c-17.913,17.87-27.813,41.571-27.813,66.877c0,25.312,9.9,49.014,27.813,66.93
				C2678.518,1330.449,2702.36,1340.327,2727.532,1340.327z"/>
			<radialGradient id="XMLID_28_" cx="2080.1799" cy="1866.9795" r="1834.5068" gradientUnits="userSpaceOnUse">
				<stop  offset="0" style="stop-color:#EA2749"/>
				<stop  offset="0.4258" style="stop-color:#EE4B41"/>
				<stop  offset="0.7773" style="stop-color:#F0623C"/>
				<stop  offset="1" style="stop-color:#F16A3A"/>
			</radialGradient>
			<path id="XMLID_1163_" class="st11" d="M3210.925,1780.657c-52.114,0-94.578,42.442-94.578,94.581
				c0,52.179,42.464,94.625,94.578,94.625c52.226,0,94.649-42.445,94.649-94.625
				C3305.574,1823.099,3263.151,1780.657,3210.925,1780.657z"/>
			<radialGradient id="XMLID_29_" cx="2080.1807" cy="1867.0044" r="1834.4855" gradientUnits="userSpaceOnUse">
				<stop  offset="0" style="stop-color:#EA2749"/>
				<stop  offset="0.4258" style="stop-color:#EE4B41"/>
				<stop  offset="0.7773" style="stop-color:#F0623C"/>
				<stop  offset="1" style="stop-color:#F16A3A"/>
			</radialGradient>
			<path id="XMLID_1164_" class="st12" d="M3111.524,2344.826c23.723,8.635,49.401,7.577,72.253-3.169
				c22.852-10.705,40.31-29.674,48.945-53.425c3.768-10.38,5.719-21.266,5.719-32.337c0-39.642-25.012-75.284-62.219-88.836
				c-23.839-8.635-49.494-7.58-72.347,3.169c-22.968,10.658-40.31,29.536-48.967,53.284c-3.859,10.474-5.694,21.404-5.694,32.383
				C3049.214,2295.49,3074.202,2331.274,3111.524,2344.826z"/>
			<radialGradient id="XMLID_30_" cx="2080.1775" cy="1866.9854" r="1834.5012" gradientUnits="userSpaceOnUse">
				<stop  offset="0" style="stop-color:#EA2749"/>
				<stop  offset="0.4258" style="stop-color:#EE4B41"/>
				<stop  offset="0.7773" style="stop-color:#F0623C"/>
				<stop  offset="1" style="stop-color:#F16A3A"/>
			</radialGradient>
			<path id="XMLID_1165_" class="st13" d="M2958.814,2684.924c25.078-2.251,47.955-14.055,64.217-33.438
				c14.261-17.089,22.115-38.587,22.115-60.771c0-28.069-12.378-54.574-33.807-72.578c-19.268-16.171-43.916-23.932-69.019-21.775
				c-25.262,2.207-47.952,14.148-64.214,33.489c-14.333,16.995-22.187,38.583-22.187,60.771c0,28.113,12.31,54.433,33.807,72.487
				C2909.02,2679.367,2933.642,2687.085,2958.814,2684.924z"/>
			<radialGradient id="XMLID_31_" cx="2080.1736" cy="1866.9711" r="1834.5283" gradientUnits="userSpaceOnUse">
				<stop  offset="0" style="stop-color:#EA2749"/>
				<stop  offset="0.4258" style="stop-color:#EE4B41"/>
				<stop  offset="0.7773" style="stop-color:#F0623C"/>
				<stop  offset="1" style="stop-color:#F16A3A"/>
			</radialGradient>
			<path id="XMLID_1166_" class="st14" d="M2736.351,2791.771c-26.046-45.155-83.991-60.68-129.215-34.591
				c-29.168,16.858-47.312,48.371-47.312,81.949c0,16.581,4.386,32.98,12.703,47.312c12.606,21.866,33.048,37.481,57.465,44.05
				c24.413,6.478,49.906,3.215,71.819-9.509c29.121-16.812,47.219-48.23,47.219-81.947
				C2749.029,2822.547,2744.69,2806.194,2736.351,2791.771z"/>
			<radialGradient id="XMLID_32_" cx="2080.1777" cy="1867.0132" r="1834.4583" gradientUnits="userSpaceOnUse">
				<stop  offset="0" style="stop-color:#EA2749"/>
				<stop  offset="0.4258" style="stop-color:#EE4B41"/>
				<stop  offset="0.7773" style="stop-color:#F0623C"/>
				<stop  offset="1" style="stop-color:#F16A3A"/>
			</radialGradient>
			<path id="XMLID_1167_" class="st15" d="M2307.644,3064.484c45.358-8.039,78.178-47.175,78.178-93.11
				c0-5.373-0.481-11.023-1.42-16.443c-9.028-51.355-58.248-85.852-109.603-76.758c-45.245,8.039-78.178,47.128-78.178,93.02
				c0,5.557,0.459,11.02,1.445,16.58C2207.091,3039.128,2256.289,3073.487,2307.644,3064.484z"/>
			<radialGradient id="XMLID_33_" cx="2080.1748" cy="1866.9708" r="1834.5189" gradientUnits="userSpaceOnUse">
				<stop  offset="0" style="stop-color:#EA2749"/>
				<stop  offset="0.4258" style="stop-color:#EE4B41"/>
				<stop  offset="0.7773" style="stop-color:#F0623C"/>
				<stop  offset="1" style="stop-color:#F16A3A"/>
			</radialGradient>
			<path id="XMLID_1168_" class="st16" d="M1888.237,3064.484c24.872,4.364,49.978-1.24,70.714-15.709
				c20.742-14.423,34.59-36.104,38.955-61.002c0.965-5.56,1.355-11.023,1.355-16.58c0-45.892-32.82-84.981-78.113-93.02
				c-24.872-4.361-49.975,1.196-70.714,15.619c-20.742,14.517-34.475,36.242-38.93,61.139c-0.874,5.42-1.38,11.07-1.38,16.443
				C1810.124,3017.309,1842.876,3056.445,1888.237,3064.484z"/>
			<radialGradient id="XMLID_34_" cx="2080.1794" cy="1866.9711" r="1834.531" gradientUnits="userSpaceOnUse">
				<stop  offset="0" style="stop-color:#EA2749"/>
				<stop  offset="0.4258" style="stop-color:#EE4B41"/>
				<stop  offset="0.7773" style="stop-color:#F0623C"/>
				<stop  offset="1" style="stop-color:#F16A3A"/>
			</radialGradient>
			<path id="XMLID_1169_" class="st17" d="M1565.983,2930.492c24.435-6.569,44.855-22.184,57.465-44.05
				c8.314-14.333,12.678-30.732,12.678-47.312c0-33.579-18.123-65.091-47.269-81.949c-45.245-26.09-103.306-10.564-129.352,34.591
				c-8.245,14.423-12.7,30.776-12.7,47.265c0,33.716,18.213,65.135,47.381,81.947
				C1516.099,2933.708,1541.545,2936.97,1565.983,2930.492z"/>
			<radialGradient id="XMLID_35_" cx="2080.1812" cy="1866.9808" r="1834.515" gradientUnits="userSpaceOnUse">
				<stop  offset="0" style="stop-color:#EA2749"/>
				<stop  offset="0.4258" style="stop-color:#EE4B41"/>
				<stop  offset="0.7773" style="stop-color:#F0623C"/>
				<stop  offset="1" style="stop-color:#F16A3A"/>
			</radialGradient>
			<path id="XMLID_1170_" class="st18" d="M1306.245,2663.109c21.382-18.054,33.832-44.375,33.832-72.487
				c0-22.187-7.97-43.775-22.212-60.771c-16.281-19.34-39.067-31.281-64.239-33.489c-25.194-2.157-49.701,5.604-68.994,21.775
				c-21.588,18.144-33.807,44.509-33.807,72.578c0,22.184,7.855,43.681,22.097,60.771
				C1206.429,2691.493,1266.213,2696.594,1306.245,2663.109z"/>
			<radialGradient id="XMLID_36_" cx="2080.1785" cy="1867.0044" r="1834.4882" gradientUnits="userSpaceOnUse">
				<stop  offset="0" style="stop-color:#EA2749"/>
				<stop  offset="0.4258" style="stop-color:#EE4B41"/>
				<stop  offset="0.7773" style="stop-color:#F0623C"/>
				<stop  offset="1" style="stop-color:#F16A3A"/>
			</radialGradient>
			<path id="XMLID_1171_" class="st19" d="M1146.738,2255.896c0-10.979-1.929-21.909-5.697-32.383
				c-8.635-23.748-25.977-42.626-48.829-53.284c-22.965-10.749-48.736-11.804-72.484-3.169
				c-37.207,13.552-62.194,49.195-62.194,88.836c0,11.07,1.929,21.956,5.741,32.337c8.588,23.751,25.952,42.72,48.92,53.425
				c22.874,10.746,48.53,11.804,72.253,3.169C1121.773,2331.274,1146.738,2295.49,1146.738,2255.896z"/>
			<radialGradient id="XMLID_37_" cx="2080.1819" cy="1866.9795" r="1834.5237" gradientUnits="userSpaceOnUse">
				<stop  offset="0" style="stop-color:#EA2749"/>
				<stop  offset="0.4258" style="stop-color:#EE4B41"/>
				<stop  offset="0.7773" style="stop-color:#F0623C"/>
				<stop  offset="1" style="stop-color:#F16A3A"/>
			</radialGradient>
			<path id="XMLID_1172_" class="st20" d="M984.956,1780.657c-52.02,0-94.581,42.442-94.581,94.581
				c0,52.179,42.561,94.625,94.581,94.625c52.226,0,94.671-42.445,94.671-94.625
				C1079.627,1823.099,1037.182,1780.657,984.956,1780.657z"/>
			<radialGradient id="XMLID_38_" cx="2080.1785" cy="1866.9725" r="1834.5114" gradientUnits="userSpaceOnUse">
				<stop  offset="0" style="stop-color:#EA2749"/>
				<stop  offset="0.4258" style="stop-color:#EE4B41"/>
				<stop  offset="0.7773" style="stop-color:#F0623C"/>
				<stop  offset="1" style="stop-color:#F16A3A"/>
			</radialGradient>
			<path id="XMLID_1173_" class="st21" d="M1141.041,1527.003c3.768-10.471,5.697-21.404,5.697-32.383
				c0-39.595-24.966-75.331-62.291-88.93c-23.723-8.588-49.379-7.439-72.253,3.219c-22.968,10.655-40.332,29.627-48.92,53.375
				c-3.812,10.474-5.741,21.313-5.741,32.337c0,39.551,24.988,75.334,62.285,88.886
				C1068.875,1601.326,1123.218,1575.926,1141.041,1527.003z"/>
			<radialGradient id="XMLID_39_" cx="2080.1812" cy="1867.0179" r="1834.5642" gradientUnits="userSpaceOnUse">
				<stop  offset="0" style="stop-color:#EA2749"/>
				<stop  offset="0.4258" style="stop-color:#EE4B41"/>
				<stop  offset="0.7773" style="stop-color:#F0623C"/>
				<stop  offset="1" style="stop-color:#F16A3A"/>
			</radialGradient>
			<path id="XMLID_1174_" class="st22" d="M1317.865,1220.665c14.242-17.086,22.212-38.583,22.212-60.768
				c0-28.113-12.45-54.436-33.832-72.581c-40.032-33.485-99.816-28.294-133.323,11.76c-14.242,16.949-22.097,38.54-22.097,60.727
				c0,28.113,12.219,54.524,33.807,72.484c19.293,16.306,43.8,24.026,68.994,21.775
				C1278.797,1251.856,1301.584,1240.005,1317.865,1220.665z"/>
			<radialGradient id="XMLID_40_" cx="2080.1794" cy="1866.9624" r="1834.4935" gradientUnits="userSpaceOnUse">
				<stop  offset="0" style="stop-color:#EA2749"/>
				<stop  offset="0.4258" style="stop-color:#EE4B41"/>
				<stop  offset="0.7773" style="stop-color:#F0623C"/>
				<stop  offset="1" style="stop-color:#F16A3A"/>
			</radialGradient>
			<path id="XMLID_1175_" class="st23" d="M1459.505,958.654c12.725,21.913,33.142,37.622,57.533,44.097
				c24.416,6.618,49.819,3.216,71.819-9.416c29.146-16.858,47.269-48.23,47.269-82.037c0-16.446-4.364-32.845-12.678-47.175
				c-26.093-45.155-84.11-60.633-129.262-34.591c-29.168,16.858-47.381,48.233-47.381,81.95
				C1446.805,927.969,1451.26,944.321,1459.505,958.654z"/>
			<radialGradient id="XMLID_41_" cx="2080.1748" cy="1867.0035" r="1834.5575" gradientUnits="userSpaceOnUse">
				<stop  offset="0" style="stop-color:#EA2749"/>
				<stop  offset="0.4258" style="stop-color:#EE4B41"/>
				<stop  offset="0.7773" style="stop-color:#F0623C"/>
				<stop  offset="1" style="stop-color:#F16A3A"/>
			</radialGradient>
			<path id="XMLID_1176_" class="st24" d="M1958.951,701.744c-20.736-14.426-45.842-20.074-70.623-15.713
				c-45.452,8.039-78.203,47.175-78.203,93.11c0,5.513,0.506,11.07,1.38,16.443c4.455,24.944,18.188,46.625,38.93,61.049
				c20.739,14.564,45.842,20.167,70.714,15.709c45.292-7.945,78.113-47.084,78.113-93.017c0-5.513-0.39-11.023-1.355-16.537
				C1993.541,737.893,1979.693,716.258,1958.951,701.744z"/>
			<radialGradient id="XMLID_42_" cx="2080.1777" cy="1867.0035" r="1834.5508" gradientUnits="userSpaceOnUse">
				<stop  offset="0" style="stop-color:#EA2749"/>
				<stop  offset="0.4258" style="stop-color:#EE4B41"/>
				<stop  offset="0.7773" style="stop-color:#F0623C"/>
				<stop  offset="1" style="stop-color:#F16A3A"/>
			</radialGradient>
			<path id="XMLID_1177_" class="st25" d="M2307.644,686.032c-24.807-4.361-50,1.286-70.739,15.713
				c-20.626,14.514-34.475,36.148-38.84,61.045c-0.987,5.513-1.445,11.023-1.445,16.537c0,45.932,32.933,85.071,78.178,93.017
				c24.897,4.458,49.978-1.146,70.739-15.709c20.626-14.423,34.497-36.105,38.864-61.049c0.94-5.373,1.42-10.93,1.42-16.443
				C2385.822,733.207,2353.002,694.071,2307.644,686.032z"/>
			<radialGradient id="XMLID_43_" cx="2080.1736" cy="1866.9624" r="1834.4955" gradientUnits="userSpaceOnUse">
				<stop  offset="0" style="stop-color:#EA2749"/>
				<stop  offset="0.4258" style="stop-color:#EE4B41"/>
				<stop  offset="0.7773" style="stop-color:#F0623C"/>
				<stop  offset="1" style="stop-color:#F16A3A"/>
			</radialGradient>
			<path id="XMLID_1178_" class="st26" d="M2572.527,864.123c-8.317,14.423-12.703,30.729-12.703,47.175
				c0,33.807,18.145,65.179,47.312,82.037c21.866,12.631,47.362,16.034,71.797,9.416c24.391-6.475,44.833-22.184,57.418-44.097
				c8.339-14.333,12.678-30.685,12.678-47.172c0-33.716-18.097-65.091-47.219-81.95
				C2656.518,803.49,2598.595,818.968,2572.527,864.123z"/>
			<radialGradient id="XMLID_44_" cx="2080.1775" cy="1867.0126" r="1834.5371" gradientUnits="userSpaceOnUse">
				<stop  offset="0" style="stop-color:#EA2749"/>
				<stop  offset="0.4258" style="stop-color:#EE4B41"/>
				<stop  offset="0.7773" style="stop-color:#F0623C"/>
				<stop  offset="1" style="stop-color:#F16A3A"/>
			</radialGradient>
			<path id="XMLID_1179_" class="st27" d="M2942.321,1254.063c25.103,2.251,49.75-5.47,69.019-21.775
				c21.429-17.96,33.807-44.371,33.807-72.484c0-22.187-7.854-43.778-22.115-60.727c-16.262-19.384-39.139-31.325-64.217-33.438
				c-25.172-2.254-49.794,5.51-69.087,21.678c-21.497,18.144-33.807,44.468-33.807,72.581c0,22.184,7.945,43.682,22.187,60.768
				C2894.369,1240.005,2917.059,1251.856,2942.321,1254.063z"/>
			<radialGradient id="XMLID_45_" cx="2080.1807" cy="1866.9725" r="1834.5001" gradientUnits="userSpaceOnUse">
				<stop  offset="0" style="stop-color:#EA2749"/>
				<stop  offset="0.4258" style="stop-color:#EE4B41"/>
				<stop  offset="0.7773" style="stop-color:#F0623C"/>
				<stop  offset="1" style="stop-color:#F16A3A"/>
			</radialGradient>
			<path id="XMLID_1180_" class="st28" d="M3049.214,1494.62c0,10.98,1.836,21.913,5.694,32.383
				c17.823,48.923,72.303,74.323,121.313,56.503c37.207-13.552,62.219-49.335,62.219-88.886c0-11.023-1.951-21.863-5.719-32.337
				c-8.635-23.748-26.093-42.72-48.945-53.375c-22.852-10.658-48.53-11.807-72.253-3.219
				C3074.202,1419.289,3049.214,1455.025,3049.214,1494.62z"/>
			<radialGradient id="XMLID_46_" cx="2080.1726" cy="1866.9795" r="1834.5155" gradientUnits="userSpaceOnUse">
				<stop  offset="0" style="stop-color:#EA2749"/>
				<stop  offset="0.4258" style="stop-color:#EE4B41"/>
				<stop  offset="0.7773" style="stop-color:#F0623C"/>
				<stop  offset="1" style="stop-color:#F16A3A"/>
			</radialGradient>
			<path id="XMLID_1181_" class="st29" d="M3433.457,1780.657c-52.114,0-94.534,42.442-94.534,94.581
				c0,52.179,42.42,94.625,94.534,94.625c52.229,0,94.671-42.445,94.671-94.625
				C3528.128,1823.099,3485.686,1780.657,3433.457,1780.657z"/>
			<radialGradient id="XMLID_47_" cx="2080.1868" cy="1866.9817" r="1834.4984" gradientUnits="userSpaceOnUse">
				<stop  offset="0" style="stop-color:#EA2749"/>
				<stop  offset="0.4258" style="stop-color:#EE4B41"/>
				<stop  offset="0.7773" style="stop-color:#F0623C"/>
				<stop  offset="1" style="stop-color:#F16A3A"/>
			</radialGradient>
			<path id="XMLID_1182_" class="st30" d="M3500.611,2154.244c1.264-6.11,1.836-12.266,1.836-18.513
				c0-44.924-31.968-83.879-76.155-92.698c-51.174-10.193-101.059,23.152-111.211,74.276c-1.171,6.113-1.883,12.406-1.883,18.516
				c0,44.968,32.109,84.013,76.183,92.739C3440.528,2238.716,3490.506,2205.412,3500.611,2154.244z"/>
			<radialGradient id="XMLID_48_" cx="2080.1814" cy="1866.9906" r="1834.5021" gradientUnits="userSpaceOnUse">
				<stop  offset="0" style="stop-color:#EA2749"/>
				<stop  offset="0.4258" style="stop-color:#EE4B41"/>
				<stop  offset="0.7773" style="stop-color:#F0623C"/>
				<stop  offset="1" style="stop-color:#F16A3A"/>
			</radialGradient>
			<path id="XMLID_1183_" class="st31" d="M3419.308,2422.501c4.755-11.485,7.19-23.701,7.19-36.105
				c0-38.355-22.993-72.762-58.407-87.503c-23.38-9.556-49.151-9.556-72.394,0c-23.38,9.69-41.568,27.925-51.264,51.258
				c-4.82,11.623-7.162,23.751-7.162,36.152c0,38.449,22.965,72.762,58.426,87.507
				C3343.836,2493.746,3399.281,2470.778,3419.308,2422.501z"/>
			<radialGradient id="XMLID_49_" cx="2080.1846" cy="1866.9858" r="1834.4951" gradientUnits="userSpaceOnUse">
				<stop  offset="0" style="stop-color:#EA2749"/>
				<stop  offset="0.4258" style="stop-color:#EE4B41"/>
				<stop  offset="0.7773" style="stop-color:#F0623C"/>
				<stop  offset="1" style="stop-color:#F16A3A"/>
			</radialGradient>
			<path id="XMLID_1184_" class="st32" d="M3155.874,2695.951c43.432,28.983,102.204,17.223,131.188-26.183
				c10.474-15.572,15.894-33.717,15.894-52.504c0-31.693-15.709-61.139-41.939-78.684c-43.407-28.94-102.204-17.227-131.279,26.09
				c-10.384,15.619-15.894,33.807-15.894,52.594C3113.844,2648.957,3129.644,2678.312,3155.874,2695.951z"/>
			<radialGradient id="XMLID_50_" cx="2080.1826" cy="1866.9851" r="1834.4991" gradientUnits="userSpaceOnUse">
				<stop  offset="0" style="stop-color:#EA2749"/>
				<stop  offset="0.4258" style="stop-color:#EE4B41"/>
				<stop  offset="0.7773" style="stop-color:#F0623C"/>
				<stop  offset="1" style="stop-color:#F16A3A"/>
			</radialGradient>
			<path id="XMLID_1185_" class="st33" d="M3136.902,2819.653c0-25.265-9.806-49.014-27.607-66.927
				c-36.91-36.932-97.016-36.932-133.807,0c-17.913,17.913-27.697,41.662-27.697,66.927c0,25.219,9.784,48.967,27.697,66.88
				c36.792,36.885,96.897,36.885,133.807,0C3127.096,2868.619,3136.902,2844.871,3136.902,2819.653z"/>
			<radialGradient id="XMLID_51_" cx="2080.1772" cy="1866.9834" r="1834.5057" gradientUnits="userSpaceOnUse">
				<stop  offset="0" style="stop-color:#EA2749"/>
				<stop  offset="0.4258" style="stop-color:#EE4B41"/>
				<stop  offset="0.7773" style="stop-color:#F0623C"/>
				<stop  offset="1" style="stop-color:#F16A3A"/>
			</radialGradient>
			<path id="XMLID_1186_" class="st34" d="M2892.53,3064.393c26.364-17.639,42.073-47.084,42.073-78.687
				c0-18.788-5.532-36.885-15.984-52.598c-14.055-20.945-35.483-35.277-60.175-40.188c-24.806-4.964-49.997,0.091-71.013,14.145
				c-26.368,17.639-42.055,46.991-42.055,78.734c0,18.741,5.538,36.838,15.919,52.548c14.123,20.898,35.415,35.23,60.265,40.191
				C2846.342,3083.455,2871.538,3078.448,2892.53,3064.393z"/>
			<radialGradient id="XMLID_52_" cx="2080.1741" cy="1866.975" r="1834.5153" gradientUnits="userSpaceOnUse">
				<stop  offset="0" style="stop-color:#EA2749"/>
				<stop  offset="0.4258" style="stop-color:#EE4B41"/>
				<stop  offset="0.7773" style="stop-color:#F0623C"/>
				<stop  offset="1" style="stop-color:#F16A3A"/>
			</radialGradient>
			<path id="XMLID_1187_" class="st35" d="M2572.939,3021.764c-35.577,14.745-58.545,49.014-58.545,87.416
				c0,12.491,2.435,24.572,7.258,36.195c19.98,48.187,75.378,71.198,123.633,51.218c35.44-14.745,58.314-49.061,58.314-87.553
				c0-12.4-2.41-24.482-7.165-36.011C2676.498,3024.748,2621.057,3001.827,2572.939,3021.764z"/>
			<radialGradient id="XMLID_53_" cx="2080.1765" cy="1867.0017" r="1834.4886" gradientUnits="userSpaceOnUse">
				<stop  offset="0" style="stop-color:#EA2749"/>
				<stop  offset="0.4258" style="stop-color:#EE4B41"/>
				<stop  offset="0.7773" style="stop-color:#F0623C"/>
				<stop  offset="1" style="stop-color:#F16A3A"/>
			</radialGradient>
			<path id="XMLID_1188_" class="st36" d="M2340.121,3092.412c-44.212,8.682-76.162,47.728-76.162,92.648
				c0,6.159,0.549,12.497,1.745,18.606c10.174,51.171,60.153,84.475,111.298,74.276c44.097-8.776,76.184-47.724,76.184-92.695
				c0-6.203-0.712-12.403-1.861-18.513C2441.174,3115.564,2391.267,3082.216,2340.121,3092.412z"/>
			<radialGradient id="XMLID_54_" cx="2080.1768" cy="1866.9921" r="1834.4956" gradientUnits="userSpaceOnUse">
				<stop  offset="0" style="stop-color:#EA2749"/>
				<stop  offset="0.4258" style="stop-color:#EE4B41"/>
				<stop  offset="0.7773" style="stop-color:#F0623C"/>
				<stop  offset="1" style="stop-color:#F16A3A"/>
			</radialGradient>
			<path id="XMLID_1189_" class="st37" d="M2097.953,3305.456c52.179,0,94.603-42.442,94.603-94.624s-42.423-94.625-94.603-94.625
				c-52.186,0-94.625,42.442-94.625,94.625S2045.767,3305.456,2097.953,3305.456z"/>
			<radialGradient id="XMLID_55_" cx="2080.1724" cy="1866.9657" r="1834.533" gradientUnits="userSpaceOnUse">
				<stop  offset="0" style="stop-color:#EA2749"/>
				<stop  offset="0.4258" style="stop-color:#EE4B41"/>
				<stop  offset="0.7773" style="stop-color:#F0623C"/>
				<stop  offset="1" style="stop-color:#F16A3A"/>
			</radialGradient>
			<path id="XMLID_1190_" class="st38" d="M1930.177,3203.667c1.261-6.11,1.857-12.447,1.857-18.606
				c0-44.921-31.968-83.966-76.158-92.648c-24.807-4.961-50.022,0-71.014,14.055c-21.038,14.058-35.277,35.418-40.216,60.268
				c-1.264,6.109-1.861,12.31-1.861,18.513c0,44.971,32.018,83.919,76.159,92.695c24.807,4.961,50.025-0.091,71.014-14.148
				C1910.999,3249.783,1925.238,3228.333,1930.177,3203.667z"/>
			<radialGradient id="XMLID_56_" cx="2080.1814" cy="1866.9731" r="1834.5212" gradientUnits="userSpaceOnUse">
				<stop  offset="0" style="stop-color:#EA2749"/>
				<stop  offset="0.4258" style="stop-color:#EE4B41"/>
				<stop  offset="0.7773" style="stop-color:#F0623C"/>
				<stop  offset="1" style="stop-color:#F16A3A"/>
			</radialGradient>
			<path id="XMLID_1191_" class="st39" d="M1623.033,3196.593c23.473-9.6,41.571-27.838,51.286-51.218
				c4.733-11.623,7.168-23.704,7.168-36.195c0-38.402-22.855-72.671-58.454-87.416c-23.336-9.69-49.011-9.69-72.462,0
				c-23.243,9.693-41.362,27.791-51.055,51.264c-4.848,11.529-7.258,23.611-7.258,36.152c0,38.352,22.968,72.668,58.429,87.413
				C1574.022,3206.286,1599.79,3206.286,1623.033,3196.593z"/>
			<radialGradient id="XMLID_57_" cx="2080.1772" cy="1866.9752" r="1834.5229" gradientUnits="userSpaceOnUse">
				<stop  offset="0" style="stop-color:#EA2749"/>
				<stop  offset="0.4258" style="stop-color:#EE4B41"/>
				<stop  offset="0.7773" style="stop-color:#F0623C"/>
				<stop  offset="1" style="stop-color:#F16A3A"/>
			</radialGradient>
			<path id="XMLID_1192_" class="st40" d="M1408.518,2907.065c-20.992-14.055-46.21-19.109-71.014-14.145
				c-24.782,4.911-46.21,19.243-60.128,40.188c-10.474,15.713-15.987,33.81-15.987,52.598c0,31.603,15.688,61.049,41.939,78.687
				c43.5,28.984,102.389,17.27,131.279-26.046c10.474-15.709,15.987-33.807,15.987-52.548
				C1450.595,2954.056,1434.792,2924.704,1408.518,2907.065z"/>
			<radialGradient id="XMLID_58_" cx="2080.1753" cy="1866.9696" r="1834.5227" gradientUnits="userSpaceOnUse">
				<stop  offset="0" style="stop-color:#EA2749"/>
				<stop  offset="0.4258" style="stop-color:#EE4B41"/>
				<stop  offset="0.7773" style="stop-color:#F0623C"/>
				<stop  offset="1" style="stop-color:#F16A3A"/>
			</radialGradient>
			<path id="XMLID_1193_" class="st41" d="M1220.484,2752.726c-36.907-36.842-96.897-36.842-133.829,0
				c-17.779,17.913-27.654,41.662-27.654,66.927c0,25.219,9.875,48.967,27.654,66.88c36.932,36.885,96.922,36.885,133.829,0
				c17.848-17.913,27.722-41.662,27.722-66.88C1248.206,2794.387,1238.332,2770.639,1220.484,2752.726z"/>
			<radialGradient id="XMLID_59_" cx="2080.1853" cy="1866.9791" r="1834.5176" gradientUnits="userSpaceOnUse">
				<stop  offset="0" style="stop-color:#EA2749"/>
				<stop  offset="0.4258" style="stop-color:#EE4B41"/>
				<stop  offset="0.7773" style="stop-color:#F0623C"/>
				<stop  offset="1" style="stop-color:#F16A3A"/>
			</radialGradient>
			<path id="XMLID_1194_" class="st42" d="M1040.076,2695.951c26.252-17.639,41.939-46.994,41.939-78.778
				c0-18.697-5.398-36.885-15.847-52.504c-28.987-43.41-87.922-55.03-131.238-26.09c-26.318,17.545-42.03,46.991-42.03,78.684
				c0,18.787,5.557,36.932,15.893,52.504C937.872,2713.174,996.666,2724.934,1040.076,2695.951z"/>
			<radialGradient id="XMLID_60_" cx="2080.1572" cy="1866.9906" r="1834.4838" gradientUnits="userSpaceOnUse">
				<stop  offset="0" style="stop-color:#EA2749"/>
				<stop  offset="0.4258" style="stop-color:#EE4B41"/>
				<stop  offset="0.7773" style="stop-color:#F0623C"/>
				<stop  offset="1" style="stop-color:#F16A3A"/>
			</radialGradient>
			<path id="XMLID_1195_" class="st43" d="M900.275,2473.81c35.461-14.745,58.404-49.057,58.404-87.507
				c0-12.4-2.388-24.619-7.165-36.152c-9.69-23.333-27.882-41.568-51.24-51.258c-23.358-9.556-49.036-9.556-72.372,0
				c-35.552,14.742-58.426,49.148-58.426,87.503c0,12.403,2.432,24.619,7.165,36.105
				C796.715,2470.778,852.02,2493.746,900.275,2473.81z"/>
			<radialGradient id="XMLID_61_" cx="2080.1704" cy="1866.9817" r="1834.5052" gradientUnits="userSpaceOnUse">
				<stop  offset="0" style="stop-color:#EA2749"/>
				<stop  offset="0.4258" style="stop-color:#EE4B41"/>
				<stop  offset="0.7773" style="stop-color:#F0623C"/>
				<stop  offset="1" style="stop-color:#F16A3A"/>
			</radialGradient>
			<path id="XMLID_1196_" class="st44" d="M806.499,2228.563c44.187-8.726,76.159-47.771,76.159-92.739
				c0-6.11-0.596-12.403-1.883-18.516c-10.152-51.124-59.943-84.469-111.208-74.276c-44.097,8.819-76.068,47.774-76.068,92.698
				c0,6.247,0.596,12.403,1.883,18.513C705.441,2205.412,755.35,2238.716,806.499,2228.563z"/>
			<radialGradient id="XMLID_62_" cx="2080.157" cy="1866.9795" r="1834.4906" gradientUnits="userSpaceOnUse">
				<stop  offset="0" style="stop-color:#EA2749"/>
				<stop  offset="0.4258" style="stop-color:#EE4B41"/>
				<stop  offset="0.7773" style="stop-color:#F0623C"/>
				<stop  offset="1" style="stop-color:#F16A3A"/>
			</radialGradient>
			<path id="XMLID_1197_" class="st45" d="M762.403,1969.862c52.136,0,94.578-42.445,94.578-94.625
				c0-52.139-42.442-94.581-94.578-94.581s-94.556,42.442-94.556,94.581C667.847,1927.417,710.267,1969.862,762.403,1969.862z"/>
			<radialGradient id="XMLID_63_" cx="2080.1704" cy="1866.9918" r="1834.5101" gradientUnits="userSpaceOnUse">
				<stop  offset="0" style="stop-color:#EA2749"/>
				<stop  offset="0.4258" style="stop-color:#EE4B41"/>
				<stop  offset="0.7773" style="stop-color:#F0623C"/>
				<stop  offset="1" style="stop-color:#F16A3A"/>
			</radialGradient>
			<path id="XMLID_1198_" class="st46" d="M695.382,1596.275c-1.286,6.11-1.883,12.31-1.883,18.513
				c0,44.968,31.971,83.876,76.068,92.739c51.265,10.156,101.056-23.196,111.208-74.367c1.286-6.063,1.883-12.356,1.883-18.56
				c0-44.877-31.971-83.92-76.159-92.648C755.35,1511.803,705.441,1545.148,695.382,1596.275z"/>
			<radialGradient id="XMLID_64_" cx="2080.1572" cy="1866.9835" r="1834.488" gradientUnits="userSpaceOnUse">
				<stop  offset="0" style="stop-color:#EA2749"/>
				<stop  offset="0.4258" style="stop-color:#EE4B41"/>
				<stop  offset="0.7773" style="stop-color:#F0623C"/>
				<stop  offset="1" style="stop-color:#F16A3A"/>
			</radialGradient>
			<path id="XMLID_1199_" class="st47" d="M827.903,1276.753c-23.333,9.69-41.568,27.885-51.261,51.265
				c-4.733,11.526-7.165,23.701-7.165,36.105c0,38.493,22.874,72.806,58.426,87.413c23.336,9.693,49.014,9.693,72.372,0
				c23.358-9.6,41.549-27.791,51.24-51.171c4.776-11.532,7.165-23.701,7.165-36.105c0-38.493-22.943-72.809-58.404-87.506
				C876.917,1267.153,851.239,1267.153,827.903,1276.753z"/>
			<radialGradient id="XMLID_65_" cx="2080.1853" cy="1866.9648" r="1834.5149" gradientUnits="userSpaceOnUse">
				<stop  offset="0" style="stop-color:#EA2749"/>
				<stop  offset="0.4258" style="stop-color:#EE4B41"/>
				<stop  offset="0.7773" style="stop-color:#F0623C"/>
				<stop  offset="1" style="stop-color:#F16A3A"/>
			</radialGradient>
			<path id="XMLID_1200_" class="st48" d="M1040.076,1054.612c-43.41-28.984-102.204-17.27-131.282,26.136
				c-10.337,15.619-15.893,33.716-15.893,52.413c0,31.693,15.712,61.139,42.03,78.778c43.316,28.987,102.251,17.227,131.238-26.136
				c10.449-15.619,15.847-33.763,15.847-52.457C1082.016,1101.696,1066.328,1072.16,1040.076,1054.612z"/>
			<radialGradient id="XMLID_66_" cx="2080.1753" cy="1866.989" r="1834.5255" gradientUnits="userSpaceOnUse">
				<stop  offset="0" style="stop-color:#EA2749"/>
				<stop  offset="0.4258" style="stop-color:#EE4B41"/>
				<stop  offset="0.7773" style="stop-color:#F0623C"/>
				<stop  offset="1" style="stop-color:#F16A3A"/>
			</radialGradient>
			<path id="XMLID_1201_" class="st49" d="M1059.001,930.957c0,25.219,9.875,48.967,27.654,66.79
				c17.87,17.917,41.708,27.791,66.88,27.791c25.378,0,49.151-9.875,66.949-27.701c17.848-17.913,27.722-41.662,27.722-66.88
				c0-25.356-9.875-49.014-27.722-66.927c-36.907-36.932-96.897-36.932-133.829,0
				C1068.875,881.943,1059.001,905.601,1059.001,930.957z"/>
			<radialGradient id="XMLID_67_" cx="2080.1772" cy="1866.9742" r="1834.5135" gradientUnits="userSpaceOnUse">
				<stop  offset="0" style="stop-color:#EA2749"/>
				<stop  offset="0.4258" style="stop-color:#EE4B41"/>
				<stop  offset="0.7773" style="stop-color:#F0623C"/>
				<stop  offset="1" style="stop-color:#F16A3A"/>
			</radialGradient>
			<path id="XMLID_1202_" class="st50" d="M1303.329,686.126c-26.252,17.545-41.939,47.081-41.939,78.778
				c0,18.697,5.513,36.795,15.987,52.504c14.03,20.945,35.346,35.277,60.128,40.191c24.803,4.961,50.022-0.184,71.014-14.148
				c26.274-17.592,42.077-47.081,42.077-78.64c0-18.788-5.513-37.022-15.987-52.501c-13.961-21.038-35.462-35.371-60.174-40.332
				C1349.63,667.017,1324.458,672.115,1303.329,686.126z"/>
			<radialGradient id="XMLID_68_" cx="2080.1814" cy="1866.9539" r="1834.479" gradientUnits="userSpaceOnUse">
				<stop  offset="0" style="stop-color:#EA2749"/>
				<stop  offset="0.4258" style="stop-color:#EE4B41"/>
				<stop  offset="0.7773" style="stop-color:#F0623C"/>
				<stop  offset="1" style="stop-color:#F16A3A"/>
			</radialGradient>
			<path id="XMLID_1203_" class="st51" d="M1550.57,728.752c23.452,9.69,49.22,9.69,72.462,0
				c35.599-14.698,58.454-49.014,58.454-87.366c0-12.497-2.435-24.622-7.168-36.151c-19.98-48.233-75.494-71.201-123.749-51.265
				c-35.346,14.745-58.314,49.057-58.314,87.416c0,12.4,2.41,24.572,7.168,36.102
				C1509.208,700.961,1527.328,719.058,1550.57,728.752z"/>
			<radialGradient id="XMLID_69_" cx="2080.1724" cy="1866.9806" r="1834.5062" gradientUnits="userSpaceOnUse">
				<stop  offset="0" style="stop-color:#EA2749"/>
				<stop  offset="0.4258" style="stop-color:#EE4B41"/>
				<stop  offset="0.7773" style="stop-color:#F0623C"/>
				<stop  offset="1" style="stop-color:#F16A3A"/>
			</radialGradient>
			<path id="XMLID_1204_" class="st52" d="M1784.862,644.002c20.992,14.148,46.207,19.065,71.014,14.148
				c44.19-8.726,76.158-47.818,76.158-92.651c0-6.197-0.596-12.491-1.857-18.603c-4.939-24.803-19.178-46.207-40.219-60.128
				c-20.988-14.055-46.207-19.109-71.014-14.192c-44.14,8.819-76.159,47.771-76.159,92.742c0,6.2,0.596,12.403,1.861,18.51
				C1749.585,608.634,1763.823,630.041,1784.862,644.002z"/>
			<radialGradient id="XMLID_70_" cx="2080.1768" cy="1866.9801" r="1834.5172" gradientUnits="userSpaceOnUse">
				<stop  offset="0" style="stop-color:#EA2749"/>
				<stop  offset="0.4258" style="stop-color:#EE4B41"/>
				<stop  offset="0.7773" style="stop-color:#F0623C"/>
				<stop  offset="1" style="stop-color:#F16A3A"/>
			</radialGradient>
			<path id="XMLID_1205_" class="st53" d="M2097.953,445.06c-52.186,0-94.625,42.442-94.625,94.671
				c0,52.135,42.439,94.534,94.625,94.534c52.179,0,94.603-42.398,94.603-94.534C2192.556,487.502,2150.132,445.06,2097.953,445.06z
				"/>
			<radialGradient id="XMLID_71_" cx="2080.1765" cy="1866.9149" r="1834.4282" gradientUnits="userSpaceOnUse">
				<stop  offset="0" style="stop-color:#EA2749"/>
				<stop  offset="0.4258" style="stop-color:#EE4B41"/>
				<stop  offset="0.7773" style="stop-color:#F0623C"/>
				<stop  offset="1" style="stop-color:#F16A3A"/>
			</radialGradient>
			<path id="XMLID_1206_" class="st54" d="M2265.705,546.896c-1.196,6.113-1.745,12.406-1.745,18.603
				c0,44.833,31.949,83.926,76.162,92.651c51.146,10.152,101.052-23.152,111.205-74.323c1.149-6.106,1.861-12.31,1.861-18.51
				c0-44.971-32.087-83.923-76.184-92.742C2325.857,462.424,2275.879,495.725,2265.705,546.896z"/>
			<radialGradient id="XMLID_72_" cx="2080.1741" cy="1867.0078" r="1834.5461" gradientUnits="userSpaceOnUse">
				<stop  offset="0" style="stop-color:#EA2749"/>
				<stop  offset="0.4258" style="stop-color:#EE4B41"/>
				<stop  offset="0.7773" style="stop-color:#F0623C"/>
				<stop  offset="1" style="stop-color:#F16A3A"/>
			</radialGradient>
			<path id="XMLID_1207_" class="st55" d="M2521.653,605.234c-4.823,11.529-7.258,23.655-7.258,36.151
				c0,38.352,22.968,72.668,58.545,87.366c48.024,19.98,103.559-3.031,123.496-51.265c4.755-11.529,7.165-23.701,7.165-36.102
				c0-38.359-22.874-72.671-58.314-87.416C2597.031,534.033,2541.633,557.001,2521.653,605.234z"/>
			<radialGradient id="XMLID_73_" cx="2080.1772" cy="1866.9983" r="1834.5253" gradientUnits="userSpaceOnUse">
				<stop  offset="0" style="stop-color:#EA2749"/>
				<stop  offset="0.4258" style="stop-color:#EE4B41"/>
				<stop  offset="0.7773" style="stop-color:#F0623C"/>
				<stop  offset="1" style="stop-color:#F16A3A"/>
			</radialGradient>
			<path id="XMLID_1208_" class="st56" d="M2787.432,843.45c43.407,29.034,102.204,17.273,131.188-26.043
				c10.452-15.709,15.984-33.807,15.984-52.504c0-31.697-15.709-61.233-42.073-78.778c-20.992-14.011-46.188-19.109-70.97-14.148
				c-24.944,4.961-46.142,19.293-60.265,40.332c-10.38,15.478-15.919,33.713-15.919,52.501
				C2745.376,796.369,2761.064,825.858,2787.432,843.45z"/>
			<radialGradient id="XMLID_74_" cx="2080.1826" cy="1866.989" r="1834.5172" gradientUnits="userSpaceOnUse">
				<stop  offset="0" style="stop-color:#EA2749"/>
				<stop  offset="0.4258" style="stop-color:#EE4B41"/>
				<stop  offset="0.7773" style="stop-color:#F0623C"/>
				<stop  offset="1" style="stop-color:#F16A3A"/>
			</radialGradient>
			<path id="XMLID_1209_" class="st57" d="M2975.488,997.746c17.823,17.917,41.571,27.791,66.858,27.791
				c25.262,0,49.032-9.875,66.949-27.791c17.801-17.823,27.607-41.571,27.607-66.79c0-25.356-9.806-49.014-27.607-66.927
				c-36.91-36.932-97.016-36.932-133.807,0c-17.913,17.913-27.697,41.571-27.697,66.927
				C2947.791,956.175,2957.574,979.923,2975.488,997.746z"/>
			<radialGradient id="XMLID_75_" cx="2080.1846" cy="1866.9648" r="1834.4955" gradientUnits="userSpaceOnUse">
				<stop  offset="0" style="stop-color:#EA2749"/>
				<stop  offset="0.4258" style="stop-color:#EE4B41"/>
				<stop  offset="0.7773" style="stop-color:#F0623C"/>
				<stop  offset="1" style="stop-color:#F16A3A"/>
			</radialGradient>
			<path id="XMLID_1210_" class="st58" d="M3155.874,1054.612c-26.23,17.548-42.03,46.991-42.03,78.734
				c0,18.694,5.51,36.932,15.894,52.457c29.074,43.363,87.872,55.123,131.279,26.136c26.23-17.639,41.939-47.084,41.939-78.778
				c0-18.697-5.42-36.795-15.894-52.413C3258.078,1037.341,3199.305,1025.628,3155.874,1054.612z"/>
			<radialGradient id="XMLID_76_" cx="2080.1814" cy="1866.9835" r="1834.5051" gradientUnits="userSpaceOnUse">
				<stop  offset="0" style="stop-color:#EA2749"/>
				<stop  offset="0.4258" style="stop-color:#EE4B41"/>
				<stop  offset="0.7773" style="stop-color:#F0623C"/>
				<stop  offset="1" style="stop-color:#F16A3A"/>
			</radialGradient>
			<path id="XMLID_1211_" class="st59" d="M3368.09,1276.753c-23.38-9.6-49.151-9.6-72.394,0
				c-35.461,14.698-58.426,49.014-58.426,87.506c0,12.403,2.341,24.572,7.162,36.105c9.697,23.38,27.885,41.571,51.264,51.171
				c23.243,9.693,49.014,9.693,72.394,0c35.415-14.607,58.407-48.92,58.407-87.413c0-12.403-2.435-24.579-7.19-36.105
				C3409.64,1304.637,3391.405,1286.443,3368.09,1276.753z"/>
			<radialGradient id="XMLID_77_" cx="2080.1868" cy="1866.9918" r="1834.4922" gradientUnits="userSpaceOnUse">
				<stop  offset="0" style="stop-color:#EA2749"/>
				<stop  offset="0.4258" style="stop-color:#EE4B41"/>
				<stop  offset="0.7773" style="stop-color:#F0623C"/>
				<stop  offset="1" style="stop-color:#F16A3A"/>
			</radialGradient>
			<path id="XMLID_1212_" class="st60" d="M3313.198,1614.6c0,6.203,0.712,12.497,1.883,18.56
				c10.152,51.171,60.037,84.522,111.211,74.367c44.187-8.863,76.155-47.771,76.155-92.739c0-6.203-0.571-12.403-1.836-18.513
				c-10.105-51.127-60.084-84.472-111.23-74.323C3345.307,1530.681,3313.198,1569.723,3313.198,1614.6z"/>
			<radialGradient id="XMLID_78_" cx="2080.1714" cy="1866.9795" r="1834.5153" gradientUnits="userSpaceOnUse">
				<stop  offset="0" style="stop-color:#EA2749"/>
				<stop  offset="0.4258" style="stop-color:#EE4B41"/>
				<stop  offset="0.7773" style="stop-color:#F0623C"/>
				<stop  offset="1" style="stop-color:#F16A3A"/>
			</radialGradient>
			<path id="XMLID_1213_" class="st61" d="M3656.1,1780.657c-52.089,0-94.577,42.442-94.577,94.581
				c0,52.179,42.489,94.625,94.577,94.625c52.136,0,94.559-42.445,94.559-94.625
				C3750.659,1823.099,3708.236,1780.657,3656.1,1780.657z"/>
			<radialGradient id="XMLID_79_" cx="2080.1704" cy="1866.9944" r="1834.5157" gradientUnits="userSpaceOnUse">
				<stop  offset="0" style="stop-color:#EA2749"/>
				<stop  offset="0.4258" style="stop-color:#EE4B41"/>
				<stop  offset="0.7773" style="stop-color:#F0623C"/>
				<stop  offset="1" style="stop-color:#F16A3A"/>
			</radialGradient>
			<path id="XMLID_1214_" class="st62" d="M3641.655,2106.654c-24.691-5.236-49.953-0.55-71.085,13.184
				c-21.219,13.78-35.783,35.003-41.019,59.716c-1.333,6.475-2.092,13.184-2.092,19.752c0,44.371,31.49,83.233,74.991,92.42
				c24.713,5.235,49.975,0.596,71.198-13.184c21.107-13.736,35.646-34.956,40.881-59.669c1.427-6.521,2.135-13.09,2.135-19.752
				C3716.665,2154.84,3685.177,2115.888,3641.655,2106.654z"/>
			<radialGradient id="XMLID_80_" cx="2080.1719" cy="1867.009" r="1834.504" gradientUnits="userSpaceOnUse">
				<stop  offset="0" style="stop-color:#EA2749"/>
				<stop  offset="0.4258" style="stop-color:#EE4B41"/>
				<stop  offset="0.7773" style="stop-color:#F0623C"/>
				<stop  offset="1" style="stop-color:#F16A3A"/>
			</radialGradient>
			<path id="XMLID_1215_" class="st63" d="M3559.89,2422.639c-47.656-21.223-103.65,0.275-124.873,47.865
				c-5.51,12.31-8.223,25.172-8.223,38.446c0,37.391,21.981,71.338,56.178,86.401c47.59,21.36,103.675-0.181,124.897-47.862
				c5.42-12.172,8.129-25.172,8.129-38.446C3616,2471.743,3593.997,2437.749,3559.89,2422.639z"/>
			<radialGradient id="XMLID_81_" cx="2080.1824" cy="1866.9917" r="1834.4969" gradientUnits="userSpaceOnUse">
				<stop  offset="0" style="stop-color:#EA2749"/>
				<stop  offset="0.4258" style="stop-color:#EE4B41"/>
				<stop  offset="0.7773" style="stop-color:#F0623C"/>
				<stop  offset="1" style="stop-color:#F16A3A"/>
			</radialGradient>
			<path id="XMLID_1216_" class="st64" d="M3414.094,2714.554c-42.261-30.641-101.449-21.223-132.084,20.991
				c-11.807,16.171-18.098,35.462-18.098,55.535c0,30.223,14.514,58.798,39.042,76.527c20.442,14.929,45.43,20.945,70.349,16.858
				c24.966-3.859,46.878-17.364,61.807-37.759c11.735-16.306,18.029-35.505,18.029-55.535
				C3453.14,2760.945,3438.601,2732.237,3414.094,2714.554z"/>
			<radialGradient id="XMLID_82_" cx="2080.1626" cy="1866.9908" r="1834.5106" gradientUnits="userSpaceOnUse">
				<stop  offset="0" style="stop-color:#EA2749"/>
				<stop  offset="0.4258" style="stop-color:#EE4B41"/>
				<stop  offset="0.7773" style="stop-color:#F0623C"/>
				<stop  offset="1" style="stop-color:#F16A3A"/>
			</radialGradient>
			<path id="XMLID_1217_" class="st65" d="M3077.208,2962.875c-19.865,17.917-31.281,43.547-31.281,70.327
				c0,23.474,8.704,45.889,24.416,63.253c16.833,18.831,40.01,29.858,65.272,31.097c25.219,1.47,49.52-7.168,68.213-24.026
				c19.98-17.913,31.328-43.591,31.328-70.324c0-23.47-8.66-45.935-24.344-63.346
				C3175.944,2931.182,3115.957,2928.013,3077.208,2962.875z"/>
			<radialGradient id="XMLID_83_" cx="2080.1836" cy="1866.9884" r="1834.4934" gradientUnits="userSpaceOnUse">
				<stop  offset="0" style="stop-color:#EA2749"/>
				<stop  offset="0.4258" style="stop-color:#EE4B41"/>
				<stop  offset="0.7773" style="stop-color:#F0623C"/>
				<stop  offset="1" style="stop-color:#F16A3A"/>
			</radialGradient>
			<path id="XMLID_1218_" class="st66" d="M2901.462,3133.293c-24.413-6.615-49.885-3.216-71.725,9.372
				c-29.124,16.858-47.356,48.414-47.356,82.084c0,16.49,4.477,32.892,12.675,47.222c26.183,45.246,84.107,60.727,129.262,34.681
				c29.168-16.858,47.312-48.23,47.312-81.993c0-16.537-4.364-32.936-12.609-47.265
				C2946.32,3155.48,2925.878,3139.771,2901.462,3133.293z"/>
			<radialGradient id="XMLID_84_" cx="2080.1826" cy="1866.9532" r="1834.5328" gradientUnits="userSpaceOnUse">
				<stop  offset="0" style="stop-color:#EA2749"/>
				<stop  offset="0.4258" style="stop-color:#EE4B41"/>
				<stop  offset="0.7773" style="stop-color:#F0623C"/>
				<stop  offset="1" style="stop-color:#F16A3A"/>
			</radialGradient>
			<path id="XMLID_1219_" class="st67" d="M2550.224,3267.194c-39.136,12.722-65.363,48.829-65.363,89.938
				c0,9.968,1.536,19.752,4.661,29.215c16.053,49.657,69.543,76.989,119.131,60.771c39.183-12.675,65.41-48.83,65.41-89.892
				c0-10.015-1.561-19.799-4.639-29.261C2653.346,3278.355,2599.834,3251.116,2550.224,3267.194z"/>
			<radialGradient id="XMLID_85_" cx="2080.1753" cy="1866.9501" r="1834.5479" gradientUnits="userSpaceOnUse">
				<stop  offset="0" style="stop-color:#EA2749"/>
				<stop  offset="0.4258" style="stop-color:#EE4B41"/>
				<stop  offset="0.7773" style="stop-color:#F0623C"/>
				<stop  offset="1" style="stop-color:#F16A3A"/>
			</radialGradient>
			<path id="XMLID_1220_" class="st68" d="M2250.96,3330.768c-48.324,5.145-84.772,45.52-84.772,94.075
				c0,3.306,0.206,6.565,0.574,9.875c5.442,51.905,52.136,89.71,103.95,84.197c48.367-5.051,84.681-45.43,84.681-93.938
				c0-3.306-0.069-6.612-0.459-10.012C2349.399,3363.152,2302.774,3325.349,2250.96,3330.768z"/>
			<radialGradient id="XMLID_86_" cx="2080.1763" cy="1866.9795" r="1834.5123" gradientUnits="userSpaceOnUse">
				<stop  offset="0" style="stop-color:#EA2749"/>
				<stop  offset="0.4258" style="stop-color:#EE4B41"/>
				<stop  offset="0.7773" style="stop-color:#F0623C"/>
				<stop  offset="1" style="stop-color:#F16A3A"/>
			</radialGradient>
			<path id="XMLID_1221_" class="st69" d="M2029.209,3434.718c0.3-3.309,0.462-6.569,0.462-9.875
				c0-48.555-36.404-88.93-84.659-94.075c-25.103-2.619-49.816,4.777-69.475,20.623c-19.571,15.894-31.881,38.493-34.497,63.574
				c-0.368,3.4-0.574,6.706-0.574,10.012c0,48.508,36.401,88.886,84.772,93.938c25.081,2.71,49.7-4.639,69.362-20.533
				C2014.258,3482.489,2026.568,3459.933,2029.209,3434.718z"/>
			<radialGradient id="XMLID_87_" cx="2080.1799" cy="1866.9532" r="1834.5419" gradientUnits="userSpaceOnUse">
				<stop  offset="0" style="stop-color:#EA2749"/>
				<stop  offset="0.4258" style="stop-color:#EE4B41"/>
				<stop  offset="0.7773" style="stop-color:#F0623C"/>
				<stop  offset="1" style="stop-color:#F16A3A"/>
			</radialGradient>
			<path id="XMLID_1222_" class="st70" d="M1645.726,3267.194c-49.61-16.078-103.1,11.161-119.247,60.771
				c-3.031,9.462-4.664,19.246-4.664,29.261c0,41.062,26.346,77.217,65.391,89.892c49.7,16.218,103.1-11.114,119.244-60.771
				c3.009-9.462,4.664-19.246,4.664-29.121C1711.114,3316.023,1684.862,3279.916,1645.726,3267.194z"/>
			<radialGradient id="XMLID_88_" cx="2080.1646" cy="1866.9884" r="1834.4928" gradientUnits="userSpaceOnUse">
				<stop  offset="0" style="stop-color:#EA2749"/>
				<stop  offset="0.4258" style="stop-color:#EE4B41"/>
				<stop  offset="0.7773" style="stop-color:#F0623C"/>
				<stop  offset="1" style="stop-color:#F16A3A"/>
			</radialGradient>
			<path id="XMLID_1223_" class="st71" d="M1366.214,3142.665c-21.913-12.587-47.406-15.987-71.797-9.372
				c-24.438,6.478-44.787,22.187-57.465,44.1c-8.314,14.33-12.675,30.729-12.675,47.265c0,33.763,18.119,65.135,47.356,81.993
				c45.155,26.046,103.075,10.564,129.168-34.681c8.314-14.329,12.678-30.732,12.678-47.222
				C1413.479,3190.942,1395.359,3159.523,1366.214,3142.665z"/>
			<radialGradient id="XMLID_89_" cx="2080.1592" cy="1866.9728" r="1834.5115" gradientUnits="userSpaceOnUse">
				<stop  offset="0" style="stop-color:#EA2749"/>
				<stop  offset="0.4258" style="stop-color:#EE4B41"/>
				<stop  offset="0.7773" style="stop-color:#F0623C"/>
				<stop  offset="1" style="stop-color:#F16A3A"/>
			</radialGradient>
			<path id="XMLID_1224_" class="st72" d="M985.046,2969.953c-15.688,17.314-24.298,39.779-24.298,63.25
				c0,26.733,11.414,52.41,31.281,70.324c18.809,16.858,43.038,25.497,68.304,24.026c25.194-1.24,48.461-12.266,65.319-31.097
				c15.688-17.364,24.298-39.779,24.298-63.253c0-26.78-11.414-52.41-31.303-70.327
				C1079.902,2928.013,1020.027,2931.182,985.046,2969.953z"/>
			<radialGradient id="XMLID_90_" cx="2080.1736" cy="1866.9808" r="1834.5092" gradientUnits="userSpaceOnUse">
				<stop  offset="0" style="stop-color:#EA2749"/>
				<stop  offset="0.4258" style="stop-color:#EE4B41"/>
				<stop  offset="0.7773" style="stop-color:#F0623C"/>
				<stop  offset="1" style="stop-color:#F16A3A"/>
			</radialGradient>
			<path id="XMLID_1225_" class="st73" d="M822.577,2884.466c24.988,4.087,50.022-1.929,70.533-16.858
				c24.323-17.729,38.974-46.304,38.974-76.527c0-20.074-6.316-39.364-18.144-55.535c-14.835-20.532-36.816-33.854-61.689-37.987
				c-25.038-3.859-50.025,2.157-70.464,16.996c-24.416,17.682-39.045,46.391-39.045,76.617c0,20.03,6.294,39.229,18.098,55.535
				C775.768,2867.102,797.586,2880.607,822.577,2884.466z"/>
			<radialGradient id="XMLID_91_" cx="2080.1594" cy="1867.009" r="1834.4751" gradientUnits="userSpaceOnUse">
				<stop  offset="0" style="stop-color:#EA2749"/>
				<stop  offset="0.4258" style="stop-color:#EE4B41"/>
				<stop  offset="0.7773" style="stop-color:#F0623C"/>
				<stop  offset="1" style="stop-color:#F16A3A"/>
			</radialGradient>
			<path id="XMLID_1226_" class="st74" d="M769.105,2508.95c0-13.274-2.707-26.136-8.151-38.446
				c-21.223-47.59-77.195-69.087-124.872-47.865c-34.107,15.11-56.225,49.104-56.225,86.404c0,13.274,2.85,26.274,8.248,38.446
				c21.335,47.68,77.236,69.221,124.894,47.862C747.105,2580.288,769.105,2546.341,769.105,2508.95z"/>
			<radialGradient id="XMLID_92_" cx="2080.1677" cy="1866.9968" r="1834.4995" gradientUnits="userSpaceOnUse">
				<stop  offset="0" style="stop-color:#EA2749"/>
				<stop  offset="0.4258" style="stop-color:#EE4B41"/>
				<stop  offset="0.7773" style="stop-color:#F0623C"/>
				<stop  offset="1" style="stop-color:#F16A3A"/>
			</radialGradient>
			<path id="XMLID_1227_" class="st75" d="M668.512,2199.305c0-6.569-0.737-13.277-2.114-19.752
				c-10.864-50.987-61.233-83.739-112.198-72.899c-43.519,9.234-74.985,48.186-74.985,92.467c0,6.662,0.78,13.231,2.157,19.752
				c5.214,24.713,19.843,45.932,40.928,59.669c21.219,13.78,46.532,18.419,71.245,13.184
				C636.953,2282.538,668.512,2243.677,668.512,2199.305z"/>
			<radialGradient id="XMLID_93_" cx="2080.1692" cy="1866.9795" r="1834.5029" gradientUnits="userSpaceOnUse">
				<stop  offset="0" style="stop-color:#EA2749"/>
				<stop  offset="0.4258" style="stop-color:#EE4B41"/>
				<stop  offset="0.7773" style="stop-color:#F0623C"/>
				<stop  offset="1" style="stop-color:#F16A3A"/>
			</radialGradient>
			<path id="XMLID_1228_" class="st76" d="M634.427,1875.237c0-52.139-42.442-94.581-94.578-94.581
				c-52.229,0-94.649,42.442-94.649,94.581c0,52.179,42.42,94.625,94.649,94.625
				C591.985,1969.862,634.427,1927.417,634.427,1875.237z"/>
			<radialGradient id="XMLID_94_" cx="2080.1677" cy="1866.9672" r="1834.4983" gradientUnits="userSpaceOnUse">
				<stop  offset="0" style="stop-color:#EA2749"/>
				<stop  offset="0.4258" style="stop-color:#EE4B41"/>
				<stop  offset="0.7773" style="stop-color:#F0623C"/>
				<stop  offset="1" style="stop-color:#F16A3A"/>
			</radialGradient>
			<path id="XMLID_1229_" class="st77" d="M554.201,1643.862c51.059,10.842,101.333-21.913,112.198-72.852
				c1.377-6.522,2.114-13.09,2.114-19.799c0-44.325-31.559-83.186-74.966-92.42c-50.965-10.839-101.355,21.822-112.173,72.856
				c-1.377,6.475-2.157,13.09-2.157,19.796C479.216,1595.679,510.682,1634.677,554.201,1643.862z"/>
			<radialGradient id="XMLID_95_" cx="2080.1594" cy="1866.9641" r="1834.4904" gradientUnits="userSpaceOnUse">
				<stop  offset="0" style="stop-color:#EA2749"/>
				<stop  offset="0.4258" style="stop-color:#EE4B41"/>
				<stop  offset="0.7773" style="stop-color:#F0623C"/>
				<stop  offset="1" style="stop-color:#F16A3A"/>
			</radialGradient>
			<path id="XMLID_1230_" class="st78" d="M636.082,1327.923c47.677,21.313,103.65-0.275,124.872-47.955
				c5.445-12.125,8.151-25.125,8.151-38.402c0-37.388-22-71.288-56.107-86.495c-23.08-10.287-48.805-10.977-72.369-1.836
				c-23.52,9.004-42.236,26.733-52.526,49.791c-5.398,12.172-8.248,25.219-8.248,38.449
				C579.857,1278.776,601.975,1312.676,636.082,1327.923z"/>
			<radialGradient id="XMLID_96_" cx="2080.1736" cy="1867.0223" r="1834.538" gradientUnits="userSpaceOnUse">
				<stop  offset="0" style="stop-color:#EA2749"/>
				<stop  offset="0.4258" style="stop-color:#EE4B41"/>
				<stop  offset="0.7773" style="stop-color:#F0623C"/>
				<stop  offset="1" style="stop-color:#F16A3A"/>
			</radialGradient>
			<path id="XMLID_1231_" class="st79" d="M781.786,1036.008c42.236,30.594,101.424,21.223,132.153-20.945
				c11.829-16.309,18.144-35.555,18.144-55.582c0-30.176-14.651-58.841-38.974-76.574c-20.511-14.926-45.545-20.807-70.533-16.949
				c-24.897,3.952-46.81,17.411-61.623,37.897c-11.919,16.262-18.213,35.415-18.213,55.488
				C742.741,989.57,757.37,1018.188,781.786,1036.008z"/>
			<radialGradient id="XMLID_97_" cx="2080.1592" cy="1867.0314" r="1834.55" gradientUnits="userSpaceOnUse">
				<stop  offset="0" style="stop-color:#EA2749"/>
				<stop  offset="0.4258" style="stop-color:#EE4B41"/>
				<stop  offset="0.7773" style="stop-color:#F0623C"/>
				<stop  offset="1" style="stop-color:#F16A3A"/>
			</radialGradient>
			<path id="XMLID_1232_" class="st80" d="M1118.648,787.64c19.89-17.913,31.303-43.591,31.303-70.327
				c0-23.427-8.61-45.932-24.298-63.25c-16.858-18.787-40.126-29.811-65.319-31.191c-25.266-1.377-49.494,7.258-68.304,24.207
				c-19.868,17.867-31.281,43.5-31.281,70.233c0,23.477,8.61,45.935,24.298,63.299
				C1019.934,819.474,1079.902,822.552,1118.648,787.64z"/>
			<radialGradient id="XMLID_98_" cx="2080.1646" cy="1866.9762" r="1834.5021" gradientUnits="userSpaceOnUse">
				<stop  offset="0" style="stop-color:#EA2749"/>
				<stop  offset="0.4258" style="stop-color:#EE4B41"/>
				<stop  offset="0.7773" style="stop-color:#F0623C"/>
				<stop  offset="1" style="stop-color:#F16A3A"/>
			</radialGradient>
			<path id="XMLID_1233_" class="st81" d="M1366.214,607.854c29.146-16.952,47.265-48.324,47.265-82.087
				c0-16.443-4.364-32.842-12.678-47.175c-12.631-21.909-33.051-37.572-57.462-44.05c-24.326-6.615-49.794-3.219-71.707,9.369
				c-29.236,16.858-47.356,48.233-47.356,81.993c0,16.54,4.361,32.936,12.675,47.268
				C1263.044,618.324,1321.058,633.896,1366.214,607.854z"/>
			<radialGradient id="XMLID_99_" cx="2080.1799" cy="1866.929" r="1834.4545" gradientUnits="userSpaceOnUse">
				<stop  offset="0" style="stop-color:#EA2749"/>
				<stop  offset="0.4258" style="stop-color:#EE4B41"/>
				<stop  offset="0.7773" style="stop-color:#F0623C"/>
				<stop  offset="1" style="stop-color:#F16A3A"/>
			</radialGradient>
			<path id="XMLID_1234_" class="st82" d="M1587.206,303.441c-39.046,12.681-65.391,48.829-65.391,89.895
				c0,9.878,1.633,19.755,4.664,29.261c16.146,49.61,69.637,76.805,119.247,60.771c39.136-12.725,65.388-48.826,65.388-90.032
				c0-9.875-1.655-19.749-4.664-29.168C1690.306,314.558,1636.906,287.367,1587.206,303.441z"/>
			<radialGradient id="XMLID_100_" cx="2080.1763" cy="1866.9672" r="1834.5006" gradientUnits="userSpaceOnUse">
				<stop  offset="0" style="stop-color:#EA2749"/>
				<stop  offset="0.4258" style="stop-color:#EE4B41"/>
				<stop  offset="0.7773" style="stop-color:#F0623C"/>
				<stop  offset="1" style="stop-color:#F16A3A"/>
			</radialGradient>
			<path id="XMLID_1235_" class="st83" d="M1945.012,419.794c48.255-5.142,84.659-45.52,84.659-94.072
				c0-3.306-0.162-6.706-0.462-10.015c-2.641-25.081-14.951-47.634-34.609-63.618c-19.662-15.803-44.281-23.152-69.362-20.579
				c-48.371,5.145-84.772,45.567-84.772,94.119c0,3.262,0.206,6.568,0.574,9.968C1846.46,387.458,1893.085,425.217,1945.012,419.794
				z"/>
			<radialGradient id="XMLID_101_" cx="2080.1753" cy="1867.0151" r="1834.5555" gradientUnits="userSpaceOnUse">
				<stop  offset="0" style="stop-color:#EA2749"/>
				<stop  offset="0.4258" style="stop-color:#EE4B41"/>
				<stop  offset="0.7773" style="stop-color:#F0623C"/>
				<stop  offset="1" style="stop-color:#F16A3A"/>
			</radialGradient>
			<path id="XMLID_1236_" class="st84" d="M2166.762,315.707c-0.368,3.309-0.574,6.709-0.574,10.015
				c0,48.552,36.448,88.93,84.772,94.072c51.814,5.423,98.439-32.337,103.974-84.197c0.39-3.4,0.459-6.706,0.459-9.968
				c0-48.552-36.314-88.974-84.681-94.119C2218.898,226.134,2172.204,263.893,2166.762,315.707z"/>
			<radialGradient id="XMLID_102_" cx="2080.1826" cy="1866.929" r="1834.4532" gradientUnits="userSpaceOnUse">
				<stop  offset="0" style="stop-color:#EA2749"/>
				<stop  offset="0.4258" style="stop-color:#EE4B41"/>
				<stop  offset="0.7773" style="stop-color:#F0623C"/>
				<stop  offset="1" style="stop-color:#F16A3A"/>
			</radialGradient>
			<path id="XMLID_1237_" class="st85" d="M2550.224,483.368c49.61,16.034,103.122-11.161,119.2-60.771
				c3.078-9.506,4.639-19.384,4.639-29.261c0-41.065-26.227-77.214-65.41-89.895c-49.588-16.075-103.078,11.117-119.131,60.727
				c-3.125,9.419-4.661,19.293-4.661,29.308C2484.861,434.542,2511.088,470.643,2550.224,483.368z"/>
			<radialGradient id="XMLID_103_" cx="2080.1836" cy="1866.9762" r="1834.5068" gradientUnits="userSpaceOnUse">
				<stop  offset="0" style="stop-color:#EA2749"/>
				<stop  offset="0.4258" style="stop-color:#EE4B41"/>
				<stop  offset="0.7773" style="stop-color:#F0623C"/>
				<stop  offset="1" style="stop-color:#F16A3A"/>
			</radialGradient>
			<path id="XMLID_1238_" class="st86" d="M2829.736,607.854c45.155,26.043,103.125,10.471,129.284-34.681
				c8.245-14.333,12.609-30.729,12.609-47.268c0-33.76-18.144-65.135-47.312-81.993c-21.912-12.587-47.359-15.984-71.797-9.369
				c-24.413,6.478-44.74,22.14-57.465,44.05c-8.198,14.333-12.675,30.732-12.675,47.175
				C2782.38,559.53,2800.612,590.902,2829.736,607.854z"/>
			<radialGradient id="XMLID_104_" cx="2080.1626" cy="1867.0314" r="1834.5671" gradientUnits="userSpaceOnUse">
				<stop  offset="0" style="stop-color:#EA2749"/>
				<stop  offset="0.4258" style="stop-color:#EE4B41"/>
				<stop  offset="0.7773" style="stop-color:#F0623C"/>
				<stop  offset="1" style="stop-color:#F16A3A"/>
			</radialGradient>
			<path id="XMLID_1239_" class="st87" d="M3210.813,780.613c15.684-17.364,24.344-39.823,24.344-63.299
				c0-26.733-11.348-52.367-31.328-70.233c-18.694-16.949-42.995-25.584-68.213-24.207c-25.262,1.38-48.439,12.403-65.272,31.191
				c-15.712,17.317-24.416,39.823-24.416,63.25c0,26.736,11.417,52.413,31.281,70.327
				C3115.957,822.552,3175.944,819.474,3210.813,780.613z"/>
			<radialGradient id="XMLID_106_" cx="2080.1824" cy="1867.0223" r="1834.5347" gradientUnits="userSpaceOnUse">
				<stop  offset="0" style="stop-color:#EA2749"/>
				<stop  offset="0.4258" style="stop-color:#EE4B41"/>
				<stop  offset="0.7773" style="stop-color:#F0623C"/>
				<stop  offset="1" style="stop-color:#F16A3A"/>
			</radialGradient>
			<path id="XMLID_1240_" class="st88" d="M3373.304,865.959c-24.919-3.859-49.906,2.023-70.349,16.949
				c-24.529,17.732-39.042,46.397-39.042,76.574c0,20.027,6.291,39.273,18.098,55.582c30.635,42.167,89.823,51.539,132.084,20.945
				c24.507-17.82,39.045-46.438,39.045-76.664c0-20.074-6.294-39.227-18.029-55.488
				C3420.182,883.37,3398.27,869.911,3373.304,865.959z"/>
			<radialGradient id="XMLID_107_" cx="2080.1719" cy="1866.9641" r="1834.5176" gradientUnits="userSpaceOnUse">
				<stop  offset="0" style="stop-color:#EA2749"/>
				<stop  offset="0.4258" style="stop-color:#EE4B41"/>
				<stop  offset="0.7773" style="stop-color:#F0623C"/>
				<stop  offset="1" style="stop-color:#F16A3A"/>
			</radialGradient>
			<path id="XMLID_1241_" class="st89" d="M3426.794,1241.566c0,13.277,2.713,26.277,8.223,38.402
				c21.223,47.681,77.217,69.269,124.873,47.955c34.107-15.247,56.11-49.148,56.11-86.448c0-13.231-2.71-26.277-8.129-38.449
				c-10.38-23.058-28.987-40.787-52.598-49.791c-23.561-9.141-49.238-8.451-72.3,1.836
				C3448.776,1170.277,3426.794,1204.178,3426.794,1241.566z"/>
			<radialGradient id="XMLID_108_" cx="2080.1704" cy="1866.9613" r="1834.5114" gradientUnits="userSpaceOnUse">
				<stop  offset="0" style="stop-color:#EA2749"/>
				<stop  offset="0.4258" style="stop-color:#EE4B41"/>
				<stop  offset="0.7773" style="stop-color:#F0623C"/>
				<stop  offset="1" style="stop-color:#F16A3A"/>
			</radialGradient>
			<path id="XMLID_1242_" class="st90" d="M3527.46,1551.21c0,6.618,0.759,13.277,2.092,19.799
				c10.771,50.94,61.139,83.695,112.104,72.852c43.522-9.185,75.01-48.183,75.01-92.42c0-6.706-0.708-13.321-2.135-19.796
				c-5.235-24.76-19.774-45.892-40.881-59.672c-21.223-13.733-46.485-18.419-71.198-13.184
				C3558.95,1468.025,3527.46,1506.886,3527.46,1551.21z"/>
			<radialGradient id="XMLID_112_" cx="2080.1819" cy="1866.9795" r="1834.5039" gradientUnits="userSpaceOnUse">
				<stop  offset="0" style="stop-color:#EA2749"/>
				<stop  offset="0.4258" style="stop-color:#EE4B41"/>
				<stop  offset="0.7773" style="stop-color:#F0623C"/>
				<stop  offset="1" style="stop-color:#F16A3A"/>
			</radialGradient>
			<path id="XMLID_1243_" class="st91" d="M3878.653,1780.657c-52.135,0-94.556,42.442-94.556,94.581
				c0,52.179,42.42,94.625,94.556,94.625c52.229,0,94.671-42.445,94.671-94.625
				C3973.325,1823.099,3930.883,1780.657,3878.653,1780.657z"/>
			<radialGradient id="XMLID_113_" cx="2080.1958" cy="1866.9893" r="1834.4877" gradientUnits="userSpaceOnUse">
				<stop  offset="0" style="stop-color:#EA2749"/>
				<stop  offset="0.4258" style="stop-color:#EE4B41"/>
				<stop  offset="0.7773" style="stop-color:#F0623C"/>
				<stop  offset="1" style="stop-color:#F16A3A"/>
			</radialGradient>
			<path id="XMLID_1244_" class="st92" d="M3290.187,3067.468c-17.87,17.96-27.744,41.712-27.744,66.974
				c0,25.266,9.875,49.057,27.744,66.88c36.907,36.932,96.966,36.932,133.807,0c17.913-17.823,27.788-41.615,27.788-66.88
				c0-25.262-9.875-49.014-27.788-66.974C3387.153,3030.677,3327.094,3030.677,3290.187,3067.468z"/>
			<radialGradient id="XMLID_114_" cx="2080.1768" cy="1866.9645" r="1834.5352" gradientUnits="userSpaceOnUse">
				<stop  offset="0" style="stop-color:#EA2749"/>
				<stop  offset="0.4258" style="stop-color:#EE4B41"/>
				<stop  offset="0.7773" style="stop-color:#F0623C"/>
				<stop  offset="1" style="stop-color:#F16A3A"/>
			</radialGradient>
			<path id="XMLID_1245_" class="st93" d="M2097.953,3561.451c-52.186,0-94.625,42.442-94.625,94.578
				c0,52.092,42.439,94.537,94.625,94.537c52.179,0,94.603-42.445,94.603-94.537
				C2192.556,3603.893,2150.132,3561.451,2097.953,3561.451z"/>
			<radialGradient id="XMLID_115_" cx="2080.1704" cy="1866.9893" r="1834.5052" gradientUnits="userSpaceOnUse">
				<stop  offset="0" style="stop-color:#EA2749"/>
				<stop  offset="0.4258" style="stop-color:#EE4B41"/>
				<stop  offset="0.7773" style="stop-color:#F0623C"/>
				<stop  offset="1" style="stop-color:#F16A3A"/>
			</radialGradient>
			<path id="XMLID_1246_" class="st94" d="M771.909,3067.468c-17.913,17.96-27.719,41.712-27.719,66.974
				c0,25.266,9.806,49.057,27.719,66.88c36.841,36.932,96.875,36.932,133.807,0c17.823-17.823,27.701-41.615,27.701-66.88
				c0-25.262-9.878-49.014-27.701-66.974C868.784,3030.677,808.75,3030.677,771.909,3067.468z"/>
			<radialGradient id="XMLID_116_" cx="2080.1907" cy="1866.9795" r="1834.5322" gradientUnits="userSpaceOnUse">
				<stop  offset="0" style="stop-color:#EA2749"/>
				<stop  offset="0.4258" style="stop-color:#EE4B41"/>
				<stop  offset="0.7773" style="stop-color:#F0623C"/>
				<stop  offset="1" style="stop-color:#F16A3A"/>
			</radialGradient>
			<path id="XMLID_1247_" class="st95" d="M317.203,1780.657c-52.136,0-94.534,42.442-94.534,94.581
				c0,52.179,42.398,94.625,94.534,94.625c52.229,0,94.581-42.445,94.581-94.625
				C411.783,1823.099,369.432,1780.657,317.203,1780.657z"/>
			<radialGradient id="XMLID_117_" cx="2080.1704" cy="1866.9819" r="1834.5123" gradientUnits="userSpaceOnUse">
				<stop  offset="0" style="stop-color:#EA2749"/>
				<stop  offset="0.4258" style="stop-color:#EE4B41"/>
				<stop  offset="0.7773" style="stop-color:#F0623C"/>
				<stop  offset="1" style="stop-color:#F16A3A"/>
			</radialGradient>
			<path id="XMLID_1248_" class="st96" d="M838.77,710.654c25.284,0,49.032-9.784,66.946-27.654
				c17.823-17.913,27.701-41.615,27.701-66.927c0-25.262-9.878-49.011-27.701-66.927c-36.932-36.838-96.966-36.838-133.807,0
				c-17.913,17.917-27.719,41.665-27.719,66.927c0,25.312,9.806,49.014,27.719,66.927
				C789.732,700.87,813.574,710.654,838.77,710.654z"/>
			<radialGradient id="XMLID_118_" cx="2080.1768" cy="1866.9658" r="1834.5012" gradientUnits="userSpaceOnUse">
				<stop  offset="0" style="stop-color:#EA2749"/>
				<stop  offset="0.4258" style="stop-color:#EE4B41"/>
				<stop  offset="0.7773" style="stop-color:#F0623C"/>
				<stop  offset="1" style="stop-color:#F16A3A"/>
			</radialGradient>
			<path id="XMLID_1249_" class="st97" d="M2097.953,189.112c52.179,0,94.603-42.352,94.603-94.581
				c0-52.089-42.423-94.531-94.603-94.531c-52.186,0-94.625,42.442-94.625,94.531
				C2003.329,146.76,2045.767,189.112,2097.953,189.112z"/>
			<radialGradient id="XMLID_119_" cx="2080.1958" cy="1866.9819" r="1834.499" gradientUnits="userSpaceOnUse">
				<stop  offset="0" style="stop-color:#EA2749"/>
				<stop  offset="0.4258" style="stop-color:#EE4B41"/>
				<stop  offset="0.7773" style="stop-color:#F0623C"/>
				<stop  offset="1" style="stop-color:#F16A3A"/>
			</radialGradient>
			<path id="XMLID_1250_" class="st98" d="M3357.114,710.654c25.309,0,49.101-9.784,66.88-27.654
				c17.913-17.913,27.788-41.615,27.788-66.927c0-25.262-9.875-49.011-27.788-66.927c-36.842-36.838-96.9-36.838-133.807,0
				c-17.87,17.917-27.744,41.665-27.744,66.927c0,25.312,9.875,49.014,27.744,66.927
				C3308.1,700.87,3331.826,710.654,3357.114,710.654z"/>
			<radialGradient id="XMLID_120_" cx="2080.2073" cy="1866.9795" r="1834.5406" gradientUnits="userSpaceOnUse">
				<stop  offset="0" style="stop-color:#EA2749"/>
				<stop  offset="0.4258" style="stop-color:#EE4B41"/>
				<stop  offset="0.7773" style="stop-color:#F0623C"/>
				<stop  offset="1" style="stop-color:#F16A3A"/>
			</radialGradient>
			<path id="XMLID_1251_" class="st99" d="M94.671,1780.657C42.42,1780.657,0,1823.099,0,1875.237
				c0,52.179,42.42,94.625,94.671,94.625c52.114,0,94.559-42.445,94.559-94.625C189.23,1823.099,146.785,1780.657,94.671,1780.657z"
				/>
		</g>
		<path id="XMLID_1252_" class="st100" d="M1901.402,1716.099v-58.336v-118.744h117.686h430.661v-151.078
			c-13.23,0-26.464,0-39.695,0c-33.092,0-66.184,0-99.276,0c-43.085,0-86.164,0-129.249,0c-80.133,0-160.284-0.677-240.479-0.528
			c-27.85,0.053-63.262-2.042-89.548,2.391c-46.401,7.827-83.717,45.08-98.352,89.739c-7.577,23.127-7.056,48.992-7.027,73.155
			c0.062,53.697,0.25,107.284,0.25,160.99c0,48.982,0,97.962,0,146.944c0,52.463,0,104.927,0,157.387c0,49.332,0,98.664,0,147.993
			c0,39.589,0,79.171,0,118.757c0,23.227,0,46.45,0,69.677c0,3.415,0,6.831,0,10.246h155.03v-363.525l0,0v-23.289l0,0v-65.638
			c4.439,0.006,8.879,0.016,13.318,0.022c11.554,0.019,23.108,0.041,34.666,0.059c16.047,0.028,32.093,0.053,48.143,0.081
			c17.917,0.031,35.83,0.062,53.746,0.094c14.642,0.025,29.283-0.343,43.922-0.109c15.363,0.244,30.988-0.325,46.351-0.081
			c6.759,0.106,13.739-0.106,20.498,0c27.969,0.44,55.117,1.205,81.094-10.343c4.58-2.036,9.041-4.324,13.368-6.853
			c18.073-10.571,33.641-25.306,45.199-42.77c11.801-17.842,19.287-38.406,21.709-59.662c0.59-5.201,0.887-10.436,0.887-15.672
			c0-4.639-0.209-9.097-0.715-13.596h-272.529h-149.657v-24.07V1716.099z"/>
	</g>
	<g id="XMLID_1253_">
		<g id="XMLID_1254_">
			<path id="XMLID_1255_" class="st100" d="M7937.281,3170.512v557.419h338.491v43.866H7890.93v-601.285H7937.281z"/>
			<path id="XMLID_1257_" class="st100" d="M8841.87,3771.797l-66.078-147.725h-359.049l-65.315,147.725h-49.795l269.682-601.285
				h50.668l269.775,601.285H8841.87z M8757.788,3581.075l-161.623-365.913l-161.414,365.913H8757.788z"/>
			<path id="XMLID_1260_" class="st100" d="M9404.571,3334.546c0,61.876-37.759,109.922-97.887,128.8
				c75.653,20.717,118.532,81.672,118.532,151.218c0,123.749-115.066,157.234-218.143,157.234c-87.622,0-158.957,0-246.507,0
				v-601.285c86.632,0,158.885,0,246.507,0C9308.474,3170.512,9404.571,3220.306,9404.571,3334.546z M9006.868,3442.813h206.153
				c72.188,0,147.771-22.325,147.771-108.267c0-87.644-78.915-124.529-153.719-124.529h-200.206V3442.813z M9006.868,3727.101
				h200.206c75.562,0,172.716-18.051,172.716-113.365c-0.989-93.66-85.968-127.101-166.769-127.101c-72.118,0-133.991,0-206.153,0
				V3727.101z"/>
			<path id="XMLID_1264_" class="st100" d="M9944.165,3286.497c-43.775-70.464-114.239-80.798-182.178-81.625
				c-70.371,0-182.084,25.724-182.084,121.957c0,76.527,82.499,94.487,183.876,113.368
				c115.94,22.368,236.221,43.039,236.221,172.666c-0.806,135.783-137.463,168.398-238.013,168.398
				c-93.522,0-200.092-38.677-246.532-130.592l41.343-20.623c36.838,73.08,131.325,109.138,205.189,109.138
				c73.957,0,191.641-20.67,191.641-127.192c0.827-90.169-98.715-109.922-197.656-128.756
				c-109.944-21.541-222.372-43.822-222.372-154.708c-2.573-127.145,129.651-166.603,228.388-166.603
				c85.942,0,160.681,13.687,219.937,102.205L9944.165,3286.497z"/>
		</g>
		<path id="XMLID_1266_" class="st100" d="M6192.267,2574.372c5.604-242.165,134.475-362.564,385.116-362.564h26.92v162.245l0,0
			h-68.95c-104.755,0-180.892,88.421-180.892,197.519v388.885h0.094h-162.288V2574.372z"/>
		<path id="XMLID_1268_" class="st100" d="M8771.73,2215.164c-21.035,0-41.999,4.377-61.232,12.9
			c-18.642,8.26-35.543,20.33-49.448,35.243c-13.948,14.96-24.825,32.73-31.759,51.976c-3.556,9.875-6.075,20.117-7.508,30.513
			c-1.857,13.465-1.521,27.157-1.465,40.728c0.072,16.821,0.078,33.645,0.078,50.468c0,18.101,0,36.198,0,54.299
			c0,19.062,0,38.125,0,57.187c0,17.12,0,34.241,0,51.365c0,12.272,0,24.551,0,36.823c0,4.53,0,9.06,0.025,13.589
			c-1.427,80.479-66.999,145.246-147.865,145.246c-80.822,0-146.395-64.767-147.818-145.246v-433.209h-174.07
			c0,0,0,433.209,0.162,433.209c6.384,172.488,147.682,310.428,321.727,310.428c174.023,0,315.386-137.941,321.933-310.428v-165.869
			v-267.34v-1.883H8771.73z"/>
		<g id="XMLID_1269_">
			<path id="XMLID_1270_" class="st100" d="M7917.16,1999.361c-9.003,0-17.708,0.965-26.23,2.666v149.791h160.037
				c0.781-5.741,1.196-11.529,1.196-17.498C8052.163,2059.86,7991.783,1999.361,7917.16,1999.361z"/>
			<path id="XMLID_1271_" class="st100" d="M8052.968,2351.141c-0.256-11.563-1.192-23.08-3.977-34.334
				c-0.587-2.37-1.249-4.717-1.992-7.046c-4.667-14.635-11.848-28.44-21.123-40.685c-18.56-24.494-45.327-42.314-75.144-49.813
				c-10.867-2.735-22.072-4.099-33.276-4.099c-9.185,0-18.004,0.918-26.526,2.526v137.298v13.736v591.732h161.807
				c0-5.036,0-10.068,0-15.104c0-13.733,0-27.469,0-41.206c0-20.402,0-40.806,0-61.208c0-25.038,0-50.072,0-75.11
				c0-27.632,0-55.27,0-82.905c0-28.197,0-56.4,0-84.597c0-26.733,0-53.459,0-80.192c0-23.227,0-46.451,0-69.677
				c0-22.79,0.053-45.583,0.112-68.373C8052.878,2371.827,8053.193,2361.462,8052.968,2351.141z"/>
		</g>
		<path id="XMLID_1272_" class="st100" d="M4858.358,2321.814v-58.335v-118.744h117.686h430.662v-151.078
			c-13.23,0-26.464,0-39.695,0c-33.092,0-66.187,0-99.276,0c-43.085,0-86.167,0-129.252,0c-80.129,0-160.291-1.561-240.479-0.531
			c-29.336,0.381-60.893-2.173-89.548,2.395c-46.466,7.408-83.713,45.08-98.349,89.739c-7.58,23.127-7.055,48.992-7.027,73.155
			c0.062,53.693,0.25,107.281,0.25,160.99c0,48.979,0,97.962,0,146.941c0,52.463,0,104.927,0,157.39c0,49.332,0,98.661,0,147.993
			c0,39.585,0,79.171,0,118.757c0,23.224,0,46.45,0,69.674c0,3.418,0,6.834,0,10.249h155.03v-363.525l0,0v-23.286l0,0v-65.641
			c4.439,0.006,8.875,0.012,13.315,0.019c11.557,0.022,23.111,0.041,34.666,0.062c16.049,0.025,32.096,0.053,48.143,0.081
			c17.917,0.031,35.833,0.062,53.746,0.094c14.642,0.022,29.284-0.34,43.925-0.113c15.363,0.247,30.988-0.325,46.351-0.078
			c6.759,0.106,13.736-0.109,20.495,0c27.969,0.44,55.117,1.205,81.097-10.343c4.577-2.035,9.041-4.324,13.365-6.855
			c18.076-10.571,33.645-25.303,45.198-42.767c11.804-17.845,19.291-38.409,21.713-59.666c0.59-5.198,0.887-10.433,0.887-15.669
			c0-4.639-0.209-9.094-0.715-13.596h-272.528h-149.657v-24.07V2321.814z"/>
		<path id="XMLID_1273_" class="st100" d="M7811.44,2526.463c-6.362-172.487-147.703-310.428-321.77-310.428
			c-92.904,0-176.321,39.458-235.141,102.388c-58.819-62.931-142.327-102.388-235.206-102.388
			c-174.027,0-315.389,137.941-321.776,310.428h-0.228v433.993h174.092v-433.902c1.492-80.476,66.971-145.336,147.912-145.336
			c81.553,0,147.678,66.009,147.906,147.497h0.209v431.742h174.089v-431.742h0.097c0.391-81.488,66.487-147.497,148.046-147.497
			c80.913,0,146.417,64.723,147.909,145.246h-0.068v254.983v22.047c5.741,87.828,78.593,157.281,167.845,157.281
			c2.02,0,4.133-0.184,6.247-0.318v-303.307v-130.686H7811.44z"/>
		<path id="XMLID_1274_" class="st100" d="M9998.276,2526.463c-6.387-172.487-147.725-310.428-321.772-310.428
			c-92.927,0-176.344,39.458-235.141,102.388c-58.842-62.931-142.353-102.388-235.278-102.388
			c-173.998,0-315.339,137.941-321.727,310.428h-0.206v433.993h174.07v-433.902c1.492-80.476,66.975-145.336,147.862-145.336
			c81.604,0,147.728,66.009,147.956,147.497h0.23v431.742h174.092v-431.742h0.094c0.391-81.488,66.466-147.497,148.047-147.497
			c80.891,0,146.395,64.723,147.908,145.246h-0.068v254.983v22.047c5.72,87.828,78.571,157.281,167.823,157.281
			c2.021,0,4.155-0.184,6.272-0.318v-303.307v-130.686H9998.276z"/>
		<path id="XMLID_1275_" class="st100" d="M6009.265,2646.397c32.936,0,63.893-18.357,79.755-47.215
			c6.646-12.091,10.293-25.568,11.104-39.326c0.321-5.488,0.188-10.992,0.05-16.487c-0.484-19.783-1.595-39.161-5.37-58.604
			c-3.025-15.569-7.158-30.919-12.369-45.898c-10.221-29.389-24.585-57.315-42.511-82.749
			c-17.751-25.188-38.974-47.912-62.884-67.352c-24.051-19.546-50.803-35.746-79.287-47.961
			c-29.196-12.516-60.165-20.804-91.703-24.579c-13.358-1.598-26.814-2.395-40.266-2.395
			c-174.389,0-317.611,133.258-333.599,303.491l-1.146,58.842v70.233c2.526,39.826,11.345,77.954,26.252,113
			c51.927,120.901,172.069,205.511,312.077,205.511c139.895,0,260.038-84.609,311.964-205.511h-182.728
			c-27.878,41.527-75.468,68.856-129.237,68.856c-53.949,0-101.446-27.329-129.259-68.856
			c-16.79-24.941-26.436-54.799-26.436-87.091c0-8.863,0.874-17.455,0.874-25.909H6009.265z M5765.879,2359.995
			c81.787,0,148.049,66.331,148.049,148.046c0,5.56-0.39,10.936-1.08,16.352h-298.209c-0.575-5.416-0.965-10.792-0.965-16.352
			C5613.674,2426.326,5684.092,2359.995,5765.879,2359.995z"/>
	</g>
</g>
<g id="XMLID_1_">
</g>
<g id="XMLID_2_">
</g>
<g id="XMLID_3_">
</g>
<g id="XMLID_4_">
</g>
<g id="XMLID_5_">
</g>
<g id="XMLID_6_">
</g>
<g id="XMLID_7_">
</g>
<g id="XMLID_8_">
</g>
<g id="XMLID_9_">
</g>
<g id="XMLID_10_">
</g>
<g id="XMLID_11_">
</g>
<g id="XMLID_12_">
</g>
<g id="XMLID_13_">
</g>
<g id="XMLID_14_">
</g>
<g id="XMLID_15_">
</g>
</svg>
