<?xml version="1.0" encoding="utf-8"?>
<!-- Generator: Adobe Illustrator 19.0.0, SVG Export Plug-In . SVG Version: 6.00 Build 0)  -->
<svg version="1.1" id="Livello_1" xmlns="http://www.w3.org/2000/svg" xmlns:xlink="http://www.w3.org/1999/xlink" x="0px" y="0px"
	 viewBox="0 0 8490.856 10000" style="enable-background:new 0 0 8490.856 10000;" xml:space="preserve">
<style type="text/css">
	.st0{fill:#FFFFFF;}
</style>
<g id="XMLID_2052_">
	<g id="XMLID_2053_">
		<path id="XMLID_2054_" class="st0" d="M5553.961,3218.733c0-89.382-72.841-162.294-162.294-162.294
			c-89.515,0-162.365,72.912-162.365,162.294c0,89.648,72.85,162.561,162.365,162.561
			C5481.12,3381.293,5553.961,3308.381,5553.961,3218.733z"/>
		<path id="XMLID_2055_" class="st0" d="M3099.11,3381.293c89.648,0,162.499-72.912,162.499-162.561
			c0-89.382-72.85-162.294-162.499-162.294c-89.453,0-162.294,72.912-162.294,162.294
			C2936.815,3308.381,3009.656,3381.293,3099.11,3381.293z"/>
		<path id="XMLID_2056_" class="st0" d="M5936.102,3218.733c0-89.382-72.779-162.294-162.427-162.294
			c-89.515,0-162.365,72.912-162.365,162.294c0,89.648,72.85,162.561,162.365,162.561
			C5863.323,3381.293,5936.102,3308.381,5936.102,3218.733z"/>
		<path id="XMLID_2057_" class="st0" d="M5211.402,4414.377c63.181,63.314,166.254,63.314,229.498,0
			c30.685-30.614,47.554-71.349,47.554-114.811c0-43.337-16.87-84.206-47.554-114.953c-30.614-30.614-71.412-47.475-114.749-47.475
			c-43.266,0-84.197,16.86-114.749,47.475c-30.88,30.747-47.741,71.616-47.741,114.953
			C5163.662,4343.028,5180.522,4383.763,5211.402,4414.377z"/>
		<path id="XMLID_2058_" class="st0" d="M4245.451,4909.579c89.462,0,162.303-73.037,162.303-162.427
			c0-89.524-72.841-162.303-162.303-162.303c-89.64,0-162.427,72.779-162.427,162.303
			C4083.023,4836.542,4155.811,4909.579,4245.451,4909.579z"/>
		<path id="XMLID_2059_" class="st0" d="M3164.626,4461.86c43.461,0,84.339-16.736,114.953-47.483
			c30.747-30.614,47.546-71.349,47.546-114.811c0-43.337-16.799-84.206-47.546-114.953c-30.614-30.614-71.491-47.475-114.953-47.475
			c-43.257,0-84.135,16.86-114.553,47.475c-30.809,30.747-47.741,71.616-47.741,114.953c0,43.461,16.932,84.197,47.546,114.811
			C3080.491,4445.124,3121.369,4461.86,3164.626,4461.86z"/>
		<path id="XMLID_2060_" class="st0" d="M2879.601,3218.733c0-89.382-72.85-162.294-162.499-162.294
			c-89.453,0-162.427,72.912-162.427,162.294c0,89.648,72.974,162.561,162.427,162.561
			C2806.751,3381.293,2879.601,3308.381,2879.601,3218.733z"/>
		<path id="XMLID_2061_" class="st0" d="M3279.579,2023.355c-63.376-63.314-166.325-63.314-229.701,0
			c-30.614,30.614-47.546,71.349-47.546,114.811c0,43.337,16.932,84.073,47.546,114.953c30.614,30.614,71.491,47.475,114.749,47.475
			c43.461,0,84.339-16.861,114.953-47.475c30.747-30.88,47.546-71.616,47.546-114.953
			C3327.124,2094.704,3310.326,2053.969,3279.579,2023.355z"/>
		<path id="XMLID_2062_" class="st0" d="M4245.451,1528.286c-89.64,0-162.427,72.646-162.427,162.294
			c0,89.524,72.788,162.303,162.427,162.303c89.462,0,162.303-72.779,162.303-162.303
			C4407.753,1600.932,4334.913,1528.286,4245.451,1528.286z"/>
		<path id="XMLID_2063_" class="st0" d="M5326.151,2300.593c43.337,0,84.135-16.861,114.749-47.475
			c30.685-30.88,47.554-71.616,47.554-114.953c0-43.461-16.87-84.197-47.554-114.811c-63.243-63.314-166.316-63.314-229.498,0
			c-30.88,30.614-47.741,71.349-47.741,114.811c0,43.337,16.861,84.073,47.741,114.953
			C5241.954,2283.732,5282.885,2300.593,5326.151,2300.593z"/>
		<path id="XMLID_2064_" class="st0" d="M6155.814,3056.438c-89.453,0-162.374,72.912-162.374,162.294
			c0,89.648,72.921,162.561,162.374,162.561c89.64,0,162.49-72.912,162.49-162.561
			C6318.304,3129.351,6245.454,3056.438,6155.814,3056.438z"/>
		<path id="XMLID_2065_" class="st0" d="M5985.139,4024.912c40.807,14.792,84.854,12.848,124.098-5.585
			c39.244-18.29,69.209-50.848,84.001-91.593c6.481-17.775,9.793-36.58,9.793-55.519c0-67.984-42.947-129.221-106.767-152.572
			c-40.931-14.783-84.979-12.972-124.223,5.443c-39.377,18.432-69.218,50.866-84.01,91.593c-6.677,17.908-9.793,36.722-9.793,55.536
			C5878.239,3940.191,5921.186,4001.561,5985.139,4024.912z"/>
		<path id="XMLID_2066_" class="st0" d="M5723.074,4608.59c43.08-3.765,82.324-24.132,110.212-57.348
			c24.523-29.317,37.948-66.164,37.948-104.307c0-48.256-21.273-93.662-58.058-124.542c-33.02-27.755-75.31-41.126-118.38-37.495
			c-43.399,3.897-82.315,24.398-110.212,57.605c-24.647,29.06-38.143,66.164-38.143,104.307c0,48.256,21.149,93.404,58.058,124.285
			C5637.581,4599.117,5679.809,4612.479,5723.074,4608.59z"/>
		<path id="XMLID_2067_" class="st0" d="M5341.263,4792.034c-44.749-77.449-144.199-104.174-221.844-59.417
			c-50.085,28.936-81.214,83.034-81.214,140.763c0,28.412,7.529,56.566,21.797,81.089c21.664,37.619,56.753,64.344,98.66,75.629
			c41.837,11.161,85.626,5.585,123.184-16.212c50.085-28.936,81.151-82.9,81.151-140.763
			C5362.998,4844.844,5355.531,4816.814,5341.263,4792.034z"/>
		<path id="XMLID_2068_" class="st0" d="M4605.341,5260.12c77.849-13.745,134.211-80.947,134.211-159.702
			c0-9.34-0.772-19.072-2.459-28.412c-15.502-88.095-99.966-147.245-188.114-131.68c-77.653,13.877-134.282,80.823-134.282,159.702
			c0,9.474,0.906,18.938,2.593,28.412C4432.729,5216.659,4517.184,5275.693,4605.341,5260.12z"/>
		<path id="XMLID_2069_" class="st0" d="M3885.374,5260.12c42.751,7.529,85.822-2.069,121.434-26.858
			c35.613-24.771,59.354-62.133,66.812-104.822c1.758-9.474,2.335-18.938,2.335-28.412c0-78.879-56.309-145.824-134.016-159.702
			c-42.751-7.529-85.822,2.078-121.372,26.725c-35.613,25.038-59.221,62.275-66.875,104.955c-1.492,9.34-2.335,19.072-2.335,28.412
			C3751.358,5179.173,3807.596,5246.375,3885.374,5260.12z"/>
		<path id="XMLID_2070_" class="st0" d="M3332.309,5030.099c41.907-11.285,76.996-38.01,98.598-75.629
			c14.277-24.523,21.673-52.677,21.673-81.089c0-57.729-31.013-111.827-81.089-140.763
			c-77.645-44.758-177.281-18.033-221.977,59.417c-14.144,24.78-21.788,52.811-21.788,81.089
			c0,57.863,31.262,111.828,81.338,140.763C3246.559,5035.684,3290.34,5041.259,3332.309,5030.099z"/>
		<path id="XMLID_2071_" class="st0" d="M2886.42,4571.096c36.705-30.88,57.987-76.029,57.987-124.285
			c0-38.143-13.629-75.247-38.019-104.307c-27.959-33.207-67.008-53.708-110.274-57.605c-43.328-3.632-85.298,9.74-118.442,37.495
			c-37.042,31.138-57.996,76.286-57.996,124.542c0,38.143,13.434,74.99,37.877,104.307
			C2715.096,4619.875,2817.716,4628.701,2886.42,4571.096z"/>
		<path id="XMLID_2072_" class="st0" d="M2612.671,3872.216c0-18.814-3.303-37.628-9.865-55.536
			c-14.721-40.727-44.491-73.161-83.735-91.593c-39.448-18.414-83.682-20.226-124.355-5.443
			c-63.962,23.351-106.909,84.588-106.909,152.572c0,18.938,3.445,37.743,9.864,55.519c14.854,40.744,44.5,73.303,84.002,91.593
			c39.244,18.432,83.362,20.377,124.027,5.585C2569.796,4001.561,2612.671,3940.191,2612.671,3872.216z"/>
		<path id="XMLID_2073_" class="st0" d="M2334.971,3056.438c-89.32,0-162.356,72.912-162.356,162.294
			c0,89.648,73.036,162.561,162.356,162.561c89.648,0,162.427-72.912,162.427-162.561
			C2497.398,3129.351,2424.62,3056.438,2334.971,3056.438z"/>
		<path id="XMLID_2074_" class="st0" d="M2602.807,2621.044c6.562-17.9,9.865-36.714,9.865-55.528
			c0-67.976-42.875-129.345-106.971-152.696c-40.665-14.792-84.783-12.714-124.027,5.585c-39.501,18.29-69.147,50.848-84.002,91.593
			c-6.419,17.899-9.864,36.58-9.864,55.519c0,67.851,42.947,129.221,106.971,152.572
			C2478.984,2748.702,2572.264,2704.983,2602.807,2621.044z"/>
		<path id="XMLID_2075_" class="st0" d="M2906.388,2095.228c24.39-29.326,38.019-66.164,38.019-104.307
			c0-48.132-21.282-93.404-57.987-124.551c-68.704-57.472-171.324-48.513-228.867,20.119
			c-24.443,29.06-37.877,66.155-37.877,104.307c0,48.256,20.954,93.662,57.996,124.409c33.144,27.888,75.114,41.135,118.442,37.362
			C2839.38,2148.678,2878.429,2128.567,2906.388,2095.228z"/>
		<path id="XMLID_2076_" class="st0" d="M3149.514,1645.565c21.797,37.619,56.886,64.477,98.793,75.638
			c41.908,11.285,85.493,5.443,123.184-16.221c50.076-28.803,81.089-82.767,81.089-140.763c0-28.279-7.396-56.433-21.673-81.08
			c-44.758-77.449-144.395-104.05-221.844-59.292c-50.076,28.936-81.338,82.776-81.338,140.763
			C3127.726,1592.763,3135.37,1620.918,3149.514,1645.565z"/>
		<path id="XMLID_2077_" class="st0" d="M4006.808,1204.594c-35.613-24.914-78.683-34.512-121.239-27.116
			c-77.973,13.877-134.211,81.08-134.211,159.835c0,9.474,0.844,19.072,2.335,28.288c7.653,42.804,31.262,80.042,66.875,104.822
			c35.55,24.905,78.621,34.636,121.372,26.982c77.707-13.62,134.016-80.823,134.016-159.702c0-9.474-0.577-18.938-2.335-28.412
			C4066.163,1266.479,4042.421,1229.499,4006.808,1204.594z"/>
		<path id="XMLID_2078_" class="st0" d="M4605.341,1177.479c-42.618-7.396-85.822,2.202-121.372,27.116
			c-35.417,24.905-59.221,61.885-66.679,104.698c-1.687,9.474-2.593,18.938-2.593,28.412c0,78.879,56.628,146.082,134.282,159.702
			c42.742,7.653,85.751-2.078,121.425-26.982c35.417-24.781,59.159-62.018,66.688-104.822c1.687-9.216,2.459-18.814,2.459-28.288
			C4739.552,1258.559,4683.189,1191.356,4605.341,1177.479z"/>
		<path id="XMLID_2079_" class="st0" d="M5060.002,1483.138c-14.268,24.905-21.797,52.802-21.797,81.08
			c0,57.996,31.129,111.961,81.214,140.763c37.557,21.664,81.276,27.506,123.121,16.221c42.032-11.161,77.059-38.019,98.723-75.638
			c14.268-24.647,21.735-52.802,21.735-80.956c0-57.987-31.066-111.828-81.151-140.763
			C5204.202,1379.088,5104.751,1405.688,5060.002,1483.138z"/>
		<path id="XMLID_2080_" class="st0" d="M5694.796,2152.567c43.07,3.773,85.36-9.474,118.38-37.362
			c36.785-30.747,58.058-76.153,58.058-124.409c0-38.152-13.425-75.247-37.948-104.307c-27.888-33.215-67.132-53.716-110.212-57.348
			c-43.266-3.889-85.493,9.474-118.575,37.229c-36.909,31.147-58.058,76.419-58.058,124.551c0,38.143,13.62,74.981,38.143,104.307
			C5612.481,2128.567,5651.396,2148.678,5694.796,2152.567z"/>
		<path id="XMLID_2081_" class="st0" d="M5878.239,2565.516c0,18.814,3.117,37.628,9.793,55.528
			c30.623,83.939,124.098,127.658,208.233,97.044c63.82-23.351,106.767-84.721,106.767-152.572c0-18.938-3.312-37.619-9.793-55.519
			c-14.792-40.745-44.758-73.303-84.001-91.593c-39.244-18.299-83.292-20.377-124.098-5.585
			C5921.186,2436.171,5878.239,2497.541,5878.239,2565.516z"/>
		<path id="XMLID_2082_" class="st0" d="M6537.822,3056.438c-89.453,0-162.303,72.912-162.303,162.294
			c0,89.648,72.85,162.561,162.303,162.561c89.64,0,162.48-72.912,162.48-162.561
			C6700.302,3129.351,6627.461,3056.438,6537.822,3056.438z"/>
		<path id="XMLID_2083_" class="st0" d="M6653.014,3697.713c2.211-10.503,3.188-21.14,3.188-31.777
			c0-77.192-54.879-144.013-130.712-159.187c-87.829-17.385-173.455,39.821-190.902,127.658
			c-1.944,10.379-3.187,21.273-3.187,31.661c0,77.192,55.075,144.253,130.783,159.187
			C6549.95,3842.765,6635.771,3785.55,6653.014,3697.713z"/>
		<path id="XMLID_2084_" class="st0" d="M6513.556,4158.279c8.177-19.853,12.19-40.869,12.19-62.142
			c0-65.783-39.377-124.808-100.223-150.104c-40.016-16.479-84.259-16.479-124.213,0c-40.087,16.603-71.358,47.874-87.961,87.961
			c-8.302,19.977-12.333,40.736-12.333,62.009c0,66.04,39.448,124.941,100.294,150.237
			C6384.016,4280.495,6479.044,4241.047,6513.556,4158.279z"/>
		<path id="XMLID_2085_" class="st0" d="M6061.363,4627.538c74.537,49.685,175.47,29.575,225.155-44.891
			c17.909-26.858,27.24-57.862,27.24-90.163c0-54.365-26.92-104.964-71.936-135.054c-74.537-49.694-175.461-29.584-225.413,44.757
			c-17.775,26.716-27.249,57.987-27.249,90.297C5989.161,4546.972,6016.276,4597.306,6061.363,4627.538z"/>
		<path id="XMLID_2086_" class="st0" d="M6028.733,4839.908c0-43.328-16.799-84.197-47.421-114.944
			c-63.376-63.305-166.512-63.305-229.63,0c-30.747,30.747-47.545,71.616-47.545,114.944c0,43.204,16.798,84.073,47.545,114.687
			c63.119,63.447,166.254,63.447,229.63,0C6011.935,4923.98,6028.733,4883.112,6028.733,4839.908z"/>
		<path id="XMLID_2087_" class="st0" d="M5609.293,5259.996c45.282-30.232,72.202-80.823,72.202-135.054
			c0-32.176-9.464-63.314-27.435-90.296c-24.132-35.941-60.846-60.464-103.269-69.023c-42.618-8.426-85.822,0.133-121.958,24.266
			c-45.21,30.223-72.131,80.69-72.131,135.179c0,32.176,9.474,63.314,27.311,90.163c24.266,35.941,60.846,60.588,103.331,69.023
			C5529.962,5292.812,5573.237,5284.119,5609.293,5259.996z"/>
		<path id="XMLID_2088_" class="st0" d="M5060.65,5186.826c-60.979,25.295-100.418,84.063-100.418,149.97
			c0,21.531,4.155,42.29,12.457,62.275c34.316,82.644,129.408,122.074,212.246,87.695c60.846-25.171,100.09-84.063,100.09-150.095
			c0-21.282-4.155-42.041-12.324-61.894C5238.447,5192.011,5143.356,5152.572,5060.65,5186.826z"/>
		<path id="XMLID_2089_" class="st0" d="M4661.063,5308.127c-75.824,14.916-130.704,81.862-130.704,158.929
			c0,10.628,0.968,21.398,2.912,31.91c17.518,87.829,103.34,145.043,191.106,127.525c75.691-15.174,130.766-81.986,130.766-159.054
			c0-10.77-1.163-21.406-3.241-31.786C4834.519,5347.824,4748.768,5290.609,4661.063,5308.127z"/>
		<path id="XMLID_2090_" class="st0" d="M4245.451,5673.718c89.462,0,162.303-72.779,162.303-162.428
			c0-89.515-72.841-162.303-162.303-162.303c-89.64,0-162.427,72.788-162.427,162.303
			C4083.023,5600.938,4155.811,5673.718,4245.451,5673.718z"/>
		<path id="XMLID_2091_" class="st0" d="M3957.38,5498.966c2.202-10.512,3.241-21.282,3.241-31.91
			c0-77.067-54.942-144.013-130.775-158.929c-42.547-8.559-85.822,0-121.887,23.999c-36.056,24.132-60.517,60.979-69.014,103.526
			c-2.202,10.379-3.178,21.016-3.178,31.786c0,77.067,54.942,143.88,130.775,159.054c42.547,8.559,85.813-0.125,121.878-24.257
			C3924.494,5578.103,3948.946,5541.389,3957.38,5498.966z"/>
		<path id="XMLID_2092_" class="st0" d="M3306.037,5486.767c40.025,16.736,84.268,16.736,124.16,0
			c40.283-16.47,71.42-47.607,87.961-87.695c8.168-19.986,12.386-40.744,12.386-62.275c0-65.907-39.244-124.675-100.347-149.97
			c-40.025-16.612-84.135-16.612-124.346,0c-39.901,16.603-71.03,47.741-87.704,87.953c-8.302,19.853-12.457,40.611-12.457,62.018
			C3205.69,5402.704,3245.129,5461.596,3306.037,5486.767z"/>
		<path id="XMLID_2093_" class="st0" d="M3062.005,4989.887c-36.065-24.132-79.331-32.691-121.878-24.266
			c-42.556,8.559-79.34,33.082-103.268,69.023c-17.971,26.982-27.444,58.12-27.444,90.296c0,54.231,26.92,104.822,72.007,135.054
			c74.661,49.686,175.781,29.575,225.342-44.767c17.97-26.849,27.444-57.987,27.444-90.163
			C3134.207,5070.577,3107.154,5020.11,3062.005,4989.887z"/>
		<path id="XMLID_2094_" class="st0" d="M2739.228,4724.964c-63.314-63.181-166.325-63.181-229.701,0
			c-30.543,30.747-47.546,71.616-47.546,114.944c0,43.204,17.003,84.073,47.546,114.687c63.376,63.447,166.387,63.447,229.701,0
			c30.623-30.614,47.608-71.482,47.608-114.687C2786.836,4796.58,2769.851,4755.711,2739.228,4724.964z"/>
		<path id="XMLID_2095_" class="st0" d="M2429.618,4627.538c45.015-30.232,71.998-80.565,71.998-135.188
			c0-32.176-9.34-63.447-27.302-90.164c-49.694-74.475-150.823-94.452-225.165-44.757c-45.21,30.09-72.193,80.689-72.193,135.054
			c0,32.301,9.527,63.305,27.302,90.163C2254.148,4657.113,2355.082,4677.223,2429.618,4627.538z"/>
		<path id="XMLID_2096_" class="st0" d="M2189.6,4246.241c60.846-25.295,100.294-84.197,100.294-150.237
			c0-21.273-4.155-42.156-12.333-62.009c-16.603-40.087-47.874-71.358-87.961-87.961c-40.087-16.479-84.135-16.479-124.284,0
			c-60.97,25.295-100.223,84.321-100.223,150.104c0,21.273,4.155,42.289,12.262,62.142
			C2011.803,4241.047,2106.77,4280.495,2189.6,4246.241z"/>
		<path id="XMLID_2097_" class="st0" d="M2028.602,3825.256c75.895-14.934,130.713-81.995,130.713-159.187
			c0-10.388-0.977-21.282-3.188-31.661c-17.375-87.837-102.94-145.043-190.901-127.658
			c-75.638,15.174-130.517,81.995-130.517,159.187c0,10.637,0.977,21.273,3.179,31.777
			C1855.147,3785.55,1940.774,3842.765,2028.602,3825.256z"/>
		<path id="XMLID_2098_" class="st0" d="M1952.964,3381.293c89.453,0,162.303-72.912,162.303-162.561
			c0-89.382-72.85-162.294-162.303-162.294s-162.294,72.912-162.294,162.294C1790.67,3308.381,1863.511,3381.293,1952.964,3381.293z
			"/>
		<path id="XMLID_2099_" class="st0" d="M1837.887,2740.019c-2.202,10.37-3.179,21.14-3.179,31.644
			c0,77.192,54.879,144.137,130.517,159.187c87.961,17.518,173.526-39.688,190.901-127.525c2.211-10.379,3.188-21.273,3.188-31.919
			c0-76.934-54.817-144.004-130.713-158.929C1940.774,2594.967,1855.147,2652.181,1837.887,2740.019z"/>
		<path id="XMLID_2100_" class="st0" d="M2065.315,2191.491c-40.025,16.612-71.287,47.998-87.961,87.961
			c-8.106,19.853-12.262,40.736-12.262,62.142c0,65.907,39.253,124.808,100.223,149.97c40.15,16.612,84.197,16.612,124.284,0
			c40.087-16.47,71.358-47.741,87.961-87.828c8.177-19.853,12.333-40.736,12.333-62.142c0-65.907-39.448-124.808-100.294-150.104
			C2149.512,2175.012,2105.465,2175.012,2065.315,2191.491z"/>
		<path id="XMLID_2101_" class="st0" d="M2429.618,1810.194c-74.537-49.818-175.47-29.699-225.36,44.891
			c-17.775,26.725-27.302,57.863-27.302,89.906c0,54.489,26.982,104.955,72.193,135.312c74.342,49.694,175.47,29.584,225.165-45.015
			c17.962-26.725,27.302-57.863,27.302-89.906C2501.616,1891.026,2474.634,1840.293,2429.618,1810.194z"/>
		<path id="XMLID_2102_" class="st0" d="M2461.981,1597.948c0,43.204,17.003,84.073,47.546,114.695
			c30.623,30.614,71.554,47.608,114.758,47.608c43.586,0,84.392-16.994,114.944-47.608c30.623-30.623,47.608-71.491,47.608-114.695
			c0-43.586-16.985-84.197-47.608-114.811c-63.314-63.447-166.325-63.447-229.701,0
			C2478.984,1513.751,2461.981,1554.363,2461.981,1597.948z"/>
		<path id="XMLID_2103_" class="st0" d="M2881.421,1177.736c-45.086,30.108-72.007,80.823-72.007,135.187
			c0,32.043,9.474,63.181,27.444,90.163c24.123,35.941,60.713,60.464,103.268,69.023c42.547,8.426,85.813-0.391,121.878-24.266
			c45.148-30.223,72.202-80.823,72.202-135.179c0-32.177-9.474-63.447-27.444-90.039c-23.928-36.065-60.846-60.713-103.26-69.148
			C2960.886,1144.92,2917.682,1153.613,2881.421,1177.736z"/>
		<path id="XMLID_2104_" class="st0" d="M3305.851,1250.906c40.212,16.612,84.454,16.612,124.346,0
			c61.103-25.296,100.347-84.197,100.347-150.104c0-21.398-4.218-42.156-12.386-62.009
			c-34.183-82.776-129.541-122.207-212.308-87.828c-60.722,25.162-100.161,84.064-100.161,149.837
			c0,21.407,4.155,42.298,12.386,62.151C3234.821,1203.165,3265.95,1234.169,3305.851,1250.906z"/>
		<path id="XMLID_2105_" class="st0" d="M3707.959,1105.348c36.065,24.257,79.34,32.816,121.887,24.257
			c75.833-14.916,130.775-81.995,130.775-158.929c0-10.628-1.039-21.398-3.241-31.91c-8.435-42.547-32.887-79.394-68.961-103.268
			c-36.065-24.132-79.332-32.825-121.878-24.39c-75.833,15.307-130.775,81.995-130.775,159.187c0,10.637,0.977,21.273,3.178,31.786
			C3647.442,1044.626,3671.903,1081.473,3707.959,1105.348z"/>
		<path id="XMLID_2106_" class="st0" d="M4245.451,764.014c-89.64,0-162.427,72.779-162.427,162.427
			c0,89.515,72.788,162.303,162.427,162.303c89.462,0,162.303-72.788,162.303-162.303
			C4407.753,836.793,4334.913,764.014,4245.451,764.014z"/>
		<path id="XMLID_2107_" class="st0" d="M4533.272,938.765c-1.944,10.512-2.912,21.282-2.912,31.91
			c0,76.934,54.879,144.013,130.704,158.929c87.704,17.518,173.455-39.697,190.839-127.525c2.078-10.512,3.241-21.149,3.241-31.786
			c0-77.192-55.075-143.88-130.766-159.187C4636.612,793.722,4550.79,850.937,4533.272,938.765z"/>
		<path id="XMLID_2108_" class="st0" d="M5184.935,950.965c-82.838-34.378-177.93,5.052-212.246,87.828
			c-8.301,19.853-12.457,40.611-12.457,62.009c0,65.907,39.439,124.808,100.418,150.104c82.51,34.254,177.797-5.185,212.051-87.953
			c8.168-19.853,12.324-40.745,12.324-62.151C5285.025,1035.028,5245.781,976.127,5184.935,950.965z"/>
		<path id="XMLID_2109_" class="st0" d="M5428.833,1447.845c74.537,49.694,175.47,29.584,225.227-44.758
			c17.971-26.982,27.435-58.12,27.435-90.163c0-54.364-26.92-105.08-72.202-135.187c-36.057-24.124-79.331-32.816-121.949-24.257
			c-42.618,8.435-79.065,33.082-103.331,69.148c-17.837,26.592-27.311,57.863-27.311,90.039
			C5356.703,1367.022,5383.623,1417.621,5428.833,1447.845z"/>
		<path id="XMLID_2110_" class="st0" d="M5751.682,1712.644c30.614,30.614,71.358,47.608,114.749,47.608
			c43.408,0,84.206-16.994,114.882-47.608c30.623-30.623,47.421-71.491,47.421-114.695c0-43.586-16.799-84.197-47.421-114.811
			c-63.376-63.447-166.512-63.447-229.63,0c-30.747,30.614-47.545,71.225-47.545,114.811
			C5704.136,1641.152,5720.935,1682.021,5751.682,1712.644z"/>
		<path id="XMLID_2111_" class="st0" d="M6061.363,1810.194c-45.086,30.099-72.202,80.566-72.202,135.187
			c0,32.043,9.474,63.447,27.249,89.906c49.952,74.599,150.876,94.709,225.413,45.015c45.015-30.356,71.936-80.823,71.936-135.312
			c0-32.043-9.332-63.181-27.24-89.906C6236.833,1780.495,6135.899,1760.376,6061.363,1810.194z"/>
		<path id="XMLID_2112_" class="st0" d="M6425.523,2191.491c-40.016-16.479-84.259-16.479-124.213,0
			c-60.846,25.295-100.294,84.197-100.294,150.104c0,21.406,4.031,42.289,12.333,62.142c16.603,40.087,47.874,71.358,87.961,87.828
			c39.955,16.612,84.197,16.612,124.213,0c60.846-25.162,100.223-84.064,100.223-149.97c0-21.407-4.013-42.289-12.19-62.142
			C6496.882,2239.489,6465.611,2208.103,6425.523,2191.491z"/>
		<path id="XMLID_2113_" class="st0" d="M6331.4,2771.405c0,10.646,1.243,21.54,3.187,31.919
			c17.447,87.837,103.073,145.043,190.902,127.525c75.833-15.049,130.712-81.995,130.712-159.187
			c0-10.504-0.977-21.273-3.188-31.644c-17.243-87.837-103.064-145.052-190.831-127.543
			C6386.475,2627.401,6331.4,2694.471,6331.4,2771.405z"/>
		<path id="XMLID_2114_" class="st0" d="M6920.015,3056.438c-89.515,0-162.365,72.912-162.365,162.294
			c0,89.648,72.85,162.561,162.365,162.561c89.453,0,162.294-72.912,162.294-162.561
			C7082.31,3129.351,7009.468,3056.438,6920.015,3056.438z"/>
		<path id="XMLID_2115_" class="st0" d="M6895.172,3616.118c-42.36-9.083-85.822-1.039-122.083,22.579
			c-36.394,23.6-61.298,60.065-70.381,102.478c-2.273,11.161-3.569,22.579-3.569,33.864c0,76.162,54.036,142.841,128.706,158.672
			c42.414,8.95,85.813,1.039,122.269-22.579c36.198-23.609,61.174-60.065,70.124-102.487c2.521-11.161,3.631-22.446,3.631-33.864
			C7023.87,3698.761,6969.833,3631.806,6895.172,3616.118z"/>
		<path id="XMLID_2116_" class="st0" d="M6754.862,4158.413c-81.862-36.456-177.992,0.515-214.385,82.119
			c-9.536,21.149-14.144,43.204-14.144,66.031c0,64.22,37.752,122.34,96.458,148.417c81.667,36.589,177.938-0.382,214.324-82.252
			c9.34-20.883,14.01-43.195,14.01-66.031C6851.125,4242.734,6813.373,4184.356,6754.862,4158.413z"/>
		<path id="XMLID_2117_" class="st0" d="M6504.535,4659.448c-72.45-52.544-174.103-36.456-226.709,36.065
			c-20.244,27.888-31.005,60.846-31.005,95.357c0,51.896,24.905,100.933,66.937,131.423c35.16,25.553,78.035,35.799,120.786,28.927
			c42.946-6.739,80.503-29.841,106.127-64.992c20.11-27.897,30.88-60.722,30.88-95.233
			C6571.552,4739.107,6546.638,4689.937,6504.535,4659.448z"/>
		<path id="XMLID_2118_" class="st0" d="M5926.309,5085.626c-34.059,30.88-53.779,74.856-53.779,120.786
			c0,40.345,14.987,78.878,41.908,108.587c28.998,32.301,68.766,51.248,112.094,53.45c43.328,2.468,85.041-12.324,117.084-41.25
			c34.316-30.747,53.778-74.865,53.778-120.786c0-40.212-14.916-78.746-41.774-108.72
			C6095.741,5031.271,5992.801,5025.819,5926.309,5085.626z"/>
		<path id="XMLID_2119_" class="st0" d="M5624.609,5378.18c-41.899-11.285-85.626-5.451-123.121,16.222
			c-50.014,28.927-81.276,83.025-81.276,140.888c0,28.154,7.653,56.309,21.797,80.956c44.882,77.582,144.323,104.307,221.844,59.55
			c50.076-28.927,81.151-82.901,81.151-140.764c0-28.412-7.529-56.433-21.602-81.081
			C5701.605,5416.323,5666.57,5389.341,5624.609,5378.18z"/>
		<path id="XMLID_2120_" class="st0" d="M5021.789,5608.077c-67.203,21.789-112.28,83.806-112.28,154.383
			c0,17.118,2.654,33.863,7.973,50.209c27.64,85.103,119.428,131.938,204.53,104.174c67.203-21.797,112.29-83.682,112.29-154.25
			c0-17.127-2.664-33.997-7.982-50.218C5198.75,5627.14,5106.962,5580.438,5021.789,5608.077z"/>
		<path id="XMLID_2121_" class="st0" d="M4508.101,5717.179c-83.025,8.826-145.558,78.23-145.558,161.397
			c0,5.7,0.32,11.409,0.906,16.985c9.412,89.133,89.515,154.001,178.587,144.528c82.962-8.559,145.3-77.964,145.3-161.255
			c0-5.718-0.195-11.294-0.844-17.127C4677.019,5772.707,4597.039,5707.838,4508.101,5717.179z"/>
		<path id="XMLID_2122_" class="st0" d="M4127.328,5895.562c0.524-5.576,0.915-11.285,0.915-16.985
			c0-83.167-62.595-152.572-145.434-161.397c-43.009-4.537-85.431,8.178-119.161,35.417c-33.668,27.24-54.817,66.04-59.221,109.11
			c-0.657,5.833-1.048,11.409-1.048,17.127c0,83.291,62.595,152.696,145.567,161.255c43.071,4.67,85.298-7.911,119.028-35.284
			C4101.775,5977.556,4122.924,5938.898,4127.328,5895.562z"/>
		<path id="XMLID_2123_" class="st0" d="M3469.122,5608.077c-85.174-27.64-176.9,19.062-204.655,104.298
			c-5.194,16.222-8.044,33.091-8.044,50.218c0,70.568,45.273,132.453,112.28,154.25c85.307,27.764,176.962-19.072,204.717-104.174
			c5.203-16.346,7.982-33.091,7.982-50.076C3581.402,5691.883,3536.316,5629.866,3469.122,5608.077z"/>
		<path id="XMLID_2124_" class="st0" d="M2989.36,5394.402c-37.566-21.673-81.347-27.506-123.184-16.222
			c-41.979,11.161-76.934,38.143-98.669,75.771c-14.33,24.647-21.788,52.669-21.788,81.081c0,57.863,31.067,111.836,81.338,140.764
			c77.449,44.757,176.9,18.032,221.657-59.55c14.268-24.647,21.859-52.802,21.859-80.956
			C3070.573,5477.169,3039.374,5423.329,2989.36,5394.402z"/>
		<path id="XMLID_2125_" class="st0" d="M2335.104,5097.826c-26.92,29.841-41.712,68.375-41.712,108.587
			c0,45.921,19.586,90.039,53.708,120.786c32.301,28.927,73.818,43.719,117.217,41.25c43.266-2.202,83.158-21.149,112.094-53.45
			c26.982-29.708,41.712-68.242,41.712-108.587c0-45.93-19.586-89.906-53.645-120.786
			C2497.985,5025.819,2395.169,5031.271,2335.104,5097.826z"/>
		<path id="XMLID_2126_" class="st0" d="M2056.232,4951.22c42.875,6.872,85.822-3.374,121.044-28.927
			c41.774-30.49,66.884-79.527,66.884-131.423c0-34.512-10.77-67.47-31.076-95.357c-25.491-35.16-63.181-58.12-105.932-65.125
			c-43-6.624-85.813,3.631-120.911,29.06c-41.908,30.489-67.008,79.66-67.008,131.547c0,34.512,10.77,67.336,31.076,95.233
			C1975.924,4921.379,2013.295,4944.481,2056.232,4951.22z"/>
		<path id="XMLID_2127_" class="st0" d="M1950.434,4240.532c-36.385-81.604-132.524-118.575-214.315-82.119
			c-58.582,25.943-96.53,84.321-96.53,148.283c0,22.836,4.866,45.148,14.144,66.031c36.651,81.871,132.586,118.842,214.386,82.252
			c58.573-26.077,96.334-84.197,96.334-148.417C1964.453,4283.736,1959.712,4261.681,1950.434,4240.532z"/>
		<path id="XMLID_2128_" class="st0" d="M1791.833,3775.038c0-11.285-1.358-22.703-3.631-33.864
			c-18.681-87.562-105.151-143.738-192.651-125.057c-74.67,15.689-128.697,82.643-128.697,158.663
			c0,11.418,1.287,22.703,3.631,33.864c8.95,42.422,34.112,78.878,70.373,102.487c36.394,23.617,79.793,31.528,122.216,22.579
			C1737.602,3917.879,1791.833,3851.2,1791.833,3775.038z"/>
		<path id="XMLID_2129_" class="st0" d="M1733.189,3218.733c0-89.382-72.779-162.294-162.232-162.294
			c-89.649,0-162.49,72.912-162.49,162.294c0,89.648,72.841,162.561,162.49,162.561
			C1660.41,3381.293,1733.189,3308.381,1733.189,3218.733z"/>
		<path id="XMLID_2130_" class="st0" d="M1595.551,2821.614c87.695,18.681,173.97-37.495,192.651-125.057
			c2.273-11.16,3.631-22.445,3.631-33.863c0-76.286-54.231-142.965-128.759-158.672c-87.509-18.681-173.907,37.362-192.588,125.066
			c-2.344,11.161-3.631,22.446-3.631,33.864C1466.854,2738.971,1520.881,2805.792,1595.551,2821.614z"/>
		<path id="XMLID_2131_" class="st0" d="M1736.119,2279.319c81.791,36.589,177.93-0.515,214.315-82.377
			c9.278-20.759,14.02-43.08,14.02-65.782c0-64.211-37.761-122.331-96.334-148.541c-39.564-17.642-83.806-18.814-124.222-3.116
			c-40.407,15.44-72.521,45.797-90.163,85.502c-9.278,20.883-14.144,43.195-14.144,66.031
			C1639.589,2194.998,1677.537,2253.242,1736.119,2279.319z"/>
		<path id="XMLID_2132_" class="st0" d="M1986.242,1778.284c72.459,52.544,174.041,36.323,226.842-35.941
			c20.306-28.012,31.076-61.103,31.076-95.482c0-51.763-25.109-100.933-66.884-131.423c-35.222-25.553-78.168-35.675-121.044-29.06
			c-42.742,6.748-80.308,29.974-105.799,64.992c-20.43,28.03-31.2,60.846-31.2,95.366
			C1919.234,1698.5,1944.334,1747.661,1986.242,1778.284z"/>
		<path id="XMLID_2133_" class="st0" d="M2564.477,1352.096c34.059-30.871,53.645-74.981,53.645-120.777
			c0-40.345-14.73-78.879-41.712-108.711c-28.936-32.177-68.828-51.124-112.094-53.592c-43.399-2.202-84.916,12.59-117.217,41.65
			c-34.121,30.614-53.708,74.732-53.708,120.653c0,40.212,14.792,78.745,41.712,108.587
			C2394.974,1406.585,2497.985,1411.912,2564.477,1352.096z"/>
		<path id="XMLID_2134_" class="st0" d="M2989.36,1043.33c50.014-29.06,81.214-83.025,81.214-140.888
			c0-28.154-7.591-56.309-21.859-80.956c-21.602-37.628-56.7-64.486-98.607-75.638c-41.774-11.285-85.493-5.576-123.05,16.088
			c-50.271,28.927-81.338,82.901-81.338,140.763c0,28.412,7.458,56.433,21.788,81.081
			C2812.203,1061.371,2911.84,1088.088,2989.36,1043.33z"/>
		<path id="XMLID_2135_" class="st0" d="M3368.703,520.755c-67.008,21.797-112.28,83.815-112.28,154.383
			c0,16.87,2.85,33.863,8.044,50.218c27.755,85.236,119.481,131.805,204.655,104.298c67.194-21.788,112.28-83.806,112.28-154.516
			c0-16.985-2.779-33.988-7.982-50.076C3545.665,539.96,3454.01,493.124,3368.703,520.755z"/>
		<path id="XMLID_2136_" class="st0" d="M3982.809,720.553c82.838-8.825,145.434-78.23,145.434-161.522
			c0-5.709-0.391-11.418-0.915-17.127c-4.404-43.071-25.553-81.729-59.354-109.235c-33.73-27.116-75.957-39.697-119.028-35.284
			c-82.972,8.817-145.567,78.222-145.567,161.513c0,5.718,0.391,11.285,1.048,17.127
			C3813.696,665.025,3893.747,729.893,3982.809,720.553z"/>
		<path id="XMLID_2137_" class="st0" d="M4363.449,541.904c-0.586,5.709-0.906,11.418-0.906,17.127
			c0,83.291,62.533,152.696,145.558,161.522c88.938,9.34,168.917-55.528,178.391-144.528c0.648-5.842,0.844-11.409,0.844-17.127
			c0-83.291-62.338-152.696-145.3-161.513C4452.964,388.169,4372.86,452.904,4363.449,541.904z"/>
		<path id="XMLID_2138_" class="st0" d="M5021.789,829.655c85.173,27.506,176.962-19.063,204.53-104.298
			c5.318-16.355,7.982-33.348,7.982-50.218c0-70.568-45.086-132.586-112.29-154.383c-85.103-27.631-176.891,19.205-204.53,104.307
			c-5.318,16.088-7.973,33.091-7.973,50.209C4909.508,745.848,4954.585,807.866,5021.789,829.655z"/>
		<path id="XMLID_2139_" class="st0" d="M5501.488,1043.33c77.582,44.758,177.024,18.042,221.915-59.55
			c14.073-24.647,21.602-52.669,21.602-81.081c0-57.863-31.076-111.836-81.151-140.763c-37.557-21.664-81.347-27.373-123.184-16.088
			c-41.908,11.152-76.872,38.01-98.66,75.638c-14.144,24.647-21.797,52.802-21.797,80.956
			C5420.212,960.305,5451.474,1014.27,5501.488,1043.33z"/>
		<path id="XMLID_2140_" class="st0" d="M6155.619,1339.906c26.858-29.841,41.774-68.375,41.774-108.587
			c0-45.921-19.462-90.039-53.778-120.653c-32.043-29.06-73.756-43.852-117.084-41.65c-43.328,2.468-83.096,21.415-112.094,53.592
			c-26.92,29.833-41.908,68.366-41.908,108.711c0,45.796,19.72,89.906,53.779,120.777
			C5992.801,1411.912,6095.741,1406.585,6155.619,1339.906z"/>
		<path id="XMLID_2141_" class="st0" d="M6434.544,1486.378c-42.751-6.615-85.626,3.507-120.786,29.06
			c-42.032,30.49-66.937,79.66-66.937,131.423c0,34.378,10.761,67.469,31.005,95.482c52.606,72.264,154.259,88.485,226.709,35.941
			c42.103-30.623,67.017-79.784,67.017-131.547c0-34.521-10.77-67.336-30.88-95.366
			C6515.048,1516.353,6477.491,1493.126,6434.544,1486.378z"/>
		<path id="XMLID_2142_" class="st0" d="M6540.477,2196.943c36.394,81.862,132.523,118.966,214.385,82.377
			c58.511-26.077,96.263-84.321,96.263-148.284c0-22.836-4.67-45.148-14.01-66.031c-17.775-39.706-49.686-70.062-90.297-85.502
			c-40.416-15.698-84.455-14.526-124.027,3.116c-58.706,26.21-96.458,84.33-96.458,148.541
			C6526.333,2153.863,6530.94,2176.184,6540.477,2196.943z"/>
		<path id="XMLID_2143_" class="st0" d="M6699.139,2662.694c0,11.285,1.296,22.703,3.569,33.863
			c18.485,87.562,105.018,143.738,192.464,125.057c74.661-15.822,128.697-82.643,128.697-158.663c0-11.418-1.11-22.703-3.631-33.864
			c-8.95-42.68-33.926-78.878-70.124-102.487c-36.456-23.617-79.855-31.528-122.269-22.579
			C6753.175,2519.729,6699.139,2586.408,6699.139,2662.694z"/>
		<path id="XMLID_2144_" class="st0" d="M7301.96,3056.438c-89.453,0-162.303,72.912-162.303,162.294
			c0,89.648,72.85,162.561,162.303,162.561c89.648,0,162.49-72.912,162.49-162.561
			C7464.45,3129.351,7391.608,3056.438,7301.96,3056.438z"/>
		<path id="XMLID_2145_" class="st0" d="M6291.836,5265.305c-30.614,30.756-47.545,71.491-47.545,114.953
			c0,43.337,16.932,84.064,47.545,114.687c63.376,63.447,166.45,63.447,229.693,0c30.747-30.623,47.679-71.349,47.679-114.687
			c0-43.461-16.932-84.197-47.679-114.953C6458.286,5202.133,6355.213,5202.133,6291.836,5265.305z"/>
		<path id="XMLID_2146_" class="st0" d="M4245.451,6113.134c-89.64,0-162.427,72.912-162.427,162.303
			c0,89.506,72.788,162.294,162.427,162.294c89.462,0,162.303-72.788,162.303-162.294
			C4407.753,6186.046,4334.913,6113.134,4245.451,6113.134z"/>
		<path id="XMLID_2147_" class="st0" d="M1969.248,5265.305c-30.809,30.756-47.546,71.491-47.546,114.953
			c0,43.337,16.736,84.064,47.546,114.687c63.181,63.447,166.316,63.447,229.693,0c30.623-30.623,47.554-71.349,47.554-114.687
			c0-43.461-16.932-84.197-47.554-114.953C2135.564,5202.133,2032.429,5202.133,1969.248,5265.305z"/>
		<path id="XMLID_2148_" class="st0" d="M1188.755,3056.438c-89.444,0-162.294,72.912-162.294,162.294
			c0,89.648,72.85,162.561,162.294,162.561c89.648,0,162.303-72.912,162.303-162.561
			C1351.058,3129.351,1278.403,3056.438,1188.755,3056.438z"/>
		<path id="XMLID_2149_" class="st0" d="M2083.996,1219.768c43.337,0,84.135-16.728,114.944-47.341
			c30.623-30.756,47.554-71.625,47.554-114.953c0-43.337-16.932-84.197-47.554-114.944c-63.376-63.19-166.511-63.19-229.693,0
			c-30.809,30.747-47.546,71.607-47.546,114.944c0,43.328,16.736,84.197,47.546,114.953
			C1999.87,1203.04,2040.73,1219.768,2083.996,1219.768z"/>
		<path id="XMLID_2150_" class="st0" d="M4245.451,324.597c89.462,0,162.303-72.655,162.303-162.303
			C4407.753,72.788,4334.913,0,4245.451,0c-89.64,0-162.427,72.788-162.427,162.294
			C4083.023,251.943,4155.811,324.597,4245.451,324.597z"/>
		<path id="XMLID_2151_" class="st0" d="M6406.781,1219.768c43.328,0,84.33-16.728,114.749-47.341
			c30.747-30.756,47.679-71.625,47.679-114.953c0-43.337-16.932-84.197-47.679-114.944c-63.243-63.19-166.316-63.19-229.693,0
			c-30.614,30.747-47.545,71.607-47.545,114.944c0,43.328,16.932,84.197,47.545,114.953
			C6322.583,1203.04,6363.319,1219.768,6406.781,1219.768z"/>
		<path id="XMLID_2152_" class="st0" d="M7684.163,3056.438c-89.648,0-162.561,72.912-162.561,162.294
			c0,89.648,72.912,162.561,162.561,162.561c89.64,0,162.294-72.912,162.294-162.561
			C7846.457,3129.351,7773.802,3056.438,7684.163,3056.438z"/>
		<path id="XMLID_2153_" class="st0" d="M806.756,3056.438c-89.586,0-162.427,72.912-162.427,162.294
			c0,89.648,72.841,162.561,162.427,162.561c89.515,0,162.294-72.912,162.294-162.561
			C969.051,3129.351,896.272,3056.438,806.756,3056.438z"/>
	</g>
	<g id="XMLID_2156_">
		<g id="XMLID_2157_">
			<path id="XMLID_2158_" class="st0" d="M5208.872,9028.286v886.869h538.53v69.804h-612.286v-956.673H5208.872z"/>
			<path id="XMLID_2160_" class="st0" d="M6648.086,9984.959l-105.08-235.081h-571.292l-103.917,235.081H5788.6l429.029-956.673
				h80.699l429.162,956.673H6648.086z M6514.329,9681.502l-257.128-582.248l-256.817,582.248H6514.329z"/>
			<path id="XMLID_2163_" class="st0" d="M7543.523,9289.188c0,98.465-60.198,175.008-155.812,204.982
				c120.396,32.949,188.637,129.994,188.637,240.525c0,196.938-183.053,250.264-347.114,250.264c-139.396,0-252.919,0-392.244,0
				v-956.673c137.904,0,252.848,0,392.244,0C7390.57,9028.286,7543.523,9107.555,7543.523,9289.188z M6910.675,9461.47h328.033
				c114.882,0,235.082-35.541,235.082-172.282c0-139.343-125.519-198.111-244.556-198.111h-318.56V9461.47z M6910.675,9913.867
				h318.56c120.209,0,274.788-28.678,274.788-180.469c-1.562-148.932-136.803-202.257-265.314-202.257
				c-114.749,0-213.213,0-328.033,0V9913.867z"/>
			<path id="XMLID_2167_" class="st0" d="M8401.98,9212.776c-69.601-112.094-181.756-128.572-289.828-129.868
				c-111.96,0-289.695,40.992-289.695,193.955c0,121.816,131.228,150.485,292.554,180.46
				c184.482,35.551,375.845,68.5,375.845,274.779c-1.296,216.01-218.674,267.897-378.704,267.897
				c-148.807,0-318.364-61.485-392.253-207.7l65.711-32.824c58.635,116.24,209.005,173.588,326.542,173.588
				c117.67,0,304.949-32.958,304.949-202.382c1.296-143.498-157.118-174.894-314.485-204.858
				c-174.946-34.379-353.853-69.796-353.853-246.109c-4.155-202.391,206.279-265.182,363.388-265.182
				c136.741,0,255.707,21.798,349.901,162.694L8401.98,9212.776z"/>
		</g>
		<g id="XMLID_2169_">
			<path id="XMLID_2170_" class="st0" d="M2432.335,8079.79c8.959-385.31,213.933-576.931,612.739-576.931h42.946v258.176l0,0
				h-109.821c-166.645,0-287.813,140.63-287.813,314.218v618.838h0.124h-258.176V8079.79z"/>
			<path id="XMLID_2172_" class="st0" d="M6536.517,7508.177c-131.095,0-237.542,104.831-240.791,235.082
				c0,2.078-0.258,4.022-0.258,5.966c0,2.211,0.258,4.022,0.258,6.1v445.117h0.133c-2.335,128.058-106.642,231.193-235.339,231.193
				c-128.564,0-232.871-103.136-235.206-231.193l0,0v-689.282h-276.918v689.282h0.187c10.255,274.53,235.082,494.03,511.938,494.03
				s501.817-219.5,511.93-494.03h0.266v-263.875v-425.406v-2.983H6536.517z"/>
			<g id="XMLID_2173_">
				<path id="XMLID_2174_" class="st0" d="M5176.891,7164.766c-14.401,0-28.278,1.562-41.774,4.279v238.332h254.678
					c1.163-9.083,1.811-18.299,1.811-27.772C5391.605,7261.038,5295.6,7164.766,5176.891,7164.766z"/>
				<path id="XMLID_2175_" class="st0" d="M5393.612,7724.579c0-119.481-96.84-216.401-216.33-216.401
					c-14.597,0-28.669,1.43-42.166,4.155v218.346v21.921v941.491h257.395v-951.87
					C5393.035,7736.378,5393.612,7730.545,5393.612,7724.579z"/>
			</g>
			<path id="XMLID_2177_" class="st0" d="M5008.63,8003.503c-10.131-274.388-235.02-493.896-511.947-493.896
				c-147.893,0-280.612,62.79-374.149,162.951c-93.6-100.161-226.523-162.951-374.283-162.951
				c-276.865,0-501.825,219.508-511.947,493.896h-0.382v690.587h276.981v-690.454c2.397-128.049,106.651-231.184,235.348-231.184
				c129.727,0,234.949,105.08,235.331,234.691h0.391v686.947h276.99v-686.947h0.133c0.64-129.612,105.728-234.691,235.588-234.691
				c128.697,0,232.88,103.011,235.277,231.051h-0.062v405.687v35.159c9.083,139.725,125.066,250.256,266.992,250.256
				c3.25,0,6.624-0.391,9.998-0.515v-482.612v-207.975H5008.63z"/>
			<path id="XMLID_2178_" class="st0" d="M8488.06,8003.503c-10.051-274.388-235.011-493.896-511.929-493.896
				c-147.839,0-280.559,62.79-374.22,162.951c-93.546-100.161-226.39-162.951-374.229-162.951
				c-276.856,0-501.746,219.508-511.929,493.896h-0.329v690.587h276.98v-690.454c2.344-128.049,106.518-231.184,235.277-231.184
				c129.807,0,235.02,105.08,235.402,234.691h0.266v686.947H7740.4v-686.947h0.195c0.515-129.612,105.737-234.691,235.535-234.691
				c128.697,0,232.933,103.011,235.278,231.051l0,0v405.687v35.159c9.073,139.725,124.923,250.256,266.991,250.256
				c3.241,0,6.615-0.391,9.989-0.515v-482.612v-207.975H8488.06z"/>
			<path id="XMLID_2179_" class="st0" d="M2141.149,8194.343c78.426,0,141.989-62.142,144.714-139.849
				c0-1.944,0.524-3.507,0.524-5.318c0-2.602-0.648-5.185-0.781-7.787l-0.906-52.411
				c-25.429-270.757-253.31-482.878-530.939-482.878c-277.504,0-505.324,212.122-530.814,482.878l-1.82,93.67v111.694
				c4.022,63.314,18.033,124.027,42.298,179.821h-0.515c82.634,192.269,273.802,326.932,496.552,326.932
				c222.563,0,413.793-134.663,496.303-326.932h-290.672c-44.429,66.03-120.067,109.492-205.631,109.492
				c-85.946,0-161.451-43.462-205.951-109.492h0.266c-26.601-39.706-42.041-87.181-42.041-138.562
				c0-14.145,1.367-27.889,1.367-41.26H2141.149z M1753.894,7738.722c130.118,0,235.535,105.47,235.535,235.464
				c0,8.958-0.586,17.384-1.687,25.943h-474.443c-0.915-8.559-1.563-16.985-1.563-25.943
				C1511.736,7844.192,1623.821,7738.722,1753.894,7738.722z"/>
			<path id="XMLID_4_" class="st0" d="M247.001,7675.075v-92.784v-188.864h187.181h684.972v-240.291c-21.043,0-42.092,0-63.135,0
				c-52.633,0-105.266,0-157.9,0c-68.527,0-137.045,0-205.573,0c-127.452,0-254.934-1.077-382.485-0.839
				c-44.296,0.084-100.619-3.248-142.428,3.803c-73.801,12.449-133.152,71.701-156.43,142.73
				c-12.051,36.784-11.222,77.922-11.177,116.354c0.099,85.405,0.397,170.636,0.397,256.056c0,77.907,0,155.81,0,233.716
				c0,83.444,0,166.887,0,250.326c0,78.463,0,156.927,0,235.385c0,62.966,0,125.923,0,188.884c0,36.942,0,73.88,0,110.822
				c0,5.433,0,10.864,0,16.297h246.577V8128.48l0,0v-37.042l0,0v-104.397c7.061,0.01,14.122,0.024,21.182,0.035
				c18.377,0.03,36.754,0.064,55.136,0.094c25.522,0.044,51.044,0.084,76.571,0.129c28.496,0.05,56.988,0.1,85.484,0.149
				c23.288,0.04,46.575-0.546,69.858-0.174c24.435,0.388,49.287-0.516,73.721-0.129c10.75,0.169,21.853-0.169,32.603,0
				c44.485,0.7,87.664,1.917,128.981-16.45c7.284-3.238,14.38-6.877,21.262-10.899c28.745-16.812,53.507-40.25,71.889-68.026
				c18.769-28.377,30.676-61.084,34.529-94.894c0.938-8.272,1.41-16.6,1.41-24.926c0-7.379-0.333-14.469-1.137-21.625h-433.46
				H247.001v-38.283V7675.075z"/>
		</g>
	</g>
</g>
<g id="XMLID_2_">
</g>
<g id="XMLID_1150_">
	<path id="XMLID_3_" class="st0" d="M3908.094,2959.884v-100.295v-204.155h202.006h739.224v-259.745c-22.71,0-45.425,0-68.136,0
		c-56.802,0-113.604,0-170.406,0c-73.955,0-147.899,0-221.854,0c-137.547,0-275.125-1.165-412.779-0.907
		c-47.805,0.091-108.588-3.51-153.708,4.111c-79.646,13.456-143.698,77.506-168.82,154.286
		c-13.005,39.762-12.111,84.231-12.062,125.774c0.107,92.32,0.429,184.451,0.429,276.787c0,84.215,0,168.424,0,252.639
		c0,90.199,0,180.399,0,270.593c0,84.816,0,169.632,0,254.442c0,68.064,0,136.117,0,204.176c0,39.934,0,79.862,0,119.795
		c0,5.872,0,11.744,0,17.616h266.106v-625.003l0,0v-40.041l0,0v-112.85c7.62,0.01,15.24,0.027,22.86,0.037
		c19.833,0.032,39.665,0.07,59.503,0.102c27.543,0.048,55.087,0.091,82.636,0.14c30.753,0.054,61.501,0.107,92.255,0.161
		c25.132,0.043,50.264-0.59,75.391-0.188c26.37,0.419,53.19-0.558,79.56-0.14c11.602,0.183,23.583-0.182,35.185,0
		c48.009,0.757,94.607,2.072,139.197-17.782c7.861-3.5,15.519-7.434,22.946-11.781c31.021-18.174,57.745-43.508,77.583-73.533
		c20.256-30.675,33.106-66.03,37.264-102.577c1.013-8.942,1.522-17.943,1.522-26.944c0-7.976-0.359-15.641-1.227-23.375h-467.792
		h-256.884v-41.383V2959.884z"/>
</g>
<g id="XMLID_1_">
</g>
<g id="XMLID_5_">
</g>
<g id="XMLID_6_">
</g>
<g id="XMLID_7_">
</g>
<g id="XMLID_8_">
</g>
<g id="XMLID_9_">
</g>
<g id="XMLID_10_">
</g>
<g id="XMLID_11_">
</g>
<g id="XMLID_12_">
</g>
<g id="XMLID_13_">
</g>
<g id="XMLID_14_">
</g>
<g id="XMLID_15_">
</g>
<g id="XMLID_16_">
</g>
<g id="XMLID_17_">
</g>
<g id="XMLID_18_">
</g>
</svg>
