<?xml version="1.0" encoding="utf-8"?>
<!-- Generator: Adobe Illustrator 19.0.0, SVG Export Plug-In . SVG Version: 6.00 Build 0)  -->
<svg version="1.1" id="Livello_1" xmlns="http://www.w3.org/2000/svg" xmlns:xlink="http://www.w3.org/1999/xlink" x="0px" y="0px"
	 viewBox="113 238.1 838.1 316.9" style="enable-background:new 113 238.1 838.1 316.9;" xml:space="preserve">
<style type="text/css">
	.st0{fill:#FFFFFF;}
</style>
<g id="XMLID_119_">
	<g id="XMLID_145_">
		<path id="XMLID_117_" class="st0" d="M456.8,387.3c-4.4,0-7.9,3.6-7.9,7.9c0,4.4,3.6,7.9,7.9,7.9c4.4,0,7.9-3.6,7.9-7.9
			S461.1,387.3,456.8,387.3z"/>
		<path id="XMLID_116_" class="st0" d="M352.7,395.2c0-4.4-3.6-7.9-7.9-7.9c-4.4,0-7.9,3.6-7.9,7.9c0,4.4,3.6,7.9,7.9,7.9
			C349.2,403.2,352.7,399.6,352.7,395.2z"/>
		<path id="XMLID_115_" class="st0" d="M232.9,403.2c4.4,0,7.9-3.6,7.9-7.9c0-4.4-3.6-7.9-7.9-7.9c-4.4,0-7.9,3.6-7.9,7.9
			C224.9,399.6,228.5,403.2,232.9,403.2z"/>
		<path id="XMLID_114_" class="st0" d="M371.4,395.2c0-4.4-3.6-7.9-7.9-7.9c-4.4,0-7.9,3.6-7.9,7.9c0,4.4,3.6,7.9,7.9,7.9
			C367.8,403.2,371.4,399.6,371.4,395.2z"/>
		<path id="XMLID_113_" class="st0" d="M336,453.6c3.1,3.1,8.1,3.1,11.2,0c1.5-1.5,2.3-3.5,2.3-5.6s-0.8-4.1-2.3-5.6
			s-3.5-2.3-5.6-2.3s-4.1,0.8-5.6,2.3s-2.3,3.5-2.3,5.6S334.5,452.1,336,453.6z"/>
		<path id="XMLID_112_" class="st0" d="M288.8,477.8c4.4,0,7.9-3.6,7.9-7.9c0-4.4-3.6-7.9-7.9-7.9c-4.4,0-7.9,3.6-7.9,7.9
			S284.5,477.8,288.8,477.8z"/>
		<path id="XMLID_111_" class="st0" d="M236.1,455.9c2.1,0,4.1-0.8,5.6-2.3s2.3-3.5,2.3-5.6s-0.8-4.1-2.3-5.6s-3.5-2.3-5.6-2.3
			s-4.1,0.8-5.6,2.3s-2.3,3.5-2.3,5.6s0.8,4.1,2.3,5.6S234,455.9,236.1,455.9z"/>
		<path id="XMLID_110_" class="st0" d="M222.1,395.2c0-4.4-3.6-7.9-7.9-7.9c-4.4,0-7.9,3.6-7.9,7.9c0,4.4,3.6,7.9,7.9,7.9
			C218.6,403.2,222.1,399.6,222.1,395.2z"/>
		<path id="XMLID_109_" class="st0" d="M241.7,336.9c-3.1-3.1-8.1-3.1-11.2,0c-1.5,1.5-2.3,3.5-2.3,5.6s0.8,4.1,2.3,5.6
			s3.5,2.3,5.6,2.3s4.1-0.8,5.6-2.3s2.3-3.5,2.3-5.6S243.2,338.4,241.7,336.9z"/>
		<path id="XMLID_108_" class="st0" d="M288.8,312.7c-4.4,0-7.9,3.5-7.9,7.9s3.6,7.9,7.9,7.9c4.4,0,7.9-3.6,7.9-7.9
			C296.8,316.2,293.2,312.7,288.8,312.7z"/>
		<path id="XMLID_107_" class="st0" d="M341.6,350.4c2.1,0,4.1-0.8,5.6-2.3s2.3-3.5,2.3-5.6s-0.8-4.1-2.3-5.6
			c-3.1-3.1-8.1-3.1-11.2,0c-1.5,1.5-2.3,3.5-2.3,5.6s0.8,4.1,2.3,5.6S339.5,350.4,341.6,350.4z"/>
		<path id="XMLID_106_" class="st0" d="M382.1,387.3c-4.4,0-7.9,3.6-7.9,7.9c0,4.4,3.6,7.9,7.9,7.9c4.4,0,7.9-3.6,7.9-7.9
			C390.1,390.9,386.5,387.3,382.1,387.3z"/>
		<path id="XMLID_105_" class="st0" d="M373.8,434.6c2,0.7,4.1,0.6,6.1-0.3c1.9-0.9,3.4-2.5,4.1-4.5c0.3-0.9,0.5-1.8,0.5-2.7
			c0-3.3-2.1-6.3-5.2-7.4c-2-0.7-4.1-0.6-6.1,0.3c-1.9,0.9-3.4,2.5-4.1,4.5c-0.3,0.9-0.5,1.8-0.5,2.7
			C368.6,430.5,370.7,433.5,373.8,434.6z"/>
		<path id="XMLID_104_" class="st0" d="M361,463.1c2.1-0.2,4-1.2,5.4-2.8c1.2-1.4,1.9-3.2,1.9-5.1c0-2.4-1-4.6-2.8-6.1
			c-1.6-1.4-3.7-2-5.8-1.8s-4,1.2-5.4,2.8c-1.2,1.4-1.9,3.2-1.9,5.1c0,2.4,1,4.6,2.8,6.1C356.8,462.6,358.9,463.3,361,463.1z"/>
		<path id="XMLID_103_" class="st0" d="M342.4,472.1c-2.2-3.8-7-5.1-10.8-2.9c-2.4,1.4-4,4.1-4,6.9c0,1.4,0.4,2.8,1.1,4
			c1.1,1.8,2.8,3.1,4.8,3.7c2,0.5,4.2,0.3,6-0.8c2.4-1.4,4-4,4-6.9C343.4,474.6,343,473.3,342.4,472.1z"/>
		<path id="XMLID_102_" class="st0" d="M306.4,494.9c3.8-0.7,6.6-4,6.6-7.8c0-0.5,0-0.9-0.1-1.4c-0.8-4.3-4.9-7.2-9.2-6.4
			c-3.8,0.7-6.6,4-6.6,7.8c0,0.5,0,0.9,0.1,1.4C298,492.8,302.1,495.7,306.4,494.9z"/>
		<path id="XMLID_101_" class="st0" d="M271.3,494.9c2.1,0.4,4.2-0.1,5.9-1.3c1.7-1.2,2.9-3,3.3-5.1c0.1-0.5,0.1-0.9,0.1-1.4
			c0-3.8-2.8-7.1-6.5-7.8c-2.1-0.4-4.2,0.1-5.9,1.3c-1.7,1.2-2.9,3-3.3,5.1c-0.1,0.5-0.1,0.9-0.1,1.4
			C264.7,491,267.5,494.2,271.3,494.9z"/>
		<path id="XMLID_100_" class="st0" d="M244.3,483.7c2-0.6,3.8-1.9,4.8-3.7c0.7-1.2,1.1-2.6,1.1-4c0-2.8-1.5-5.5-4-6.9
			c-3.8-2.2-8.7-0.9-10.8,2.9c-0.7,1.2-1.1,2.6-1.1,4c0,2.8,1.5,5.5,4,6.9C240.1,484,242.2,484.2,244.3,483.7z"/>
		<path id="XMLID_99_" class="st0" d="M222.5,461.3c1.8-1.5,2.8-3.7,2.8-6.1c0-1.9-0.7-3.7-1.9-5.1c-1.4-1.6-3.3-2.6-5.4-2.8
			c-2.1-0.2-4.2,0.5-5.8,1.8c-1.8,1.5-2.8,3.7-2.8,6.1c0,1.9,0.7,3.7,1.9,5.1C214.1,463.7,219.1,464.1,222.5,461.3z"/>
		<path id="XMLID_98_" class="st0" d="M209.1,427.1c0-0.9-0.2-1.8-0.5-2.7c-0.7-2-2.2-3.6-4.1-4.5c-1.9-0.9-4.1-1-6.1-0.3
			c-3.1,1.1-5.2,4.1-5.2,7.4c0,0.9,0.2,1.8,0.5,2.7c0.7,2,2.2,3.6,4.1,4.5s4.1,1,6.1,0.3C207,433.5,209.1,430.5,209.1,427.1z"/>
		<path id="XMLID_97_" class="st0" d="M195.6,387.3c-4.4,0-7.9,3.6-7.9,7.9c0,4.4,3.6,7.9,7.9,7.9c4.4,0,7.9-3.6,7.9-7.9
			S199.9,387.3,195.6,387.3z"/>
		<path id="XMLID_96_" class="st0" d="M208.6,366.1c0.3-0.9,0.5-1.8,0.5-2.7c0-3.3-2.1-6.3-5.2-7.5c-2-0.7-4.1-0.6-6.1,0.3
			c-1.9,0.9-3.4,2.5-4.1,4.5c-0.3,0.9-0.5,1.8-0.5,2.7c0,3.3,2.1,6.3,5.2,7.4C202.6,372.3,207.1,370.2,208.6,366.1z"/>
		<path id="XMLID_95_" class="st0" d="M223.5,340.4c1.2-1.4,1.9-3.2,1.9-5.1c0-2.4-1-4.6-2.8-6.1c-3.4-2.8-8.4-2.4-11.2,1
			c-1.2,1.4-1.9,3.2-1.9,5.1c0,2.4,1,4.6,2.8,6.1c1.6,1.4,3.7,2,5.8,1.8C220.2,343,222.1,342,223.5,340.4z"/>
		<path id="XMLID_94_" class="st0" d="M235.3,318.4c1.1,1.8,2.8,3.2,4.8,3.7c2,0.6,4.2,0.3,6-0.8c2.4-1.4,4-4,4-6.9
			c0-1.4-0.4-2.8-1.1-4c-2.2-3.8-7-5.1-10.8-2.9c-2.4,1.4-4,4-4,6.9C234.3,315.8,234.6,317.2,235.3,318.4z"/>
		<path id="XMLID_93_" class="st0" d="M277.2,296.9c-1.7-1.2-3.8-1.7-5.9-1.3c-3.8,0.7-6.6,4-6.6,7.8c0,0.5,0,0.9,0.1,1.4
			c0.4,2.1,1.5,3.9,3.3,5.1c1.7,1.2,3.8,1.7,5.9,1.3c3.8-0.7,6.5-3.9,6.5-7.8c0-0.5,0-0.9-0.1-1.4
			C280.1,299.9,278.9,298.1,277.2,296.9z"/>
		<path id="XMLID_92_" class="st0" d="M306.4,295.6c-2.1-0.4-4.2,0.1-5.9,1.3c-1.7,1.2-2.9,3-3.3,5.1c-0.1,0.5-0.1,0.9-0.1,1.4
			c0,3.9,2.8,7.1,6.6,7.8c2.1,0.4,4.2-0.1,5.9-1.3c1.7-1.2,2.9-3,3.3-5.1c0.1-0.5,0.1-0.9,0.1-1.4
			C313,299.5,310.2,296.2,306.4,295.6z"/>
		<path id="XMLID_91_" class="st0" d="M328.6,310.5c-0.7,1.2-1.1,2.6-1.1,4c0,2.8,1.5,5.5,4,6.9c1.8,1.1,4,1.3,6,0.8
			s3.8-1.9,4.8-3.7c0.7-1.2,1.1-2.6,1.1-4c0-2.8-1.5-5.5-4-6.9C335.7,305.4,330.8,306.7,328.6,310.5z"/>
		<path id="XMLID_90_" class="st0" d="M359.6,343.2c2.1,0.2,4.2-0.5,5.8-1.8c1.8-1.5,2.8-3.7,2.8-6.1c0-1.9-0.7-3.7-1.9-5.1
			c-1.4-1.6-3.3-2.6-5.4-2.8s-4.2,0.5-5.8,1.8c-1.8,1.5-2.8,3.7-2.8,6.1c0,1.9,0.7,3.7,1.9,5.1C355.6,342,357.5,343,359.6,343.2z"/>
		<path id="XMLID_89_" class="st0" d="M368.6,363.3c0,0.9,0.2,1.8,0.5,2.7c1.5,4.1,6.1,6.2,10.2,4.7c3.1-1.1,5.2-4.1,5.2-7.4
			c0-0.9-0.2-1.8-0.5-2.7c-0.7-2-2.2-3.6-4.1-4.5s-4.1-1-6.1-0.3C370.7,357,368.6,360,368.6,363.3z"/>
		<path id="XMLID_88_" class="st0" d="M400.8,387.3c-4.4,0-7.9,3.6-7.9,7.9c0,4.4,3.6,7.9,7.9,7.9c4.4,0,7.9-3.6,7.9-7.9
			S405.2,387.3,400.8,387.3z"/>
		<path id="XMLID_87_" class="st0" d="M406.4,418.6c0.1-0.5,0.2-1,0.2-1.6c0-3.8-2.7-7-6.4-7.8c-4.3-0.9-8.5,1.9-9.3,6.2
			c-0.1,0.5-0.2,1-0.2,1.6c0,3.8,2.7,7,6.4,7.8C401.4,425.7,405.6,422.9,406.4,418.6z"/>
		<path id="XMLID_86_" class="st0" d="M399.6,441.1c0.4-1,0.6-2,0.6-3c0-3.2-1.9-6.1-4.9-7.3c-2-0.8-4.1-0.8-6.1,0s-3.5,2.3-4.3,4.3
			c-0.4,1-0.6,2-0.6,3c0,3.2,1.9,6.1,4.9,7.3C393.3,447.1,397.9,445.2,399.6,441.1z"/>
		<path id="XMLID_85_" class="st0" d="M377.5,464c3.6,2.4,8.6,1.4,11-2.2c0.9-1.3,1.3-2.8,1.3-4.4c0-2.7-1.3-5.1-3.5-6.6
			c-3.6-2.4-8.6-1.4-11,2.2c-0.9,1.3-1.3,2.8-1.3,4.4C374,460.1,375.3,462.6,377.5,464z"/>
		<path id="XMLID_84_" class="st0" d="M375.9,474.4c0-2.1-0.8-4.1-2.3-5.6c-3.1-3.1-8.1-3.1-11.2,0c-1.5,1.5-2.3,3.5-2.3,5.6
			s0.8,4.1,2.3,5.6c3.1,3.1,8.1,3.1,11.2,0C375.1,478.5,375.9,476.5,375.9,474.4z"/>
		<path id="XMLID_83_" class="st0" d="M355.4,494.9c2.2-1.5,3.5-3.9,3.5-6.6c0-1.6-0.5-3.1-1.3-4.4c-1.2-1.8-3-3-5-3.4
			c-2.1-0.4-4.2,0-6,1.2c-2.2,1.5-3.5,3.9-3.5,6.6c0,1.6,0.5,3.1,1.3,4.4c1.2,1.8,3,3,5.1,3.4C351.6,496.5,353.7,496.1,355.4,494.9z
			"/>
		<path id="XMLID_82_" class="st0" d="M328.7,491.3c-3,1.2-4.9,4.1-4.9,7.3c0,1,0.2,2.1,0.6,3c1.7,4,6.3,6,10.4,4.3
			c3-1.2,4.9-4.1,4.9-7.3c0-1-0.2-2.1-0.6-3C337.3,491.6,332.7,489.7,328.7,491.3z"/>
		<path id="XMLID_81_" class="st0" d="M309.1,497.3c-3.7,0.7-6.4,4-6.4,7.8c0,0.5,0,1,0.1,1.6c0.9,4.3,5,7.1,9.3,6.2
			c3.7-0.7,6.4-4,6.4-7.8c0-0.5-0.1-1-0.2-1.6C317.6,499.2,313.4,496.4,309.1,497.3z"/>
		<path id="XMLID_80_" class="st0" d="M288.8,515.1c4.4,0,7.9-3.6,7.9-7.9c0-4.4-3.6-7.9-7.9-7.9c-4.4,0-7.9,3.6-7.9,7.9
			C280.9,511.6,284.5,515.1,288.8,515.1z"/>
		<path id="XMLID_79_" class="st0" d="M274.8,506.6c0.1-0.5,0.2-1,0.2-1.6c0-3.8-2.7-7-6.4-7.8c-2.1-0.4-4.2,0-6,1.2s-3,3-3.4,5.1
			c-0.1,0.5-0.2,1-0.2,1.6c0,3.8,2.7,7,6.4,7.8c2.1,0.4,4.2,0,6-1.2C273.2,510.5,274.4,508.7,274.8,506.6z"/>
		<path id="XMLID_78_" class="st0" d="M249,506c2-0.8,3.5-2.3,4.3-4.3c0.4-1,0.6-2,0.6-3c0-3.2-1.9-6.1-4.9-7.3
			c-2-0.8-4.1-0.8-6.1,0c-1.9,0.8-3.5,2.3-4.3,4.3c-0.4,1-0.6,2-0.6,3c0,3.2,1.9,6.1,4.9,7.3C244.9,506.8,247.1,506.8,249,506z"/>
		<path id="XMLID_77_" class="st0" d="M231.1,481.7c-1.8-1.2-3.9-1.6-6-1.2c-2.1,0.4-3.9,1.6-5,3.4c-0.9,1.3-1.3,2.8-1.3,4.4
			c0,2.6,1.3,5.1,3.5,6.6c3.6,2.4,8.6,1.4,11-2.2c0.9-1.3,1.3-2.8,1.3-4.4C234.6,485.7,233.3,483.2,231.1,481.7z"/>
		<path id="XMLID_76_" class="st0" d="M215.3,468.8c-3.1-3.1-8.1-3.1-11.2,0c-1.5,1.5-2.3,3.5-2.3,5.6s0.8,4.1,2.3,5.6
			c3.1,3.1,8.1,3.1,11.2,0c1.5-1.5,2.3-3.5,2.3-5.6S216.8,470.3,215.3,468.8z"/>
		<path id="XMLID_75_" class="st0" d="M200.2,464c2.2-1.5,3.5-3.9,3.5-6.6c0-1.6-0.5-3.1-1.3-4.4c-2.4-3.6-7.4-4.6-11-2.2
			c-2.2,1.5-3.5,3.9-3.5,6.6c0,1.6,0.5,3.1,1.3,4.4C191.6,465.5,196.5,466.5,200.2,464z"/>
		<path id="XMLID_74_" class="st0" d="M188.5,445.4c3-1.2,4.9-4.1,4.9-7.3c0-1-0.2-2.1-0.6-3c-0.8-2-2.3-3.5-4.3-4.3s-4.1-0.8-6.1,0
			c-3,1.2-4.9,4.1-4.9,7.3c0,1,0.2,2.1,0.6,3C179.8,445.2,184.4,447.1,188.5,445.4z"/>
		<path id="XMLID_73_" class="st0" d="M180.6,424.9c3.7-0.7,6.4-4,6.4-7.8c0-0.5-0.1-1-0.2-1.6c-0.9-4.3-5-7.1-9.3-6.2
			c-3.7,0.7-6.4,4-6.4,7.8c0,0.5,0.1,1,0.2,1.6C172.1,422.9,176.3,425.7,180.6,424.9z"/>
		<path id="XMLID_72_" class="st0" d="M176.9,403.2c4.4,0,7.9-3.6,7.9-7.9c0-4.4-3.6-7.9-7.9-7.9s-7.9,3.6-7.9,7.9
			C169,399.6,172.5,403.2,176.9,403.2z"/>
		<path id="XMLID_71_" class="st0" d="M171.3,371.9c-0.1,0.5-0.2,1-0.2,1.6c0,3.8,2.7,7,6.4,7.8c4.3,0.9,8.5-1.9,9.3-6.2
			c0.1-0.5,0.2-1,0.2-1.6c0-3.8-2.7-7-6.4-7.8C176.3,364.8,172.1,367.6,171.3,371.9z"/>
		<path id="XMLID_70_" class="st0" d="M182.4,345.1c-2,0.8-3.5,2.3-4.3,4.3c-0.4,1-0.6,2-0.6,3c0,3.2,1.9,6.1,4.9,7.3
			c2,0.8,4.1,0.8,6.1,0s3.5-2.3,4.3-4.3c0.4-1,0.6-2,0.6-3c0-3.2-1.9-6.1-4.9-7.3C186.5,344.3,184.3,344.3,182.4,345.1z"/>
		<path id="XMLID_69_" class="st0" d="M200.2,326.5c-3.6-2.4-8.6-1.4-11,2.2c-0.9,1.3-1.3,2.8-1.3,4.4c0,2.7,1.3,5.1,3.5,6.6
			c3.6,2.4,8.6,1.4,11-2.2c0.9-1.3,1.3-2.8,1.3-4.4C203.7,330.4,202.4,327.9,200.2,326.5z"/>
		<path id="XMLID_68_" class="st0" d="M201.8,316.1c0,2.1,0.8,4.1,2.3,5.6s3.5,2.3,5.6,2.3s4.1-0.8,5.6-2.3s2.3-3.5,2.3-5.6
			s-0.8-4.1-2.3-5.6c-3.1-3.1-8.1-3.1-11.2,0C202.6,312,201.8,314,201.8,316.1z"/>
		<path id="XMLID_67_" class="st0" d="M222.2,295.6c-2.2,1.5-3.5,3.9-3.5,6.6c0,1.6,0.5,3.1,1.3,4.4c1.2,1.8,3,3,5,3.4
			c2.1,0.4,4.2,0,6-1.2c2.2-1.5,3.5-3.9,3.5-6.6c0-1.6-0.5-3.1-1.3-4.4c-1.2-1.8-3-3-5-3.4C226.1,294,224,294.4,222.2,295.6z"/>
		<path id="XMLID_66_" class="st0" d="M243,299.1c2,0.8,4.1,0.8,6.1,0c3-1.2,4.9-4.1,4.9-7.3c0-1-0.2-2.1-0.6-3
			c-1.7-4-6.3-6-10.4-4.3c-3,1.2-4.9,4.1-4.9,7.3c0,1,0.2,2.1,0.6,3C239.5,296.8,241,298.3,243,299.1z"/>
		<path id="XMLID_65_" class="st0" d="M262.6,292c1.8,1.2,3.9,1.6,6,1.2c3.7-0.7,6.4-4,6.4-7.8c0-0.5-0.1-1-0.2-1.6
			c-0.4-2.1-1.6-3.9-3.4-5c-1.8-1.2-3.9-1.6-6-1.2c-3.7,0.7-6.4,4-6.4,7.8c0,0.5,0.1,1,0.2,1.6C259.6,289.1,260.8,290.9,262.6,292z"
			/>
		<path id="XMLID_64_" class="st0" d="M288.8,275.4c-4.4,0-7.9,3.6-7.9,7.9c0,4.4,3.6,7.9,7.9,7.9c4.4,0,7.9-3.6,7.9-7.9
			C296.8,278.9,293.2,275.4,288.8,275.4z"/>
		<path id="XMLID_63_" class="st0" d="M302.9,283.9c-0.1,0.5-0.1,1-0.1,1.6c0,3.8,2.7,7,6.4,7.8c4.3,0.9,8.5-1.9,9.3-6.2
			c0.1-0.5,0.2-1,0.2-1.6c0-3.8-2.7-7-6.4-7.8C307.9,276.8,303.8,279.6,302.9,283.9z"/>
		<path id="XMLID_62_" class="st0" d="M324.4,288.8c-0.4,1-0.6,2-0.6,3c0,3.2,1.9,6.1,4.9,7.3c4,1.7,8.7-0.3,10.4-4.3
			c0.4-1,0.6-2,0.6-3c0-3.2-1.9-6.1-4.9-7.3C330.7,282.8,326,284.8,324.4,288.8z"/>
		<path id="XMLID_61_" class="st0" d="M346.6,308.8c3.6,2.4,8.6,1.4,11-2.2c0.9-1.3,1.3-2.8,1.3-4.4c0-2.7-1.3-5.1-3.5-6.6
			c-1.8-1.2-3.9-1.6-5.9-1.2c-2.1,0.4-3.9,1.6-5.1,3.4c-0.9,1.3-1.3,2.8-1.3,4.4C343.1,304.8,344.4,307.3,346.6,308.8z"/>
		<path id="XMLID_60_" class="st0" d="M362.4,321.7c1.5,1.5,3.5,2.3,5.6,2.3s4.1-0.8,5.6-2.3s2.3-3.5,2.3-5.6s-0.8-4.1-2.3-5.6
			c-3.1-3.1-8.1-3.1-11.2,0c-1.5,1.5-2.3,3.5-2.3,5.6C360.1,318.2,360.9,320.2,362.4,321.7z"/>
		<path id="XMLID_59_" class="st0" d="M377.5,326.5c-2.2,1.5-3.5,3.9-3.5,6.6c0,1.6,0.5,3.1,1.3,4.4c2.4,3.6,7.4,4.6,11,2.2
			c2.2-1.5,3.5-3.9,3.5-6.6c0-1.6-0.5-3.1-1.3-4.4C386.1,325,381.2,324,377.5,326.5z"/>
		<path id="XMLID_58_" class="st0" d="M395.3,345.1c-2-0.8-4.1-0.8-6.1,0c-3,1.2-4.9,4.1-4.9,7.3c0,1,0.2,2.1,0.6,3
			c0.8,2,2.3,3.5,4.3,4.3c1.9,0.8,4.1,0.8,6.1,0c3-1.2,4.9-4.1,4.9-7.3c0-1-0.2-2.1-0.6-3C398.8,347.4,397.3,345.9,395.3,345.1z"/>
		<path id="XMLID_57_" class="st0" d="M390.7,373.4c0,0.5,0.1,1,0.2,1.6c0.9,4.3,5,7.1,9.3,6.2c3.7-0.7,6.4-4,6.4-7.8
			c0-0.5,0-1-0.2-1.6c-0.8-4.3-5-7.1-9.3-6.2C393.4,366.4,390.7,369.6,390.7,373.4z"/>
		<path id="XMLID_56_" class="st0" d="M419.4,387.3c-4.4,0-7.9,3.6-7.9,7.9c0,4.4,3.6,7.9,7.9,7.9c4.4,0,7.9-3.6,7.9-7.9
			C427.4,390.9,423.8,387.3,419.4,387.3z"/>
		<path id="XMLID_55_" class="st0" d="M418.2,414.6c-2.1-0.4-4.2,0-6,1.1c-1.8,1.2-3,2.9-3.4,5c-0.1,0.5-0.2,1.1-0.2,1.7
			c0,3.7,2.6,7,6.3,7.7c2.1,0.4,4.2,0.1,6-1.1c1.8-1.2,3-2.9,3.4-5c0.1-0.5,0.2-1.1,0.2-1.7C424.5,418.7,421.9,415.4,418.2,414.6z"
			/>
		<path id="XMLID_54_" class="st0" d="M411.4,441.1c-4-1.8-8.7,0-10.5,4c-0.5,1-0.7,2.1-0.7,3.2c0,3.1,1.8,6,4.7,7.2
			c4,1.8,8.7,0,10.5-4c0.5-1,0.7-2.1,0.7-3.2C416.1,445.2,414.2,442.4,411.4,441.1z"/>
		<path id="XMLID_53_" class="st0" d="M399.2,465.6c-3.5-2.6-8.5-1.8-11.1,1.8c-1,1.4-1.5,3-1.5,4.7c0,2.5,1.2,4.9,3.3,6.4
			c1.7,1.3,3.8,1.8,5.9,1.4c2.1-0.3,3.9-1.5,5.2-3.2c1-1.4,1.5-3,1.5-4.7C402.4,469.5,401.2,467.1,399.2,465.6z"/>
		<path id="XMLID_52_" class="st0" d="M370.9,486.4c-1.7,1.5-2.6,3.6-2.6,5.9c0,2,0.7,3.8,2,5.3c1.4,1.6,3.4,2.5,5.5,2.6
			s4.2-0.6,5.7-2c1.7-1.5,2.6-3.7,2.6-5.9c0-2-0.7-3.9-2-5.3C379.2,483.7,374.2,483.5,370.9,486.4z"/>
		<path id="XMLID_51_" class="st0" d="M356.2,500.7c-2-0.6-4.2-0.3-6,0.8c-2.4,1.4-4,4.1-4,6.9c0,1.4,0.4,2.8,1.1,4
			c2.2,3.8,7,5.1,10.8,2.9c2.4-1.4,4-4,4-6.9c0-1.4-0.4-2.8-1.1-4C359.9,502.5,358.2,501.2,356.2,500.7z"/>
		<path id="XMLID_50_" class="st0" d="M326.8,511.9c-3.3,1.1-5.5,4.1-5.5,7.5c0,0.8,0.1,1.7,0.4,2.4c1.3,4.2,5.8,6.5,10,5.1
			c3.3-1.1,5.5-4.1,5.5-7.5c0-0.8-0.1-1.7-0.4-2.5C335.4,512.8,330.9,510.6,326.8,511.9z"/>
		<path id="XMLID_49_" class="st0" d="M301.7,517.2c-4.1,0.4-7.1,3.8-7.1,7.9c0,0.3,0,0.6,0,0.8c0.5,4.4,4.4,7.5,8.7,7.1
			c4.1-0.4,7.1-3.8,7.1-7.9c0-0.3,0-0.6,0-0.8C309.9,520,306,516.8,301.7,517.2z"/>
		<path id="XMLID_48_" class="st0" d="M283.1,526c0-0.3,0-0.6,0-0.8c0-4.1-3.1-7.5-7.1-7.9c-2.1-0.2-4.2,0.4-5.8,1.7
			c-1.6,1.3-2.7,3.2-2.9,5.3c0,0.3,0,0.6,0,0.8c0,4.1,3.1,7.4,7.1,7.9c2.1,0.2,4.2-0.4,5.8-1.7C281.8,530,282.9,528.1,283.1,526z"/>
		<path id="XMLID_47_" class="st0" d="M250.9,511.9c-4.2-1.3-8.6,0.9-10,5.1c-0.3,0.8-0.4,1.6-0.4,2.5c0,3.4,2.2,6.5,5.5,7.5
			c4.2,1.4,8.6-0.9,10-5.1c0.3-0.8,0.4-1.6,0.4-2.4C256.4,516,254.2,513,250.9,511.9z"/>
		<path id="XMLID_46_" class="st0" d="M227.5,501.5c-1.8-1.1-4-1.3-6-0.8s-3.8,1.9-4.8,3.7c-0.7,1.2-1.1,2.6-1.1,4
			c0,2.8,1.5,5.5,4,6.9c3.8,2.2,8.6,0.9,10.8-2.9c0.7-1.2,1.1-2.6,1.1-4C231.5,505.5,230,502.9,227.5,501.5z"/>
		<path id="XMLID_45_" class="st0" d="M195.6,487c-1.3,1.5-2,3.3-2,5.3c0,2.2,1,4.4,2.6,5.9c1.6,1.4,3.6,2.1,5.7,2s4.1-1,5.5-2.6
			c1.3-1.5,2-3.3,2-5.3c0-2.2-1-4.4-2.6-5.9C203.5,483.5,198.5,483.7,195.6,487z"/>
		<path id="XMLID_44_" class="st0" d="M181.9,479.8c2.1,0.3,4.2-0.2,5.9-1.4c2-1.5,3.3-3.9,3.3-6.4c0-1.7-0.5-3.3-1.5-4.7
			c-1.2-1.7-3.1-2.8-5.2-3.2c-2.1-0.3-4.2,0.2-5.9,1.4c-2,1.5-3.3,3.9-3.3,6.4c0,1.7,0.5,3.3,1.5,4.7
			C178,478.4,179.9,479.5,181.9,479.8z"/>
		<path id="XMLID_43_" class="st0" d="M177.5,448.4c0-1.1-0.2-2.2-0.7-3.2c-1.8-4-6.5-5.8-10.5-4c-2.9,1.3-4.7,4.1-4.7,7.2
			c0,1.1,0.2,2.2,0.7,3.2c1.8,4,6.5,5.8,10.5,4C175.6,454.3,177.5,451.5,177.5,448.4z"/>
		<path id="XMLID_42_" class="st0" d="M169,422.4c0-0.6-0.1-1.1-0.2-1.7c-0.9-4.3-5.1-7-9.4-6.1c-3.6,0.8-6.3,4-6.3,7.8
			c0,0.6,0.1,1.1,0.2,1.7c0.4,2.1,1.7,3.9,3.4,5c1.8,1.2,3.9,1.5,6,1.1C166.4,429.4,169,426.1,169,422.4z"/>
		<path id="XMLID_41_" class="st0" d="M166.2,395.2c0-4.4-3.6-7.9-7.9-7.9c-4.4,0-7.9,3.6-7.9,7.9c0,4.4,3.6,7.9,7.9,7.9
			C162.6,403.2,166.2,399.6,166.2,395.2z"/>
		<path id="XMLID_40_" class="st0" d="M159.5,375.8c4.3,0.9,8.5-1.8,9.4-6.1c0.1-0.5,0.2-1.1,0.2-1.7c0-3.7-2.6-7-6.3-7.7
			c-4.3-0.9-8.5,1.8-9.4,6.1c-0.1,0.5-0.2,1.1-0.2,1.7C153.2,371.8,155.8,375.1,159.5,375.8z"/>
		<path id="XMLID_39_" class="st0" d="M166.3,349.4c4,1.8,8.7,0,10.5-4c0.5-1,0.7-2.1,0.7-3.2c0-3.1-1.8-6-4.7-7.2
			c-1.9-0.9-4.1-0.9-6.1-0.2c-2,0.8-3.5,2.2-4.4,4.2c-0.5,1-0.7,2.1-0.7,3.2C161.6,345.2,163.5,348.1,166.3,349.4z"/>
		<path id="XMLID_38_" class="st0" d="M178.5,324.9c3.5,2.6,8.5,1.8,11.1-1.8c1-1.4,1.5-3,1.5-4.7c0-2.5-1.2-4.9-3.3-6.4
			c-1.7-1.3-3.8-1.7-5.9-1.4c-2.1,0.3-3.9,1.5-5.2,3.2c-1,1.4-1.5,3-1.5,4.7C175.3,321,176.5,323.4,178.5,324.9z"/>
		<path id="XMLID_37_" class="st0" d="M206.8,304.1c1.7-1.5,2.6-3.7,2.6-5.9c0-2-0.7-3.9-2-5.3c-1.4-1.6-3.4-2.5-5.5-2.6
			s-4.1,0.6-5.7,2c-1.7,1.5-2.6,3.6-2.6,5.9c0,2,0.7,3.9,2,5.3C198.5,306.8,203.5,307,206.8,304.1z"/>
		<path id="XMLID_36_" class="st0" d="M227.5,289c2.4-1.4,4-4.1,4-6.9c0-1.4-0.4-2.8-1.1-4c-1.1-1.8-2.8-3.1-4.8-3.7
			c-2-0.6-4.2-0.3-6,0.8c-2.5,1.4-4,4-4,6.9c0,1.4,0.4,2.8,1.1,4C218.9,289.9,223.7,291.2,227.5,289z"/>
		<path id="XMLID_35_" class="st0" d="M246,263.5c-3.3,1.1-5.5,4.1-5.5,7.5c0,0.8,0.1,1.7,0.4,2.5c1.4,4.2,5.8,6.4,10,5.1
			c3.3-1.1,5.5-4.1,5.5-7.5c0-0.8-0.1-1.7-0.4-2.4C254.7,264.4,250.2,262.2,246,263.5z"/>
		<path id="XMLID_34_" class="st0" d="M276,273.3c4-0.4,7.1-3.8,7.1-7.9c0-0.3,0-0.6,0-0.8c-0.2-2.1-1.3-4-2.9-5.3s-3.7-1.9-5.8-1.7
			c-4.1,0.4-7.1,3.8-7.1,7.9c0,0.3,0,0.6,0,0.8C267.8,270.5,271.7,273.7,276,273.3z"/>
		<path id="XMLID_33_" class="st0" d="M294.6,264.5c0,0.3,0,0.6,0,0.8c0,4.1,3.1,7.5,7.1,7.9c4.3,0.5,8.3-2.7,8.7-7.1
			c0-0.3,0-0.6,0-0.8c0-4.1-3-7.5-7.1-7.9C299,257,295.1,260.2,294.6,264.5z"/>
		<path id="XMLID_32_" class="st0" d="M326.8,278.6c4.2,1.3,8.6-0.9,10-5.1c0.3-0.8,0.4-1.6,0.4-2.5c0-3.4-2.2-6.5-5.5-7.5
			c-4.2-1.3-8.6,0.9-10,5.1c-0.3,0.8-0.4,1.6-0.4,2.5C321.3,274.5,323.5,277.5,326.8,278.6z"/>
		<path id="XMLID_31_" class="st0" d="M350.2,289c3.8,2.2,8.6,0.9,10.8-2.9c0.7-1.2,1.1-2.6,1.1-4c0-2.8-1.5-5.5-4-6.9
			c-1.8-1.1-4-1.3-6-0.8s-3.8,1.9-4.8,3.7c-0.7,1.2-1.1,2.6-1.1,4C346.2,285,347.7,287.6,350.2,289z"/>
		<path id="XMLID_30_" class="st0" d="M382.1,303.5c1.3-1.5,2-3.3,2-5.3c0-2.2-1-4.4-2.6-5.9c-1.6-1.4-3.6-2.1-5.7-2s-4.1,1-5.5,2.6
			c-1.3,1.5-2,3.3-2,5.3c0,2.2,1,4.4,2.6,5.9C374.2,307,379.2,306.8,382.1,303.5z"/>
		<path id="XMLID_29_" class="st0" d="M395.7,310.6c-2.1-0.3-4.2,0.2-5.9,1.4c-2.1,1.5-3.3,3.9-3.3,6.4c0,1.7,0.5,3.3,1.5,4.7
			c2.6,3.5,7.5,4.3,11.1,1.8c2.1-1.5,3.3-3.9,3.3-6.4c0-1.7-0.5-3.3-1.5-4.7C399.7,312.1,397.8,311,395.7,310.6z"/>
		<path id="XMLID_28_" class="st0" d="M400.2,342.1c0,1.1,0.2,2.2,0.7,3.2c1.8,4,6.5,5.8,10.5,4c2.9-1.3,4.7-4.1,4.7-7.2
			c0-1.1-0.2-2.2-0.7-3.2c-0.9-1.9-2.4-3.4-4.4-4.2s-4.1-0.7-6.1,0.2C402.1,336.2,400.2,339,400.2,342.1z"/>
		<path id="XMLID_27_" class="st0" d="M408.7,368.1c0,0.6,0.1,1.1,0.2,1.7c0.9,4.3,5.1,7,9.4,6.1c3.6-0.8,6.3-4,6.3-7.7
			c0-0.6-0.1-1.1-0.2-1.7c-0.4-2.1-1.7-3.8-3.4-5c-1.8-1.2-3.9-1.5-6-1.1C411.3,361.1,408.7,364.4,408.7,368.1z"/>
		<path id="XMLID_26_" class="st0" d="M438.1,387.3c-4.4,0-7.9,3.6-7.9,7.9c0,4.4,3.6,7.9,7.9,7.9c4.4,0,7.9-3.6,7.9-7.9
			S442.5,387.3,438.1,387.3z"/>
		<path id="XMLID_25_" class="st0" d="M388.8,495.2c-1.5,1.5-2.3,3.5-2.3,5.6s0.8,4.1,2.3,5.6c3.1,3.1,8.1,3.1,11.2,0
			c1.5-1.5,2.3-3.5,2.3-5.6s-0.8-4.1-2.3-5.6C396.9,492.1,391.9,492.1,388.8,495.2z"/>
		<path id="XMLID_24_" class="st0" d="M288.8,536.6c-4.4,0-7.9,3.6-7.9,7.9c0,4.4,3.6,7.9,7.9,7.9c4.4,0,7.9-3.6,7.9-7.9
			C296.8,540.1,293.2,536.6,288.8,536.6z"/>
		<path id="XMLID_23_" class="st0" d="M177.7,495.2c-1.5,1.5-2.3,3.5-2.3,5.6s0.8,4.1,2.3,5.6c3.1,3.1,8.1,3.1,11.2,0
			c1.5-1.5,2.3-3.5,2.3-5.6s-0.8-4.1-2.3-5.6C185.8,492.1,180.8,492.1,177.7,495.2z"/>
		<path id="XMLID_22_" class="st0" d="M139.6,387.3c-4.4,0-7.9,3.6-7.9,7.9c0,4.4,3.6,7.9,7.9,7.9c4.4,0,7.9-3.6,7.9-7.9
			S144,387.3,139.6,387.3z"/>
		<path id="XMLID_21_" class="st0" d="M183.3,297.6c2.1,0,4.1-0.8,5.6-2.3s2.3-3.5,2.3-5.6s-0.8-4.1-2.3-5.6
			c-3.1-3.1-8.1-3.1-11.2,0c-1.5,1.5-2.3,3.5-2.3,5.6s0.8,4.1,2.3,5.6S181.2,297.6,183.3,297.6z"/>
		<path id="XMLID_20_" class="st0" d="M288.8,253.9c4.4,0,7.9-3.5,7.9-7.9s-3.6-7.9-7.9-7.9c-4.4,0-7.9,3.6-7.9,7.9
			C280.9,250.4,284.5,253.9,288.8,253.9z"/>
		<path id="XMLID_19_" class="st0" d="M394.4,297.6c2.1,0,4.1-0.8,5.6-2.3s2.3-3.5,2.3-5.6s-0.8-4.1-2.3-5.6
			c-3.1-3.1-8.1-3.1-11.2,0c-1.5,1.5-2.3,3.5-2.3,5.6s0.8,4.1,2.3,5.6S392.3,297.6,394.4,297.6z"/>
		<path id="XMLID_18_" class="st0" d="M120.9,387.3c-4.4,0-7.9,3.6-7.9,7.9c0,4.4,3.6,7.9,7.9,7.9c4.4,0,7.9-3.6,7.9-7.9
			C128.9,390.9,125.3,387.3,120.9,387.3z"/>
		<g id="XMLID_146_">
			<path id="XMLID_17_" class="st0" d="M270.5,353.3c-0.8,0-1.5,0.1-2.3,0.2c-5.4,1.1-9.4,5.8-9.4,11.5v72.1H272V406h-0.1v-2h0.1
				v-5.6h23c0.5,0.1,1,0.1,1.5,0.1s1,0,1.5-0.1c5.8-0.7,10.3-5.6,10.3-11.6c0-0.4,0-0.8-0.1-1.2h-23.3H272v-2.1v-2v-5v-10.2h10.1
				H319v-12.9h-46.2C272,353.4,271.2,353.3,270.5,353.3z"/>
		</g>
	</g>
	<g id="XMLID_120_">
		<g id="XMLID_133_">
			<path id="XMLID_143_" class="st0" d="M778.3,503.8v46.7h28.4v3.7h-32.3v-50.4H778.3L778.3,503.8z"/>
			<path id="XMLID_140_" class="st0" d="M854.1,554.2l-5.5-12.4h-30.1l-5.5,12.4h-4.2l22.6-50.4h4.2l22.6,50.4H854.1z M847,538.2
				l-13.5-30.7L820,538.2H847z"/>
			<path id="XMLID_136_" class="st0" d="M901.3,517.6c0,5.2-3.2,9.2-8.2,10.8c6.3,1.7,9.9,6.8,9.9,12.7c0,10.4-9.6,13.2-18.3,13.2
				c-7.3,0-13.3,0-20.7,0v-50.4c7.3,0,13.3,0,20.7,0C893.2,503.8,901.3,508,901.3,517.6z M867.9,526.6h17.3c6.1,0,12.4-1.9,12.4-9.1
				c0-7.3-6.6-10.4-12.9-10.4h-16.8V526.6z M867.9,550.5h16.8c6.3,0,14.5-1.5,14.5-9.5c-0.1-7.9-7.2-10.7-14-10.7
				c-6,0-11.2,0-17.3,0V550.5z"/>
			<path id="XMLID_134_" class="st0" d="M946.5,513.5c-3.7-5.9-9.6-6.8-15.3-6.8c-5.9,0-15.3,2.2-15.3,10.2c0,6.4,6.9,7.9,15.4,9.5
				c9.7,1.9,19.8,3.6,19.8,14.5c-0.1,11.4-11.5,14.1-19.9,14.1c-7.8,0-16.8-3.2-20.7-10.9l3.5-1.7c3.1,6.1,11,9.1,17.2,9.1
				c6.2,0,16.1-1.7,16.1-10.7c0.1-7.6-8.3-9.2-16.6-10.8c-9.2-1.8-18.6-3.7-18.6-13c-0.2-10.7,10.9-14,19.1-14
				c7.2,0,13.5,1.1,18.4,8.6L946.5,513.5z"/>
		</g>
		<path id="XMLID_131_" class="st0" d="M632,453.8c0.5-20.3,11.3-30.4,32.3-30.4h2.3V437l0,0h-5.8c-8.8,0-15.2,7.4-15.2,16.6v32.6
			l0,0H632V453.8z"/>
		<path id="XMLID_8_" class="st0" d="M848.2,423.7c-6.9,0-12.5,5.5-12.7,12.4c0,0.1,0,0.2,0,0.3s0,0.2,0,0.3v23.5l0,0
			c-0.1,6.7-5.6,12.2-12.4,12.2s-12.3-5.4-12.4-12.2l0,0v-36.3h-14.6v36.3l0,0c0.5,14.5,12.4,26,27,26s26.4-11.6,27-26l0,0v-13.9
			v-22.4v-0.2L848.2,423.7L848.2,423.7z"/>
		<g id="XMLID_127_">
			<path id="XMLID_7_" class="st0" d="M776.6,405.6c-0.8,0-1.5,0.1-2.2,0.2v12.6h13.4c0.1-0.5,0.1-1,0.1-1.5
				C787.9,410.7,782.8,405.6,776.6,405.6z"/>
			<path id="XMLID_6_" class="st0" d="M788,435.1c0-6.3-5.1-11.4-11.4-11.4c-0.8,0-1.5,0.1-2.2,0.2v11.5v1.2v49.6H788v-50.1
				C788,435.8,788,435.4,788,435.1z"/>
		</g>
		<path id="XMLID_5_" class="st0" d="M520.8,432.5v-4.9v-10h9.9h36.1v-12.7h-45.2c-0.7-0.1-1.5-0.2-2.2-0.2c-0.8,0-1.5,0.1-2.2,0.2
			c-5.3,1-9.2,5.7-9.2,11.3v70.6h13v-30.5h-0.1v-2h0.1v-5.5h22.5c0.5,0.1,1,0.1,1.5,0.1s1,0,1.4-0.1c5.7-0.7,10.1-5.5,10.1-11.4
			c0-0.4,0-0.8-0.1-1.1h-22.8h-12.5v-2v-1.8H520.8L520.8,432.5z"/>
		<path id="XMLID_4_" class="st0" d="M767.7,449.8c-0.5-14.5-12.4-26-27-26c-7.8,0-14.8,3.3-19.7,8.6c-4.9-5.3-11.9-8.6-19.7-8.6
			c-14.6,0-26.4,11.6-27,26l0,0v36.4h14.6v-36.4c0.1-6.7,5.6-12.2,12.4-12.2s12.4,5.5,12.4,12.4l0,0v36.2h14.6V450l0,0
			c0-6.8,5.6-12.4,12.4-12.4s12.3,5.4,12.4,12.2l0,0v21.4v1.8c0.5,7.4,6.6,13.2,14.1,13.2c0.2,0,0.3,0,0.5,0v-25.4V449.8
			L767.7,449.8z"/>
		<path id="XMLID_3_" class="st0" d="M951,449.8c-0.5-14.5-12.4-26-27-26c-7.8,0-14.8,3.3-19.7,8.6c-4.9-5.3-11.9-8.6-19.7-8.6
			c-14.6,0-26.4,11.6-27,26l0,0v36.4h14.6v-36.4c0.1-6.7,5.6-12.2,12.4-12.2c6.8,0,12.4,5.5,12.4,12.4l0,0v36.2h14.6V450l0,0
			c0-6.8,5.6-12.4,12.4-12.4c6.8,0,12.3,5.4,12.4,12.2l0,0v21.4v1.8c0.5,7.4,6.6,13.2,14.1,13.2c0.2,0,0.3,0,0.5,0v-25.4V449.8
			L951,449.8z"/>
		<path id="XMLID_121_" class="st0" d="M616.7,459.9c4.1,0,7.5-3.3,7.6-7.4c0-0.1,0-0.2,0-0.3s0-0.3,0-0.4V449
			c-1.3-14.3-13.3-25.4-28-25.4c-14.6,0-26.6,11.2-28,25.4l-0.1,4.9v5.9c0.2,3.3,1,6.5,2.2,9.5l0,0c4.4,10.1,14.4,17.2,26.2,17.2
			c11.7,0,21.8-7.1,26.1-17.2h-15.3c-2.3,3.5-6.3,5.8-10.8,5.8s-8.5-2.3-10.9-5.8l0,0c-1.4-2.1-2.2-4.6-2.2-7.3
			c0-0.7,0.1-1.5,0.1-2.2L616.7,459.9L616.7,459.9z M596.3,435.9c6.9,0,12.4,5.6,12.4,12.4c0,0.5,0,0.9-0.1,1.4h-25
			c0-0.5-0.1-0.9-0.1-1.4C583.5,441.4,589.4,435.9,596.3,435.9z"/>
	</g>
</g>
</svg>
